<svg width="128" height="122" viewBox="0 0 128 122" fill="none" xmlns="http://www.w3.org/2000/svg">
<path d="M4.21687 20.7343L15.9033 8.42621C19.8345 4.94243 24.9055 3.01914 30.1582 3.01974H45.0736C47.2004 3.01955 49.2687 3.71571 50.9626 5.00182L58.2261 10.514C59.8031 11.7127 61.7292 12.3621 63.7101 12.3631H78.518C80.5391 12.3631 82.5234 12.9048 84.2642 13.9316C86.0051 14.9585 87.4391 16.433 88.4169 18.2019L99.9519 39.0617C100.788 40.5734 102.013 41.8336 103.501 42.7112C104.989 43.5887 106.685 44.0516 108.412 44.0517H112.117C114.954 44.0517 116.52 47.344 114.731 49.5462L99.2334 68.6238C98.6271 69.3703 98.2189 70.2577 98.0465 71.2037C97.8742 72.1498 97.9432 73.1241 98.2472 74.0365L101.106 82.6102C101.744 84.5223 101.678 86.5992 100.922 88.4674C100.165 90.3355 98.7661 91.8723 96.9774 92.8015L93.3224 94.699C91.767 95.5052 90.553 96.8433 89.9015 98.4695L85.7005 108.974C84.2693 112.554 81.798 115.622 78.6057 117.784C75.4134 119.945 71.6465 121.1 67.7913 121.099H65.9739C65.0201 121.099 64.0853 120.832 63.2748 120.329C62.4644 119.826 61.8106 119.107 61.3872 118.252L49.6435 94.5599C48.9589 93.1794 48.6456 91.6444 48.7343 90.106C48.8231 88.5676 49.311 87.0789 50.1499 85.7863L50.9555 84.5456C52.1074 82.7708 52.6181 80.6556 52.4028 78.5507C52.1876 76.4458 51.2594 74.4777 49.7721 72.9728L44.4009 67.5408C43.6017 66.4639 43.1319 65.1786 43.0481 63.8402C42.9643 62.5019 43.2703 61.168 43.9289 59.9999L45.3941 57.4023C45.6069 57.0251 45.7173 56.5988 45.7142 56.1657C45.711 55.7326 45.5945 55.3079 45.3762 54.9339C45.158 54.5598 44.8455 54.2495 44.47 54.0337C44.0945 53.8179 43.669 53.7043 43.2359 53.7041H19.0811C8.54293 53.7041 0 45.1567 0 34.6141V31.2972C0.000456407 27.366 1.5099 23.585 4.21687 20.7343Z" fill="#F5FAFF"/>
<path d="M113.958 86.4328L113.977 86.4724C114.281 87.0907 114.456 87.7645 114.49 88.4527C114.525 89.1408 114.418 89.8288 114.178 90.4744L109.081 104.15C108.859 104.746 108.46 105.261 107.937 105.624C107.414 105.987 106.793 106.181 106.156 106.181C105.329 106.181 104.535 105.853 103.95 105.267C103.364 104.682 103.036 103.888 103.036 103.061V92.1421C103.035 91.5414 103.177 90.9492 103.449 90.4136C103.721 89.8781 104.116 89.4144 104.601 89.0603L109.659 85.3708C110 85.1223 110.391 84.9514 110.805 84.8701C111.219 84.7888 111.646 84.7991 112.056 84.9003C112.465 85.0015 112.848 85.1911 113.176 85.4559C113.505 85.7206 113.772 86.054 113.958 86.4328Z" fill="#F5FAFF"/>
<path d="M87.6914 65.4883H114.509V67.6139C114.509 69.3747 114.162 71.1183 113.488 72.7452C112.814 74.372 111.827 75.8502 110.582 77.0953C109.336 78.3404 107.858 79.3281 106.231 80.0019C104.605 80.6758 102.861 81.0226 101.1 81.0226C99.3392 81.0226 97.5955 80.6758 95.9687 80.0019C94.3418 79.3279 92.8636 78.3402 91.6184 77.095C90.3733 75.8498 89.3856 74.3715 88.7118 72.7446C88.038 71.1176 87.6913 69.3739 87.6914 67.613V65.4883Z" fill="#7FB0E8"/>
<path d="M101.097 67.6025C108.502 67.6025 114.505 66.6559 114.505 65.4883C114.505 64.3207 108.502 63.3741 101.097 63.3741C93.6911 63.3741 87.6878 64.3207 87.6878 65.4883C87.6878 66.6559 93.6911 67.6025 101.097 67.6025Z" fill="#56303C"/>
<path d="M125.702 92.8483L112.802 96.0042L110.618 82.6852C108.016 82.6333 106.927 81.0818 106.625 79.6227L104.557 69.6472C104.547 69.6011 104.548 69.5535 104.559 69.5077C104.57 69.462 104.591 69.4192 104.621 69.3825C104.65 69.3458 104.687 69.316 104.73 69.2952C104.772 69.2744 104.818 69.2632 104.865 69.2624L105.6 69.2509C105.971 69.245 106.337 69.3403 106.658 69.5264C106.979 69.7126 107.244 69.9826 107.423 70.3076L108.791 72.7933L110.138 68.617C110.187 68.4653 110.198 68.3041 110.172 68.147C110.145 67.9899 110.081 67.8415 109.985 67.7145C109.889 67.5875 109.763 67.4855 109.619 67.4173C109.475 67.3491 109.317 67.3166 109.158 67.3226L106.579 67.4186L107.812 65.4338C108.025 65.0908 108.322 64.8076 108.674 64.6113C109.027 64.415 109.424 64.312 109.828 64.312L112.922 64.4221L112.457 60.8172C112.45 60.7603 112.446 60.7029 112.446 60.6455C112.447 60.3321 112.557 60.0287 112.759 59.7886C112.96 59.5484 113.239 59.3867 113.548 59.3317C113.603 59.3214 113.66 59.3311 113.708 59.359C113.757 59.387 113.794 59.4313 113.812 59.4841L116.772 67.9055L125.702 92.8483Z" fill="#B4702F"/>
<path fill-rule="evenodd" clip-rule="evenodd" d="M105.078 70.1124C104.989 70.0972 104.898 70.1001 104.81 70.1208C104.694 70.1479 104.579 70.0764 104.552 69.9611C104.525 69.8458 104.596 69.7304 104.711 69.7033C104.855 69.6695 105.005 69.6649 105.15 69.6897C105.296 69.7146 105.435 69.7685 105.56 69.8481C105.685 69.9278 105.792 70.0316 105.876 70.1535C105.959 70.2754 106.018 70.4128 106.047 70.5576C106.077 70.7025 106.077 70.8518 106.048 70.9968C106.019 71.1418 105.961 71.2795 105.878 71.4017C105.795 71.5239 105.688 71.6282 105.564 71.7084C105.44 71.7886 105.301 71.843 105.155 71.8685C105.038 71.8889 104.927 71.8109 104.907 71.6942C104.886 71.5776 104.964 71.4665 105.081 71.4461C105.17 71.4305 105.255 71.3971 105.331 71.3481C105.407 71.299 105.473 71.2352 105.524 71.1603C105.575 71.0855 105.61 71.0013 105.628 70.9125C105.646 70.8238 105.646 70.7324 105.627 70.6437C105.609 70.555 105.573 70.4709 105.522 70.3963C105.471 70.3217 105.405 70.2581 105.329 70.2094C105.253 70.1606 105.167 70.1277 105.078 70.1124Z" fill="#56303C"/>
<path fill-rule="evenodd" clip-rule="evenodd" d="M108.777 72.5576C108.908 72.4944 109.064 72.5486 109.128 72.6787L110.411 75.3176C110.474 75.4478 110.42 75.6045 110.289 75.6678C110.159 75.731 110.003 75.6768 109.939 75.5467L108.656 72.9078C108.593 72.7776 108.647 72.6209 108.777 72.5576Z" fill="#56303C"/>
<path fill-rule="evenodd" clip-rule="evenodd" d="M113.804 59.4602C113.847 59.5706 113.792 59.6948 113.682 59.7376C113.421 59.8386 113.312 60.0987 113.387 60.2948C113.462 60.4909 113.716 60.6113 113.978 60.5104C114.089 60.4679 114.213 60.523 114.255 60.6336C114.298 60.7441 114.243 60.8681 114.132 60.9107C113.685 61.0827 113.16 60.9003 112.987 60.4482C112.814 59.9963 113.083 59.5097 113.527 59.3377C113.637 59.295 113.762 59.3498 113.804 59.4602Z" fill="#56303C"/>
<path fill-rule="evenodd" clip-rule="evenodd" d="M109.178 64.1011C109.189 63.9568 109.314 63.8483 109.459 63.8588L112.719 64.0958L112.722 64.0961C113.979 64.2136 115.066 64.965 115.433 66.2103C115.474 66.3491 115.394 66.4948 115.256 66.5357C115.117 66.5766 114.971 66.4972 114.93 66.3585C114.634 65.3522 113.754 64.7197 112.676 64.618L109.421 64.3813C109.276 64.3708 109.168 64.2454 109.178 64.1011Z" fill="#56303C"/>
<path d="M126.075 93.5746L127.881 98.3532L112.651 98.5875L112.444 97.3758L110.327 97.9658L110.119 92.2142L126.65 89.9353L127.881 93.0709L126.075 93.5746Z" fill="#4191ED"/>
<path d="M120.163 95.2239L112.444 97.3758L112.65 98.5866L120.163 95.2239Z" fill="#56303C"/>
<path d="M47.4678 59.9763C47.4695 59.9921 47.4695 60.008 47.4678 60.0238C47.2705 60.951 41.3269 61.6968 34.0229 61.6968C26.7189 61.6968 20.7753 60.9528 20.5789 60.0238C20.5754 60.0082 20.5737 59.9923 20.5737 59.9763C20.5732 59.9719 20.5732 59.9674 20.5737 59.9631C20.5728 59.9593 20.5728 59.9554 20.5737 59.9516C20.6767 59.0138 26.6581 58.2575 34.0211 58.2575C41.3842 58.2575 47.3656 59.0138 47.4695 59.9516C47.47 59.9554 47.47 59.9593 47.4695 59.9631L47.4678 59.9763Z" fill="#56303C"/>
<path d="M32.7381 61.7946C33.6011 63.3585 33.0815 65.293 31.5732 66.0758C30.1696 66.804 28.383 66.2519 27.5227 64.8148C26.8113 63.6288 26.9196 62.2041 27.6671 61.2284C27.7843 61.069 27.8528 60.879 27.8642 60.6815C27.8756 60.4839 27.8295 60.2873 27.7314 60.1155L20.5824 47.1567C20.43 46.8811 20.504 46.5306 20.7585 46.3818C20.8237 46.3465 20.8953 46.3246 20.9691 46.3173C21.0429 46.3101 21.1174 46.3176 21.1883 46.3395C21.2591 46.3614 21.3249 46.3972 21.3817 46.4448C21.4386 46.4925 21.4853 46.551 21.5193 46.6169L28.6701 59.5783C28.7623 59.7538 28.904 59.8985 29.0775 59.9944C29.2511 60.0903 29.4489 60.1333 29.6466 60.1181C30.8494 59.9904 32.0901 60.6191 32.7381 61.7946Z" fill="#D9AF00"/>
<path d="M47.4634 60.0238L47.275 62.1247C46.7836 69.0809 44.1931 74.4795 34.0168 74.4795C22.3453 74.4795 21.2491 69.0845 20.7586 62.1247L20.5728 60.0238C20.7692 60.951 26.7128 61.6968 34.0168 61.6968C41.3208 61.6968 47.2662 60.951 47.4634 60.0238Z" fill="#4191ED"/>
<path d="M36.8917 78.9463V93.6838C36.8917 95.2626 34.1788 96.9963 30.7914 97.5749C27.4902 98.1375 24.7544 97.3987 24.5246 95.9133L25.5813 81.0552L18.721 75.7236C18.3066 75.3424 17.9872 74.8696 17.7884 74.3428C17.5896 73.816 17.517 73.25 17.5763 72.6901C17.9347 69.2957 18.6911 63.3565 18.8971 61.429C18.9037 61.3695 18.9232 61.3122 18.9541 61.261C18.9851 61.2098 19.0268 61.1659 19.0764 61.1324C19.1259 61.0989 19.1822 61.0766 19.2413 61.067C19.3003 61.0574 19.3608 61.0607 19.4184 61.0768L19.4457 61.0847C19.9301 61.2194 20.3642 61.4937 20.6938 61.8734C21.0234 62.2531 21.2339 62.7214 21.2992 63.22L22.1965 68.8712C22.2388 69.1928 22.4015 69.4864 22.6517 69.6928L23.4645 70.3611C23.3339 70.2401 23.2297 70.0933 23.1585 69.9302C23.0873 69.767 23.0506 69.5908 23.0506 69.4128V68.7365C23.0505 68.654 23.0709 68.5728 23.11 68.5002C23.1491 68.4276 23.2057 68.3659 23.2747 68.3207C23.3436 68.2754 23.4227 68.248 23.5049 68.241C23.5871 68.234 23.6697 68.2475 23.7453 68.2804L32.3473 72.0147C33.6978 72.6016 34.8474 73.5703 35.6547 74.8018C36.4621 76.0332 36.892 77.4738 36.8917 78.9463Z" fill="#B4702F"/>
<path fill-rule="evenodd" clip-rule="evenodd" d="M23.0434 70.2544C23.132 70.1401 23.2966 70.1192 23.4109 70.2079L28.4854 74.1412C28.5998 74.2299 28.6206 74.3944 28.532 74.5088C28.4434 74.6231 28.2788 74.6439 28.1645 74.5553L23.09 70.622C22.9756 70.5333 22.9548 70.3688 23.0434 70.2544Z" fill="#56303C"/>
<path fill-rule="evenodd" clip-rule="evenodd" d="M18.8314 61.5582C18.8408 61.4402 18.9442 61.3521 19.0622 61.3616C19.2124 61.3736 19.3586 61.4156 19.4923 61.4851C19.626 61.5546 19.7444 61.6502 19.8404 61.7663C19.9365 61.8824 20.0083 62.0165 20.0516 62.1608C20.0949 62.3052 20.1088 62.4567 20.0925 62.6065C20.0762 62.7563 20.0301 62.9013 19.9567 63.0329C19.8834 63.1645 19.7844 63.2801 19.6657 63.3728C19.5469 63.4655 19.4107 63.5334 19.2652 63.5726C19.1197 63.6117 18.9678 63.6213 18.8186 63.6007C18.7013 63.5845 18.6193 63.4763 18.6355 63.359C18.6517 63.2417 18.7599 63.1597 18.8772 63.1759C18.9696 63.1887 19.0637 63.1827 19.1538 63.1585C19.2439 63.1342 19.3283 63.0922 19.4018 63.0348C19.4754 62.9773 19.5367 62.9057 19.5821 62.8242C19.6275 62.7427 19.6561 62.6529 19.6662 62.5601C19.6763 62.4673 19.6677 62.3735 19.6409 62.2841C19.6141 62.1947 19.5696 62.1116 19.5101 62.0397C19.4506 61.9678 19.3773 61.9086 19.2945 61.8655C19.2117 61.8225 19.1211 61.7965 19.028 61.789C18.91 61.7796 18.822 61.6763 18.8314 61.5582Z" fill="#56303C"/>
<path fill-rule="evenodd" clip-rule="evenodd" d="M23.7974 68.2382C23.9064 68.2845 23.9573 68.4103 23.911 68.5193C23.8711 68.6133 23.8501 68.7141 23.8492 68.8162C23.8484 68.9183 23.8676 69.0195 23.9058 69.1141C23.944 69.2087 24.0005 69.2949 24.072 69.3677C24.1436 69.4405 24.2287 69.4984 24.3227 69.5383C24.4166 69.5782 24.5175 69.5992 24.6195 69.6001C24.7216 69.601 24.8228 69.5817 24.9174 69.5435C25.012 69.5053 25.0982 69.4488 25.171 69.3773C25.2438 69.3057 25.3017 69.2206 25.3416 69.1266C25.3879 69.0177 25.5138 68.9668 25.6228 69.0131C25.7318 69.0593 25.7826 69.1852 25.7363 69.2942C25.6745 69.44 25.5845 69.5721 25.4715 69.6831C25.3586 69.7941 25.2249 69.8818 25.078 69.9411C24.9312 70.0004 24.7741 70.0303 24.6158 70.0289C24.4574 70.0275 24.3009 69.9949 24.1551 69.933C24.0093 69.8712 23.8772 69.7812 23.7662 69.6682C23.6552 69.5553 23.5675 69.4215 23.5082 69.2747C23.4489 69.1279 23.4191 68.9708 23.4204 68.8124C23.4218 68.6541 23.4544 68.4976 23.5163 68.3518C23.5625 68.2428 23.6884 68.1919 23.7974 68.2382Z" fill="#56303C"/>
<path d="M37.6947 98.6456C37.4015 100.067 33.6355 100.542 29.6775 99.7278C25.8031 98.93 22.7679 97.1549 22.9106 95.7469L22.9247 95.6588L23.991 88.6146L22.3488 88.2897L23.6361 85.1919L38.3648 87.6574L38.7337 91.5318L37.3936 91.2676L37.6947 98.6456Z" fill="#A5C4E6"/>
<path d="M37.3918 91.2607L31.0255 90.0006L37.464 93.0288L37.3918 91.2607Z" fill="#56303C"/>
<path d="M90.7547 72.5194L90.7415 72.6004C90.4448 73.5197 85.1123 74.2884 77.8857 74.5376C76.2823 74.5931 74.5846 74.6257 72.8288 74.6257C72.0393 74.6257 71.2624 74.6198 70.4981 74.6081C61.9226 74.4777 55.249 73.6395 54.9126 72.604L54.8994 72.523C54.8994 71.3615 62.9246 70.4202 72.8244 70.4202C82.7243 70.4202 90.7547 71.358 90.7547 72.5194Z" fill="#56303C"/>
<path d="M64.8046 73.3488C65.3779 73.3488 65.8427 72.884 65.8427 72.3107C65.8427 71.7373 65.3779 71.2725 64.8046 71.2725C64.2312 71.2725 63.7664 71.7373 63.7664 72.3107C63.7664 72.884 64.2312 73.3488 64.8046 73.3488Z" fill="white"/>
<path d="M78.1559 74.807C76.5524 74.8624 74.8548 74.895 73.099 74.895C72.3065 74.895 71.5307 74.8889 70.7682 74.8774C70.9038 73.1287 72.5073 71.748 74.4664 71.748C76.3974 71.7454 77.985 73.0908 78.1559 74.807Z" fill="white"/>
<path d="M82.0965 77.3271C83.3906 77.3271 84.4396 76.3621 84.4396 75.1716C84.4396 73.9811 83.3906 73.0161 82.0965 73.0161C80.8024 73.0161 79.7534 73.9811 79.7534 75.1716C79.7534 76.3621 80.8024 77.3271 82.0965 77.3271Z" fill="white"/>
<path d="M90.7415 72.6004L90.1084 76.4747C89.4388 80.5748 87.3331 84.3031 84.1676 86.9935C81.0022 89.684 76.9832 91.1611 72.8288 91.1611C68.6745 91.1611 64.6555 89.684 61.49 86.9935C58.3246 84.3031 56.2189 80.5748 55.5493 76.4747L54.9171 72.6004C55.249 73.6324 61.9226 74.4742 70.5025 74.6045C71.2656 74.6157 72.0425 74.6215 72.8333 74.6221C74.589 74.6221 76.2867 74.5922 77.8901 74.5341C85.1123 74.2884 90.4448 73.5197 90.7415 72.6004Z" fill="#0066DA"/>
<path d="M53.8102 102.76V92.4415C53.8104 89.3608 55.0213 86.4037 57.1817 84.2076L65.892 75.3538C65.9434 75.3013 66.0056 75.2606 66.0743 75.2343C66.1429 75.208 66.2164 75.1968 66.2898 75.2015C66.3632 75.2061 66.4347 75.2266 66.4994 75.2614C66.5642 75.2962 66.6207 75.3445 66.6651 75.4032L66.6994 75.4481C66.9358 75.7604 67.0849 76.1301 67.1313 76.5191C67.1777 76.9081 67.1198 77.3025 66.9636 77.6617L65.8541 80.6485C65.7821 80.8415 65.7645 81.0505 65.8031 81.2528C65.8416 81.4551 65.9349 81.643 66.0729 81.796C66.2108 81.949 66.388 82.0612 66.5852 82.1205C66.7825 82.1798 66.9922 82.1838 67.1916 82.1322L81.1613 78.5017C81.3736 78.4349 81.6033 78.451 81.8043 78.5468C82.0052 78.6425 82.1624 78.8108 82.2443 79.0177L82.2523 79.0371C82.3386 79.2531 82.3386 79.4939 82.2524 79.7099C82.1662 79.9258 82.0004 80.1005 81.7891 80.1976C80.5907 80.7471 78.4351 81.7386 78.4351 81.7386L83.4542 80.0814C83.699 80.0017 83.9651 80.0198 84.1969 80.1319C84.4286 80.244 84.608 80.4414 84.6975 80.6828L84.7063 80.7057C84.7976 80.9512 84.7915 81.2223 84.6894 81.4634C84.5872 81.7046 84.3967 81.8975 84.1568 82.0027C82.5648 82.7001 79.3747 84.1028 79.3245 84.1248L83.0579 82.9704C83.2704 82.9049 83.4998 82.9213 83.7007 83.0165C83.9017 83.1117 84.0597 83.2787 84.1436 83.4847L84.1507 83.5041C84.2361 83.7106 84.2427 83.9413 84.1692 84.1523C84.0956 84.3634 83.9471 84.54 83.7518 84.6487L77.9024 87.9067C77.86 87.931 77.8271 87.969 77.8092 88.0145C77.7914 88.0601 77.7897 88.1103 77.8044 88.157C77.8192 88.2036 77.8494 88.2438 77.8901 88.2708C77.9309 88.2979 77.9797 88.3101 78.0283 88.3056L82.5014 87.853C83.2112 87.7808 83.4471 88.7767 82.7806 89.0312L67.0877 95.0188C66.867 95.1029 66.6822 95.2609 66.5648 95.4659C66.4474 95.6709 66.4048 95.9103 66.4441 96.1432L67.4725 102.259L53.8102 102.76Z" fill="#B4702F"/>
<path fill-rule="evenodd" clip-rule="evenodd" d="M79.5958 81.3743C79.639 81.5124 79.562 81.6593 79.424 81.7025L75.5091 82.9265C75.371 82.9696 75.2241 82.8927 75.1809 82.7546C75.1377 82.6165 75.2147 82.4696 75.3528 82.4264L79.2676 81.2025C79.4057 81.1593 79.5526 81.2362 79.5958 81.3743Z" fill="#56303C"/>
<path fill-rule="evenodd" clip-rule="evenodd" d="M80.0052 83.9155C80.0484 84.0536 79.9715 84.2005 79.8334 84.2437L76.6019 85.2546C76.4638 85.2978 76.3168 85.2208 76.2736 85.0828C76.2305 84.9447 76.3074 84.7977 76.4454 84.7545L79.677 83.7437C79.8151 83.7005 79.962 83.7774 80.0052 83.9155Z" fill="#56303C"/>
<path fill-rule="evenodd" clip-rule="evenodd" d="M81.3002 79.1058C81.1742 79.2318 81.1742 79.4362 81.3002 79.5622C81.4263 79.6882 81.6306 79.6882 81.7566 79.5622C81.8827 79.4362 81.8827 79.2318 81.7566 79.1058C81.6306 78.9798 81.4263 78.9798 81.3002 79.1058ZM80.997 79.8654C80.7035 79.5719 80.7035 79.0961 80.997 78.8026C81.2905 78.5091 81.7664 78.5091 82.0599 78.8026C82.3533 79.0961 82.3533 79.5719 82.0599 79.8654C81.7664 80.1589 81.2905 80.1589 80.997 79.8654Z" fill="#56303C"/>
<path fill-rule="evenodd" clip-rule="evenodd" d="M83.1735 83.7366C83.1325 83.9101 83.24 84.0839 83.4134 84.1248C83.5869 84.1658 83.7607 84.0583 83.8016 83.8849C83.8426 83.7114 83.7352 83.5376 83.5617 83.4967C83.3882 83.4557 83.2144 83.5631 83.1735 83.7366ZM83.3149 84.5422C82.9109 84.4468 82.6608 84.0421 82.7561 83.6381C82.8515 83.2341 83.2562 82.984 83.6602 83.0793C84.0641 83.1746 84.3143 83.5794 84.219 83.9834C84.1236 84.3873 83.7189 84.6375 83.3149 84.5422Z" fill="#56303C"/>
<path fill-rule="evenodd" clip-rule="evenodd" d="M82.3783 88.3985C82.3494 88.5209 82.4252 88.6434 82.5476 88.6723C82.6699 88.7012 82.7925 88.6254 82.8214 88.5031C82.8503 88.3807 82.7745 88.2581 82.6521 88.2293C82.5298 88.2004 82.4072 88.2762 82.3783 88.3985ZM82.46 89.0434C82.1327 88.9661 81.93 88.6382 82.0072 88.3109C82.0845 87.9836 82.4124 87.7809 82.7397 87.8582C83.067 87.9354 83.2697 88.2634 83.1924 88.5907C83.1152 88.9179 82.7873 89.1206 82.46 89.0434Z" fill="#56303C"/>
<path fill-rule="evenodd" clip-rule="evenodd" d="M83.5289 80.8805C83.4766 81.1022 83.6139 81.3244 83.8357 81.3767C84.0574 81.4291 84.2796 81.2917 84.3319 81.07C84.3843 80.8483 84.2469 80.6261 84.0252 80.5737C83.8035 80.5214 83.5813 80.6587 83.5289 80.8805ZM83.7372 81.7941C83.2849 81.6874 83.0049 81.2342 83.1116 80.782C83.2183 80.3297 83.6715 80.0497 84.1237 80.1564C84.5759 80.2631 84.856 80.7163 84.7493 81.1685C84.6426 81.6207 84.1894 81.9008 83.7372 81.7941Z" fill="#56303C"/>
<path fill-rule="evenodd" clip-rule="evenodd" d="M65.9924 75.1699C66.0808 75.0911 66.2164 75.0989 66.2952 75.1873C66.4935 75.4098 66.6019 75.6982 66.5994 75.9962C66.5968 76.2943 66.4836 76.5807 66.2815 76.7999C66.0795 77.019 65.8032 77.1552 65.5063 77.1819C65.2095 77.2085 64.9133 77.1239 64.6754 76.9443C64.5809 76.8729 64.5621 76.7385 64.6335 76.644C64.7048 76.5495 64.8393 76.5307 64.9338 76.602C65.0867 76.7175 65.2771 76.7719 65.4679 76.7548C65.6588 76.7376 65.8364 76.6501 65.9663 76.5092C66.0961 76.3683 66.1689 76.1842 66.1706 75.9926C66.1722 75.801 66.1025 75.6157 65.975 75.4726C65.8962 75.3842 65.904 75.2487 65.9924 75.1699Z" fill="#56303C"/>
<path d="M71.3134 113.044C71.3134 114.412 67.3149 115.521 62.383 115.521C58.7807 115.521 55.676 114.929 54.2645 114.077C53.7432 113.763 53.4526 113.413 53.4526 113.044V104.415H51.3675L52.4612 98.5611L69.0522 100.773L70.0005 104.415H68.5837L71.2676 112.78L71.2949 112.868C71.3012 112.892 71.3062 112.916 71.3098 112.941C71.3135 112.975 71.3147 113.01 71.3134 113.044Z" fill="#7FB0E8"/>
<path d="M68.5822 104.413H56.6008L69.0647 105.917L68.5822 104.413Z" fill="#56303C"/>
<path fill-rule="evenodd" clip-rule="evenodd" d="M67.3061 0.0262335C67.4685 -0.0437501 67.6568 0.0311103 67.7268 0.193439L86.9814 44.8549C87.0514 45.0173 86.9765 45.2056 86.8142 45.2756C86.6518 45.3455 86.4635 45.2707 86.3935 45.1084L67.1389 0.446872C67.069 0.284543 67.1438 0.0962171 67.3061 0.0262335Z" fill="#56303C"/>
<path d="M88.9081 49.431C88.9077 51.52 88.1862 53.5449 86.8655 55.1635C85.5447 56.7821 83.7057 57.8951 81.6592 58.3144C79.6126 58.7338 77.484 58.4338 75.6331 57.4651C73.7822 56.4964 72.3225 54.9184 71.5006 52.9979C70.6786 51.0773 70.5449 48.9319 71.1221 46.9241C71.6992 44.9163 72.9517 43.1693 74.668 41.9783C76.3843 40.7873 78.4592 40.2254 80.5419 40.3874C82.6247 40.5494 84.5877 41.4254 86.0992 42.8675C86.9871 43.7146 87.6938 44.733 88.1766 45.8612C88.6594 46.9894 88.9083 48.2038 88.9081 49.431Z" fill="#7FB0E8"/>
<path d="M80.6111 52.4521C77.1304 54.0881 73.4498 53.9816 71.2687 52.4177C70.595 50.4944 70.5886 48.4003 71.2506 46.4729C71.9127 44.5456 73.2045 42.8973 74.9179 41.794C76.6313 40.6907 78.6663 40.1966 80.6949 40.3913C82.7235 40.5861 84.627 41.4583 86.0992 42.8675C86.1098 42.8895 86.1207 42.9106 86.1303 42.9327C87.6035 46.0629 85.1318 50.3256 80.6111 52.4521Z" fill="#56303C"/>
<path d="M67.1011 53.8742C67.1009 52.6624 67.4168 51.4716 68.0176 50.4192C68.6184 49.3669 69.4833 48.4894 70.5269 47.8735C71.5705 47.2576 72.7566 46.9246 73.9683 46.9072C75.1799 46.8899 76.3752 47.1889 77.4359 47.7748L81.6404 51.2027C80.4746 52.3077 78.0074 52.6582 76.9789 53.0896C76.0279 53.4885 75.4116 54.6667 75.4116 55.6978V74.4954C74.7538 74.4954 74.1048 74.6266 73.4656 74.6178C71.1885 74.5826 69.04 74.6178 67.102 74.4989L67.1011 53.8742Z" fill="white"/>
<path d="M117.258 15.9919L85.424 6.23999C84.1933 5.8639 82.8974 5.7505 81.6201 5.90715L68.5054 7.52293C68.3327 7.54408 68.1686 7.61044 68.0297 7.71531C67.8909 7.82018 67.7821 7.95984 67.7145 8.12019C67.6469 8.28054 67.6228 8.4559 67.6446 8.62855C67.6664 8.8012 67.7335 8.96503 67.8389 9.10348C68.2226 9.60778 68.709 10.0248 69.2659 10.3271C69.8228 10.6293 70.4376 10.8098 71.0696 10.8566L77.4428 11.3295C77.5028 11.3314 77.5604 11.3537 77.606 11.3926C77.6516 11.4316 77.6826 11.4849 77.6939 11.5439C77.7052 11.6028 77.6961 11.6638 77.668 11.7169C77.64 11.7699 77.5947 11.8119 77.5397 11.8358L69.9504 15.534L70.3554 13.9684C70.4092 13.7603 70.4146 13.5425 70.3712 13.332C70.3278 13.1214 70.2368 12.9235 70.1052 12.7535C69.9735 12.5836 69.8047 12.446 69.6117 12.3513C69.4186 12.2566 69.2065 12.2074 68.9915 12.2074C68.7398 12.2074 68.4924 12.2729 68.2736 12.3975C68.0548 12.5221 67.8723 12.7015 67.7438 12.918L65.5336 16.6417C65.1794 17.2383 65.0487 17.9413 65.1648 18.6253C65.281 19.3093 65.6364 19.9298 66.1676 20.3761L75.5629 28.2683C76.4226 28.9903 77.4674 29.4569 78.5788 29.6152C79.6902 29.7735 80.8238 29.6171 81.8508 29.1638L91.4486 24.9249L112.326 36.5858C112.326 36.5858 121.388 28.0358 117.258 15.9919Z" fill="#B4702F"/>
<path fill-rule="evenodd" clip-rule="evenodd" d="M70.9123 7.27951C71.0608 7.26233 71.1952 7.36881 71.2123 7.51736C71.2366 7.72706 71.2193 7.93948 71.1615 8.1425C71.1037 8.34553 71.0064 8.53517 70.8753 8.7006C70.7442 8.86603 70.5818 9.00402 70.3973 9.10669C70.2129 9.20936 70.01 9.27468 69.8003 9.29895C69.5906 9.32322 69.3782 9.30594 69.1752 9.24811C68.9721 9.19028 68.7825 9.09303 68.6171 8.96191C68.4516 8.83079 68.3137 8.66837 68.211 8.48392C68.1083 8.29947 68.043 8.09661 68.0187 7.88692C68.0015 7.73837 68.108 7.60401 68.2566 7.58682C68.4051 7.56963 68.5395 7.67612 68.5567 7.82467C68.5728 7.96372 68.6161 8.09824 68.6842 8.22055C68.7522 8.34286 68.8437 8.45057 68.9534 8.53752C69.0631 8.62447 69.1889 8.68895 69.3235 8.7273C69.4581 8.76565 69.599 8.7771 69.7381 8.76101C69.8771 8.74492 70.0116 8.7016 70.1339 8.63352C70.2563 8.56544 70.364 8.47394 70.4509 8.36423C70.5379 8.25453 70.6024 8.12877 70.6407 7.99415C70.679 7.85953 70.6905 7.71866 70.6744 7.57961C70.6572 7.43106 70.7637 7.2967 70.9123 7.27951Z" fill="#56303C"/>
<path fill-rule="evenodd" clip-rule="evenodd" d="M94.8569 22.6221C94.9406 22.746 94.9081 22.9143 94.7841 22.998L91.601 25.1483C91.4771 25.232 91.3088 25.1994 91.2251 25.0755C91.1414 24.9516 91.174 24.7833 91.2979 24.6996L94.481 22.5493C94.6049 22.4656 94.7732 22.4982 94.8569 22.6221Z" fill="#56303C"/>
<path d="M114.875 13.5149L119.062 13.2701L118.742 41.0941L110.844 38.3997L114.875 13.5149Z" fill="#0066DA"/>
<path d="M113.817 19.2932L111.236 35.9775L109.612 35.0706L113.817 19.2932Z" fill="#56303C"/>
<path fill-rule="evenodd" clip-rule="evenodd" d="M73.042 13.3496C73.2063 13.2786 73.397 13.3542 73.468 13.5184L74.6189 16.1803C74.6899 16.3445 74.6143 16.5353 74.4501 16.6063C74.2858 16.6773 74.0951 16.6017 74.024 16.4375L72.8732 13.7756C72.8022 13.6114 72.8778 13.4206 73.042 13.3496Z" fill="#5D2D3C"/>
<path fill-rule="evenodd" clip-rule="evenodd" d="M79.1129 27.3781C79.2666 27.3128 79.4442 27.3844 79.5095 27.5381L81.4828 32.1803C81.5482 32.334 81.4765 32.5116 81.3228 32.577C81.169 32.6423 80.9914 32.5707 80.9261 32.417L78.9528 27.7748C78.8875 27.6211 78.9591 27.4435 79.1129 27.3781Z" fill="#5D2D3C"/>
<path fill-rule="evenodd" clip-rule="evenodd" d="M70.2626 15.393C70.4075 15.4298 70.4953 15.5771 70.4585 15.722L69.127 20.9759C69.0266 21.413 69.0076 21.7022 69.0717 21.9411C69.1339 22.1728 69.2853 22.3963 69.6156 22.6739C69.7301 22.7701 69.7449 22.9409 69.6487 23.0554C69.5525 23.1698 69.3817 23.1846 69.2672 23.0884C68.8914 22.7726 68.6505 22.4611 68.5487 22.0815C68.4489 21.7096 68.494 21.3119 68.5999 20.8516L68.6006 20.8486L69.9336 15.589C69.9703 15.444 70.1176 15.3563 70.2626 15.393Z" fill="#56303C"/>
<path fill-rule="evenodd" clip-rule="evenodd" d="M77.0033 15.592C76.8524 15.4966 76.6762 15.4487 76.4978 15.4545C76.3193 15.4603 76.1467 15.5194 76.0022 15.6244C76.0022 15.6244 76.0022 15.6244 76.0022 15.6244L69.7028 20.2032C69.51 20.3432 69.3516 20.5253 69.2397 20.7357C69.1278 20.946 69.0652 21.1791 69.0568 21.4172C69.0484 21.6554 69.0944 21.8923 69.1912 22.11C69.2881 22.3277 69.4332 22.5206 69.6156 22.6739C69.7301 22.7701 69.7449 22.9409 69.6487 23.0554C69.5525 23.1698 69.3817 23.1846 69.2672 23.0884C69.0218 22.8823 68.8267 22.6229 68.6964 22.3301C68.5662 22.0372 68.5043 21.7185 68.5156 21.3982C68.5269 21.0778 68.6111 20.7643 68.7616 20.4813C68.9122 20.1983 69.1252 19.9534 69.3846 19.765L75.6838 15.1863C75.916 15.0177 76.1934 14.9225 76.4802 14.9132C76.767 14.904 77.05 14.9809 77.2926 15.1342C77.4589 15.2395 77.602 15.3782 77.7125 15.5412C77.8229 15.7042 77.8986 15.8883 77.9347 16.0818C77.9709 16.2754 77.9668 16.4743 77.9226 16.6662C77.8785 16.858 77.7953 17.0388 77.6783 17.1971L77.6779 17.1976L76.3567 18.9663C76.2672 19.0861 76.0975 19.1106 75.9777 19.0211C75.8579 18.9316 75.8333 18.762 75.9228 18.6422L77.2429 16.8751C77.243 16.8749 77.2431 16.8748 77.2432 16.8746C77.3159 16.7762 77.3675 16.664 77.3949 16.5448C77.4223 16.4254 77.4249 16.3017 77.4024 16.1813C77.3799 16.0609 77.3328 15.9464 77.2641 15.845C77.1955 15.7436 77.1067 15.6575 77.0033 15.592Z" fill="#56303C"/>
<path fill-rule="evenodd" clip-rule="evenodd" d="M79.6454 16.8719C79.4427 16.7344 79.1983 16.6721 78.9545 16.6958C78.7107 16.7194 78.4829 16.8275 78.3104 17.0014L72.7004 22.6484C72.5201 22.8299 72.3794 23.0468 72.2873 23.2855C72.1951 23.5241 72.1535 23.7793 72.1651 24.0348C72.1766 24.2904 72.2411 24.5408 72.3544 24.7701C72.4677 24.9995 72.6274 25.2028 72.8233 25.3673C72.9378 25.4635 72.9527 25.6342 72.8566 25.7488C72.7604 25.8633 72.5896 25.8782 72.4751 25.7821C72.2218 25.5694 72.0153 25.3065 71.8689 25.01C71.7224 24.7134 71.639 24.3897 71.6241 24.0593C71.6092 23.7289 71.663 23.399 71.7821 23.0904C71.9012 22.7819 72.0831 22.5014 72.3162 22.2668L77.926 16.6201C78.1874 16.3565 78.5327 16.1926 78.9022 16.1568C79.2716 16.1209 79.6418 16.2153 79.949 16.4235C80.288 16.6525 80.5258 17.0031 80.6132 17.4028C80.7005 17.8024 80.6306 18.2202 80.418 18.5696M80.418 18.5696L76.9989 24.205C76.9214 24.3329 76.7548 24.3736 76.627 24.2961C76.4991 24.2185 76.4584 24.052 76.536 23.9241L79.9551 18.2887C80.0954 18.0581 80.1417 17.7821 80.0841 17.5184C80.0265 17.2547 79.8691 17.023 79.6454 16.8719" fill="#56303C"/>
<path fill-rule="evenodd" clip-rule="evenodd" d="M80.7459 21.0123C80.5634 20.9019 80.3476 20.8598 80.1369 20.8935C79.9262 20.9272 79.7343 21.0346 79.5953 21.1966C79.5953 21.1966 79.5954 21.1965 79.5953 21.1966L76.0099 25.3948C75.8374 25.5967 75.7064 25.8307 75.6247 26.0834C75.543 26.3361 75.512 26.6024 75.5337 26.8671C75.5553 27.1318 75.6291 27.3896 75.7508 27.6257C75.8725 27.8617 76.0397 28.0713 76.2428 28.2425C76.3571 28.3389 76.3717 28.5097 76.2753 28.624C76.1789 28.7384 76.0081 28.7529 75.8938 28.6566C75.6361 28.4394 75.4239 28.1733 75.2695 27.8738C75.115 27.5743 75.0214 27.2471 74.9939 26.9112C74.9665 26.5754 75.0057 26.2374 75.1095 25.9167C75.2132 25.5961 75.3793 25.2992 75.5982 25.043C75.5982 25.043 75.5982 25.043 75.5982 25.043L79.1841 20.8442C79.4066 20.5848 79.7139 20.4128 80.0514 20.3588C80.3889 20.3048 80.7345 20.3723 81.0268 20.5494L81.0277 20.5499C81.3241 20.7309 81.5452 21.0127 81.6506 21.3436C81.7559 21.6745 81.7383 22.0323 81.6011 22.3513C81.6011 22.3513 81.6011 22.3513 81.6011 22.3513L79.3117 27.6803C79.2527 27.8177 79.0935 27.8812 78.9561 27.8222C78.8187 27.7632 78.7552 27.6039 78.8142 27.4665L81.1036 22.1374C81.1894 21.9381 81.2003 21.7146 81.1346 21.5079C81.0688 21.3013 80.9308 21.1254 80.7459 21.0123Z" fill="#56303C"/>
<path fill-rule="evenodd" clip-rule="evenodd" d="M77.6359 11.3686C77.7505 11.2725 77.9213 11.2874 78.0174 11.402L77.8099 11.576C78.0174 11.402 78.0174 11.402 78.0174 11.402L78.019 11.4039C78.0203 11.4054 78.0225 11.408 78.0255 11.4115C78.0315 11.4185 78.0408 11.4293 78.0534 11.4436C78.0785 11.4722 78.1166 11.5149 78.1673 11.5699C78.2687 11.68 78.4206 11.839 78.6199 12.0325C79.0188 12.4196 79.6067 12.9436 80.3602 13.4875C81.8688 14.5765 84.0299 15.7377 86.6581 16.0532C86.8066 16.0711 86.9125 16.2059 86.8947 16.3543C86.8769 16.5028 86.742 16.6087 86.5936 16.5909C83.8453 16.261 81.5984 15.0492 80.0432 13.9265C79.2648 13.3646 78.6568 12.823 78.2428 12.4211C78.0357 12.2201 77.8768 12.0538 77.7692 11.937C77.7153 11.8786 77.6743 11.8326 77.6464 11.8008C77.6325 11.785 77.6218 11.7726 77.6145 11.7641C77.6108 11.7598 77.608 11.7565 77.606 11.7541L77.6036 11.7513L77.6029 11.7505C77.6028 11.7504 77.6025 11.75 77.8099 11.576L77.6029 11.7505C77.5068 11.6359 77.5214 11.4647 77.6359 11.3686Z" fill="#56303C"/>
<path fill-rule="evenodd" clip-rule="evenodd" d="M69.0908 12.737C68.7516 12.737 68.4766 13.012 68.4766 13.3512C68.4766 13.6904 68.7516 13.9653 69.0908 13.9653C69.43 13.9653 69.705 13.6904 69.705 13.3512C69.705 13.012 69.43 12.737 69.0908 12.737ZM67.9844 13.3512C67.9844 12.7401 68.4798 12.2448 69.0908 12.2448C69.7018 12.2448 70.1972 12.7401 70.1972 13.3512C70.1972 13.9622 69.7018 14.4576 69.0908 14.4576C68.4798 14.4576 67.9844 13.9622 67.9844 13.3512Z" fill="#56303C"/>
<path fill-rule="evenodd" clip-rule="evenodd" d="M76.3605 15.6159C76.0471 15.7457 75.8983 16.105 76.0281 16.4184C76.1579 16.7318 76.5171 16.8806 76.8305 16.7508C77.1439 16.621 77.2927 16.2617 77.1629 15.9483C77.0331 15.6349 76.6738 15.4861 76.3605 15.6159ZM75.5733 16.6068C75.3395 16.0422 75.6076 15.395 76.1721 15.1612C76.7366 14.9274 77.3838 15.1954 77.6177 15.76C77.8515 16.3245 77.5834 16.9717 77.0189 17.2055C76.4544 17.4394 75.8071 17.1713 75.5733 16.6068Z" fill="#56303C"/>
<path fill-rule="evenodd" clip-rule="evenodd" d="M78.5083 17.3773C78.445 17.7673 78.7098 18.1348 79.0999 18.1981C79.4899 18.2614 79.8574 17.9966 79.9207 17.6066C79.984 17.2166 79.7191 16.8491 79.3291 16.7858C78.9391 16.7225 78.5716 16.9873 78.5083 17.3773ZM79.021 18.684C78.3626 18.5771 77.9156 17.9568 78.0224 17.2984C78.1293 16.6401 78.7496 16.193 79.408 16.2999C80.0663 16.4068 80.5134 17.0271 80.4065 17.6854C80.2997 18.3438 79.6793 18.7909 79.021 18.684Z" fill="#56303C"/>
<path fill-rule="evenodd" clip-rule="evenodd" d="M80.3784 21.0545C80.0392 21.0545 79.7642 21.3294 79.7642 21.6686C79.7642 22.0078 80.0392 22.2828 80.3784 22.2828C80.7176 22.2828 80.9926 22.0078 80.9926 21.6686C80.9926 21.3294 80.7176 21.0545 80.3784 21.0545ZM79.272 21.6686C79.272 21.0576 79.7674 20.5623 80.3784 20.5623C80.9894 20.5623 81.4848 21.0576 81.4848 21.6686C81.4848 22.2797 80.9894 22.775 80.3784 22.775C79.7674 22.775 79.272 22.2797 79.272 21.6686Z" fill="#56303C"/>
</svg>
