<svg width="113" height="72" viewBox="0 0 113 72" fill="none" xmlns="http://www.w3.org/2000/svg">
<path d="M102.548 65.3176C102.548 65.3176 82.8084 71.8494 58.459 71.8494C34.1097 71.8494 14.3696 65.3176 14.3696 65.3176C14.3696 65.3176 32.6586 62.7049 58.459 65.3176C82.9532 62.3783 102.548 65.3176 102.548 65.3176Z" fill="black" fill-opacity="0.23"/>
<path d="M49.0457 39.9193C48.3149 38.7241 47.9597 37.3309 47.8232 35.9445C47.6866 34.5444 47.789 33.1306 48.0212 31.751C48.4993 28.9782 49.5511 26.3146 50.999 23.8969C52.4537 21.4791 54.3455 19.3005 56.6198 17.5794C58.8873 15.8583 61.5167 14.588 64.2964 13.9187C65.6828 13.5772 67.1102 13.3859 68.5377 13.3108C70.0197 13.2425 71.5564 13.5294 72.9018 14.2192C74.2541 14.909 75.3947 15.9607 76.2416 17.2038C77.0816 18.4468 77.669 19.8673 77.8397 21.404C77.9148 22.1758 77.908 22.9885 77.5938 23.8217C77.4299 24.2384 77.1704 24.6618 76.7538 24.9896C76.3372 25.3174 75.8045 25.4814 75.3195 25.4882C74.8483 25.5019 74.3839 25.3857 74.0287 25.2628C73.6736 25.1467 73.3185 25.0101 72.977 24.853C72.2872 24.5388 71.6247 24.1427 71.0237 23.651C69.8148 22.6812 68.9133 21.3221 68.4557 19.8468C67.9913 18.3716 67.9298 16.8281 68.121 15.3461C68.5308 12.3751 69.9173 9.65691 71.8159 7.43726C73.7351 5.21761 76.2074 3.49652 78.9461 2.46523C81.6848 1.42029 84.6558 1.09247 87.5311 1.37931C90.4132 1.65933 93.3022 2.59501 95.6584 4.37756C96.8263 5.27226 97.8576 6.36501 98.6293 7.64216C99.0118 8.28416 99.3328 8.96713 99.5309 9.71156C99.7289 10.4492 99.8382 11.2551 99.6265 12.0883C99.5172 12.5049 99.3055 12.9283 98.964 13.263C98.6225 13.5977 98.1649 13.7957 97.7347 13.8572C97.3044 13.9187 96.8946 13.9118 96.4643 13.7889C96.0409 13.6728 95.6311 13.4269 95.3443 13.0991C94.7501 12.4434 94.552 11.6375 94.4632 10.8931C94.3813 10.1418 94.4427 9.40423 94.5588 8.68711C94.7979 7.25287 95.3511 5.90058 96.0682 4.6644C96.799 3.43505 97.7346 2.30816 98.8957 1.4681C100.05 0.614389 101.443 0.0748532 102.864 0.00655617C104.291 -0.0549112 105.684 0.320706 106.934 0.92855C105.65 0.402662 104.25 0.143139 102.891 0.293392C101.532 0.429986 100.248 1.0105 99.2099 1.86422C97.1268 3.59213 95.8633 6.20792 95.474 8.83053C95.3852 9.48618 95.3579 10.1487 95.4467 10.777C95.5287 11.3985 95.7404 12.0063 96.1092 12.3751C96.4643 12.7508 96.997 12.8532 97.5502 12.7508C98.0556 12.6552 98.363 12.3205 98.4791 11.7946C98.5952 11.2756 98.5132 10.6472 98.3288 10.053C98.1444 9.45887 97.8508 8.87833 97.5024 8.33879C96.799 7.25286 95.8565 6.31719 94.7911 5.55909C92.6602 4.02241 90.0512 3.20284 87.4013 2.99795C84.7377 2.79306 82.0468 3.10722 79.5745 4.06338C77.1089 5.00588 74.8825 6.57673 73.175 8.57783C71.4539 10.5584 70.2109 13.0035 69.849 15.5646C69.6714 16.835 69.7328 18.1326 70.0948 19.3278C70.4636 20.5093 71.1329 21.5816 72.0891 22.3738C72.5604 22.77 73.0931 23.1114 73.6668 23.3778C73.9536 23.5144 74.2473 23.6305 74.5546 23.7398C74.8551 23.8491 75.0805 23.8969 75.3059 23.8969C75.7225 23.8832 75.9684 23.7056 76.1733 23.2276C76.3577 22.7631 76.4055 22.1416 76.344 21.5338C76.0708 19.0614 74.5273 16.5959 72.294 15.4007C71.1807 14.7929 69.8968 14.5197 68.5991 14.547C67.2468 14.5811 65.8946 14.7314 64.5764 15.0251C61.9333 15.6056 59.4132 16.7393 57.214 18.3375C55.0148 19.9425 53.1162 21.9572 51.6136 24.252C50.1179 26.5468 48.991 29.1079 48.4173 31.8057C48.1305 33.1511 47.9939 34.5375 48.0554 35.9171C48.1032 37.3036 48.3832 38.69 49.0457 39.9193Z" fill="#002A57"/>
<path d="M99.8378 40.5C99.8241 40.9713 99.6329 41.422 99.3665 41.8045C99.0797 42.1733 98.7382 42.508 98.3626 42.788C97.6113 43.3549 96.7781 43.7988 95.9175 44.1744C94.2033 44.9462 92.3934 45.4857 90.5767 45.9638C86.9433 46.9131 83.2348 47.5824 79.5126 48.1015C72.0682 49.1601 64.5487 49.6928 57.0155 49.8567C49.4892 49.9933 41.9355 49.8158 34.4024 49.0099C30.646 48.5728 26.8829 48.0195 23.1607 47.1044C21.303 46.6263 19.4453 46.0936 17.6218 45.2945C16.7066 44.8984 15.7982 44.4339 14.9172 43.7851C14.4733 43.4573 14.043 43.0543 13.6537 42.5558C13.2713 42.0231 12.9434 41.3196 12.9298 40.5069C12.9434 39.6941 13.2713 38.9907 13.6537 38.458C14.043 37.9526 14.4801 37.5496 14.9172 37.2286C15.7982 36.573 16.7066 36.1085 17.6218 35.7192C19.4521 34.9202 21.303 34.3875 23.1607 33.9094C26.8829 32.9805 30.646 32.4342 34.4024 31.9971C41.9287 31.1843 49.4824 31.0136 57.0155 31.1502C64.5419 31.3141 72.0682 31.8468 79.5126 32.9122C83.2348 33.4313 86.9433 34.1006 90.5767 35.0499C92.3934 35.5348 94.1964 36.0744 95.9175 36.8393C96.7781 37.215 97.6113 37.6589 98.3626 38.2257C98.7382 38.5058 99.0797 38.8336 99.3665 39.2092C99.6397 39.5849 99.8241 40.0288 99.8378 40.5ZM99.8378 40.5C99.8173 40.0288 99.6261 39.5849 99.3597 39.2024C99.066 38.8336 98.7314 38.5126 98.3489 38.2326C97.5976 37.6725 96.7576 37.2423 95.897 36.8666C94.1759 36.1154 92.3661 35.5895 90.5562 35.1251C86.916 34.2235 83.1938 33.6772 79.4716 33.2469C72.0135 32.4478 64.5009 32.2702 57.0224 32.4068C49.537 32.5707 42.0653 33.1103 34.6892 34.1553C31.0012 34.6675 27.3404 35.3368 23.7822 36.2588C22.0133 36.73 20.2512 37.2627 18.6462 37.9799C17.8403 38.335 17.0754 38.7448 16.4539 39.216C16.1397 39.4482 15.8939 39.701 15.7095 39.9332C15.5524 40.1722 15.5046 40.3566 15.4841 40.4864C15.4977 40.623 15.5524 40.8074 15.7095 41.0396C15.8939 41.2718 16.1466 41.5245 16.4539 41.7635C17.0754 42.2348 17.8403 42.6514 18.6462 42.9997C20.258 43.7237 22.0133 44.2495 23.789 44.7208C27.3404 45.6496 31.008 46.319 34.696 46.8312C42.0721 47.883 49.5507 48.4157 57.036 48.5796C64.5214 48.7162 72.0272 48.5386 79.4853 47.7395C83.2074 47.3093 86.9296 46.7629 90.5699 45.8614C92.3866 45.3969 94.1896 44.8711 95.9107 44.1198C96.7712 43.751 97.6113 43.3139 98.3626 42.7538C98.7382 42.4738 99.0797 42.1528 99.3734 41.784C99.6329 41.422 99.8241 40.9781 99.8378 40.5Z" fill="#002A57"/>
<path d="M99.8371 46.4348C99.8849 47.4866 99.7552 48.5589 99.4615 49.5902C99.161 50.6283 98.6556 51.5913 98.0956 52.5133C96.914 54.33 95.3569 55.8735 93.6494 57.1848C90.2141 59.8006 86.2733 61.6514 82.237 63.0584C74.1301 65.8654 65.5384 66.9445 57.0149 66.9923C48.4914 66.9445 39.9065 65.8654 31.7928 63.0584C27.7564 61.6514 23.8157 59.8074 20.3803 57.1848C18.6797 55.8667 17.1157 54.3232 15.9342 52.5065C15.3673 51.5845 14.8619 50.6215 14.5683 49.5834C14.2746 48.5452 14.1448 47.4798 14.1926 46.4212C14.3429 48.5384 15.2376 50.4849 16.5079 52.0967C17.7919 53.7017 19.3695 55.0539 21.1043 56.1672C24.5533 58.4346 28.4462 59.9645 32.4006 61.1665C36.3755 62.3344 40.4529 63.1608 44.578 63.673C46.6406 63.9326 48.7031 64.1306 50.7794 64.2672C52.8556 64.397 54.9318 64.4448 57.0081 64.4448C59.0843 64.4448 61.1674 64.397 63.2368 64.2672C65.313 64.1375 67.3755 63.9257 69.4381 63.6799C73.5564 63.1676 77.6406 62.3413 81.6155 61.1734C85.5699 59.9713 89.4628 58.4415 92.9118 56.174C94.6466 55.0608 96.2174 53.7085 97.5082 52.1035C98.7922 50.5054 99.6937 48.5589 99.8371 46.4348Z" fill="#002A57"/>
<path d="M14.1998 46.2641C11.8299 47.0973 9.30292 47.3773 6.69397 47.0359C5.39633 46.831 4.04405 46.469 2.76006 45.6289C1.47608 44.8367 0.328688 43.2863 0.0896487 41.6131C0.0281813 41.2033 -0.00596793 40.8003 0.000861773 40.4042C0.0145212 40.0354 0.0486709 39.5915 0.164776 39.1339C0.369667 38.2187 0.95702 37.3172 1.66731 36.7435C3.1357 35.5893 4.65189 35.4322 5.98368 35.3912C7.33597 35.3775 8.60629 35.5961 9.82881 35.9376C11.0445 36.2859 12.2192 36.7435 13.3051 37.406C10.8123 37.6587 8.4014 37.7748 6.29102 38.246C5.25974 38.4782 4.30358 38.8744 3.92111 39.3115C3.72305 39.5232 3.65475 39.6939 3.58646 39.9534C3.55914 40.0764 3.54548 40.2403 3.54548 40.4725C3.54548 40.6774 3.55231 40.8755 3.5728 41.0599C3.68207 41.7906 4.01673 42.3712 4.69287 42.9654C5.36901 43.539 6.31834 44.024 7.34962 44.4132C9.43268 45.2123 11.7753 45.7109 14.1998 46.2641Z" fill="#002A57"/>
<path d="M98.8075 46.2641C101.232 45.7109 103.575 45.2055 105.651 44.4132C106.682 44.0239 107.625 43.5322 108.308 42.9653C108.991 42.3712 109.318 41.7906 109.428 41.0598C109.448 40.8754 109.462 40.6774 109.455 40.4725C109.448 40.2471 109.441 40.0764 109.414 39.9534C109.346 39.6939 109.277 39.5163 109.079 39.3114C108.69 38.8743 107.734 38.485 106.709 38.246C104.599 37.7748 102.188 37.6586 99.6954 37.4059C100.781 36.7435 101.956 36.2859 103.172 35.9376C104.394 35.5961 105.665 35.3775 107.017 35.3912C108.349 35.4322 109.872 35.5892 111.333 36.7435C112.043 37.3172 112.631 38.2187 112.836 39.1339C112.952 39.5983 112.986 40.0354 113 40.4042C113.006 40.8003 112.972 41.2101 112.911 41.613C112.672 43.2863 111.524 44.8367 110.24 45.6289C108.956 46.469 107.604 46.8309 106.307 47.0358C103.704 47.3842 101.177 47.1041 98.8075 46.2641Z" fill="#002A57"/>
<path d="M66.4346 36.1902C66.7898 36.8254 66.8444 37.5971 66.6737 38.3006C66.5029 39.004 66.1751 39.6733 65.7653 40.2675C64.9526 41.4832 63.8325 42.4735 62.5963 43.2658C61.3465 44.0307 59.9532 44.6385 58.4439 44.8298C57.6926 44.9186 56.9072 44.9117 56.1354 44.7068C55.3705 44.5019 54.6056 44.017 54.1616 43.2794C53.7382 42.5213 53.7109 41.6198 53.9089 40.8549C54.1138 40.0831 54.5031 39.4002 54.9539 38.7923C55.8759 37.5835 57.0984 36.6819 58.3824 35.9785C59.6869 35.3023 61.1074 34.8243 62.5622 34.7355C63.2861 34.6808 64.0237 34.7286 64.7204 34.9335C65.4238 35.1316 66.0658 35.5619 66.4346 36.1902ZM66.4346 36.1902C66.0521 35.5687 65.4102 35.1521 64.7204 34.9609C64.0237 34.7696 63.2929 34.7696 62.5827 34.8516C61.1552 35.036 59.8166 35.6233 58.6078 36.3609C57.4194 37.1259 56.3403 38.082 55.5754 39.2362C55.1861 39.8031 54.8924 40.4246 54.7353 41.0529C54.5782 41.6813 54.6397 42.3233 54.9265 42.8355C55.2271 43.3409 55.7529 43.7097 56.3745 43.8873C56.996 44.0717 57.6858 44.1263 58.3687 44.0717C59.7483 43.9897 61.1143 43.5321 62.3709 42.8833C63.6139 42.2072 64.7887 41.3398 65.6628 40.1924C66.0863 39.6187 66.4551 38.9836 66.6395 38.2869C66.8239 37.5971 66.7829 36.8254 66.4346 36.1902Z" fill="#002A57"/>
<path d="M63.6062 37.8228C63.7974 38.1506 63.8248 38.5604 63.736 38.9292C63.6472 39.3048 63.4696 39.6463 63.2511 39.9605C62.8208 40.5956 62.2334 41.1147 61.5846 41.5313C60.929 41.9343 60.1982 42.2484 59.4059 42.3509C59.0098 42.3918 58.6 42.385 58.1971 42.2757C57.801 42.1733 57.398 41.9206 57.159 41.5313C56.9404 41.1283 56.9268 40.6571 57.036 40.261C57.1453 39.858 57.3434 39.5029 57.5756 39.1819C58.0537 38.5467 58.6957 38.0755 59.3718 37.7067C60.0548 37.3515 60.7992 37.1056 61.5641 37.051C61.9466 37.0169 62.3359 37.0373 62.6979 37.1466C63.0803 37.2627 63.415 37.4949 63.6062 37.8228ZM63.6062 37.8228C63.4013 37.5018 63.0667 37.2832 62.7047 37.1876C62.3427 37.092 61.9603 37.0852 61.5846 37.1261C60.8334 37.2217 60.1299 37.5291 59.5016 37.9184C58.8732 38.3213 58.3132 38.8267 57.9102 39.4209C57.5005 39.9946 57.2478 40.7595 57.5688 41.3127C57.8829 41.866 58.6752 42.0299 59.3718 41.9616C60.0957 41.9138 60.8129 41.6747 61.4753 41.3332C62.1242 40.9781 62.7457 40.5273 63.2033 39.9195C63.4286 39.619 63.613 39.2843 63.7087 38.9155C63.8043 38.5604 63.7906 38.1574 63.6062 37.8228Z" fill="#002A57"/>
<path d="M82.2649 29.1355C82.661 29.5453 82.8522 30.1258 82.8591 30.6995C82.8659 31.2732 82.7498 31.84 82.5517 32.3796C82.1693 33.4655 81.5068 34.4353 80.7214 35.2822C79.9155 36.1086 78.973 36.8394 77.8597 37.2833C77.3065 37.495 76.7055 37.6453 76.0772 37.6385C75.4557 37.6316 74.7795 37.4131 74.2946 36.935C73.8234 36.4364 73.6253 35.7535 73.6321 35.132C73.639 34.5036 73.8029 33.9094 74.0283 33.3562C74.4927 32.2498 75.2508 31.3278 76.0977 30.5424C76.9582 29.7706 77.9485 29.1355 79.0413 28.7803C79.5808 28.5959 80.1545 28.4935 80.7282 28.514C81.2814 28.5276 81.8619 28.7325 82.2649 29.1355ZM82.2649 29.1355C81.8551 28.7394 81.2814 28.5413 80.7145 28.5345C80.1477 28.5276 79.5876 28.6642 79.0618 28.8691C78.01 29.2857 77.1016 29.996 76.3299 30.7951C75.5718 31.6078 74.9366 32.5503 74.5815 33.5748C74.2195 34.5651 74.1239 35.7603 74.7864 36.4433C75.4488 37.1194 76.6509 37.0579 77.648 36.7165C78.6793 36.3818 79.6355 35.7671 80.4687 35.0295C81.2814 34.2714 82.0122 33.3836 82.4561 32.3386C82.6678 31.8196 82.8249 31.2663 82.8249 30.6927C82.8317 30.1326 82.6542 29.5589 82.2649 29.1355Z" fill="#002A57"/>
<path d="M80.4263 30.9316C80.8634 31.3824 80.7814 32.0858 80.5765 32.6322C80.3716 33.1991 80.0301 33.7113 79.6135 34.1552C79.1901 34.5923 78.6984 34.9748 78.111 35.207C77.8173 35.3163 77.5032 35.3914 77.1753 35.3846C76.8475 35.3846 76.4992 35.2685 76.2397 35.0226C75.9938 34.7631 75.8913 34.4011 75.8982 34.0801C75.905 33.7523 75.9801 33.4381 76.1031 33.1513C76.3421 32.5707 76.745 32.0858 77.189 31.6761C77.6397 31.2731 78.1588 30.9384 78.7325 30.7472C79.2789 30.5491 79.9823 30.4877 80.4263 30.9316ZM80.4263 30.9316C79.9687 30.5013 79.2789 30.5901 78.7462 30.795C78.1929 31.0136 77.7217 31.3824 77.3119 31.8058C76.9158 32.2361 76.5811 32.7278 76.3899 33.2605C76.1918 33.7796 76.144 34.4148 76.4992 34.7631C76.8475 35.125 77.4827 35.0977 78.0017 34.9065C78.5413 34.7289 79.0467 34.4079 79.4838 34.0186C79.914 33.6225 80.2965 33.1581 80.5219 32.6049C80.7404 32.0858 80.8429 31.396 80.4263 30.9316Z" fill="#002A57"/>
<path d="M52.7469 9.95739C53.744 10.5379 53.7508 12.4024 52.7605 14.1235C51.7634 15.8446 50.1516 16.7734 49.1476 16.1998C48.1505 15.6192 48.1436 13.7547 49.1339 12.0336C50.1311 10.3057 51.7497 9.37687 52.7469 9.95739Z" fill="#002A57"/>
<path d="M41.2182 24.1156C41.9626 25.14 42.5636 26.2806 42.8573 27.5304C43.0007 28.1519 43.0759 28.8007 42.9802 29.4564C42.8915 30.1052 42.5841 30.7608 42.0377 31.2116C41.4845 31.6419 40.7469 31.8058 40.064 31.7512C39.381 31.6965 38.7253 31.478 38.1311 31.1775C36.9291 30.5696 35.9525 29.634 35.1534 28.5822C34.3885 27.5099 33.7806 26.2942 33.5552 24.9693C33.4391 24.3068 33.4323 23.6238 33.5826 22.9477C33.7328 22.2784 34.1085 21.6227 34.6821 21.2198C35.2763 20.8305 35.9935 20.7417 36.6354 20.8441C37.2843 20.9466 37.8853 21.2198 38.4385 21.5339C39.5517 22.1896 40.4669 23.1048 41.2182 24.1156ZM41.2182 24.1156C40.4533 23.1116 39.5107 22.2101 38.3838 21.65C37.8238 21.3632 37.216 21.1719 36.6081 21.1241C36.0003 21.0763 35.3924 21.2266 34.9485 21.5817C34.5114 21.9505 34.2587 22.4901 34.1836 23.0638C34.1016 23.6443 34.1767 24.2385 34.3065 24.819C34.5797 25.9869 35.1534 27.0796 35.8637 28.0563C36.5876 29.0261 37.4618 29.9003 38.4931 30.5082C39.0053 30.8087 39.5586 31.0545 40.1323 31.1501C40.7059 31.2458 41.2933 31.1638 41.7782 30.8565C42.2495 30.5355 42.5705 29.9959 42.7071 29.4017C42.8437 28.8076 42.8368 28.1724 42.7344 27.5509C42.5363 26.3079 41.9558 25.1468 41.2182 24.1156Z" fill="#002A57"/>
<path d="M39.4899 25.3928C39.7904 25.7958 40.0294 26.2465 40.1387 26.7383C40.248 27.2095 40.2616 27.8174 39.8177 28.193C39.3533 28.5481 38.725 28.4116 38.2742 28.1794C37.8029 27.9335 37.4205 27.5647 37.0995 27.1549C36.799 26.7315 36.5668 26.2534 36.4712 25.7275C36.3824 25.2289 36.4438 24.5869 36.9151 24.2523C37.4068 23.9381 37.9805 24.1293 38.3971 24.3752C38.8411 24.6211 39.203 24.9899 39.4899 25.3928ZM39.4899 25.3928C39.1826 24.9967 38.8138 24.6484 38.3698 24.423C37.9395 24.1976 37.3795 24.1088 37.0175 24.3957C36.6624 24.6962 36.6556 25.2289 36.7648 25.6728C36.8673 26.1373 37.0995 26.5675 37.3795 26.95C37.6595 27.3325 38.001 27.6876 38.4176 27.9198C38.8137 28.1589 39.3191 28.3091 39.7153 28.0564C40.0977 27.7969 40.1797 27.23 40.0909 26.7519C40.0021 26.2602 39.7767 25.8026 39.4899 25.3928Z" fill="#002A57"/>
<path d="M40.8083 37.6859C42.5703 38.0138 43.8407 39.1202 43.6426 40.1651C43.4514 41.2101 41.8669 41.7906 40.1048 41.4628C38.3427 41.1349 37.0724 40.0285 37.2705 38.9836C37.4617 37.9455 39.0462 37.3649 40.8083 37.6859Z" fill="#002A57"/>
<path d="M60.0473 23.9925C60.7917 23.3506 61.7069 23.1866 62.0893 23.6306C62.4718 24.0745 62.1713 24.9555 61.4269 25.5975C60.6824 26.2395 59.7672 26.4034 59.3848 25.9595C59.0023 25.5156 59.3028 24.6345 60.0473 23.9925Z" fill="#002A57"/>
</svg>
