<svg width="157" height="144" viewBox="0 0 157 144" fill="none" xmlns="http://www.w3.org/2000/svg">
<circle cx="61" cy="61" r="61" fill="#EDF2F7"/>
<mask id="mask0_543_12238" style="mask-type:alpha" maskUnits="userSpaceOnUse" x="0" y="0" width="122" height="122">
<circle cx="61" cy="61" r="61" fill="white"/>
</mask>
<g mask="url(#mask0_543_12238)">
</g>
<path fill-rule="evenodd" clip-rule="evenodd" d="M30.9875 72.5979L28.53 79.8019C28.53 79.8019 27.7081 82.0779 30.9875 83.2445C34.2668 84.4111 40.668 86.6406 40.668 86.6406V92.2328C40.668 92.2328 40.6336 94.1936 42.6809 94.1936C44.7282 94.1936 75.2101 94.1936 75.2101 94.1936C75.2101 94.1936 77.1371 94.3131 77.1371 92.2328C77.1371 90.1525 77.1371 86.6406 77.1371 86.6406V80.8958L84.3279 71.686L87.1494 72.1337L99.7498 75.5734C99.7498 75.5734 102.416 76.3308 103.166 73.2274C103.916 70.124 108.67 53.1912 108.67 53.1912L102.508 42.6762L88.4572 38.7665C88.4572 38.7665 85.7759 37.9606 85.3554 39.3446C84.9348 40.7287 74.5425 33.0229 74.5425 33.0229L55.1337 28.2043L41.596 33.9047L29.7944 46.956L28.3644 47.5569L9.17499 52.6658C9.17499 52.6658 7.45746 53.2113 8.00208 55.3809C8.5467 57.5506 13.2434 75.0136 13.2434 75.0136C13.2434 75.0136 13.7878 76.8181 16.1734 76.1268C18.5589 75.4355 30.9875 72.1337 30.9875 72.1337V72.5979Z" fill="white"/>
<path fill-rule="evenodd" clip-rule="evenodd" d="M94.2267 58.2074C95.733 57.3712 97.7141 57.8651 98.6515 59.3107C98.839 59.5998 98.7468 59.9697 98.4455 60.137C98.1443 60.3042 97.748 60.2054 97.5606 59.9163C96.9981 59.049 95.8095 58.7526 94.9056 59.2544C94.0018 59.7561 93.7251 60.866 94.2876 61.7333C94.8501 62.6006 96.0387 62.897 96.9425 62.3952C97.2438 62.228 97.64 62.3268 97.8275 62.6159C98.015 62.905 97.9227 63.2749 97.6214 63.4422C96.1151 64.2784 94.134 63.7845 93.1966 62.3389C92.2592 60.8934 92.7204 59.0437 94.2267 58.2074ZM96.6799 66.1995L92.2429 65.0932C91.8973 65.007 91.6916 64.6382 91.7836 64.2694C91.8755 63.9007 92.2302 63.6716 92.5759 63.7577L97.0129 64.864C97.3585 64.9502 97.5641 65.319 97.4722 65.6878C97.3802 66.0566 97.0255 66.2857 96.6799 66.1995Z" fill="white"/>
<path fill-rule="evenodd" clip-rule="evenodd" d="M102.508 42.676L100.457 49.7362C100.457 49.7362 99.8822 52.3923 102.508 52.7673C105.134 53.1423 108.67 53.1911 108.67 53.1911L102.508 42.676Z" fill="#CDD1DD"/>
<path d="M20.0952 62.302L20.0871 62.2694C21.7918 61.5322 22.4586 60.4235 22.0875 58.9432C21.8464 57.9814 21.3006 57.3919 20.4501 57.1747C19.8038 57.009 18.9702 57.015 17.9494 57.1925L17.5735 55.6933L16.4919 55.9645L16.8586 57.4274L15.8089 57.6906L15.4421 56.2277L14.3604 56.4989L14.7272 57.9618L12.096 58.6214L12.4238 59.9L13.8341 59.5464C13.8863 59.5333 13.9407 59.5307 13.994 59.5386C14.0473 59.5466 14.0985 59.565 14.1448 59.5928C14.191 59.6206 14.2314 59.6572 14.2635 59.7006C14.2956 59.744 14.319 59.7933 14.3321 59.8457L16.2584 67.5292C16.2848 67.635 16.2682 67.7469 16.2124 67.8404C16.1565 67.9339 16.066 68.0014 15.9605 68.028L14.5435 68.3833L14.829 69.9953L17.5718 69.3077L17.9439 70.7921L19.0256 70.5209L18.6534 69.0365L19.7032 68.7733L20.0755 70.2583L21.1571 69.9871L20.7751 68.4634C21.8902 68.0967 22.7414 67.6471 23.3287 67.1147C24.0943 66.4234 24.3295 65.4889 24.0342 64.3111C23.6306 62.7012 22.3176 62.0315 20.0952 62.302ZM16.1472 58.9672C17.4913 58.6302 19.7422 58.0658 20.1502 59.6929C20.5581 61.32 18.3059 61.8846 16.963 62.2213L16.1472 58.9672ZM18.2465 67.3405L17.3985 63.9585C18.9744 63.5634 21.6142 62.9016 22.038 64.592C22.4618 66.2824 19.8211 66.9457 18.2465 67.3405Z" fill="#EAECF1"/>
<path opacity="0.23" d="M101.539 53.4746L100.096 58.6356L95.3391 59.3555L101.539 53.4746Z" fill="#8693B0"/>
<path opacity="0.23" d="M100.096 58.6355L98.8421 63.1221L95.3391 59.3554L100.096 58.6355Z" fill="#5C6B8D"/>
<path opacity="0.23" d="M98.585 64.0413L97.6178 67.5012L95.0621 60.3459L98.585 64.0413Z" fill="#8693B0"/>
<path opacity="0.23" d="M101.539 53.4746L100.096 58.6356L103.79 61.7181L101.539 53.4746Z" fill="#5C6B8D"/>
<path opacity="0.23" d="M100.096 58.6355L98.8421 63.1221L103.79 61.7181L100.096 58.6355Z" fill="#3D4B72"/>
<path opacity="0.23" d="M98.5851 64.0413L97.6178 67.5012L103.513 62.7086L98.5851 64.0413Z" fill="#5C6B8D"/>
<rect x="40" y="42" width="37" height="8.5665" rx="4.28325" fill="white"/>
<rect x="41.4581" y="43.2759" width="5.83251" height="5.83251" rx="2.91626" fill="#FD9900" fill-opacity="0.2"/>
<rect x="48.5665" y="44.5518" width="9.29557" height="0.729064" fill="#001833" fill-opacity="0.2"/>
<rect x="48.5665" y="47.1035" width="6.74384" height="0.729064" fill="#001833" fill-opacity="0.1"/>
<rect width="5.28571" height="0.729064" transform="matrix(-1 0 0 1 75.5419 44.5518)" fill="#001833" fill-opacity="0.2"/>
<rect width="6.92611" height="0.729064" transform="matrix(-1 0 0 1 75.5419 47.1035)" fill="#001833" fill-opacity="0.1"/>
<rect x="40" y="53" width="37" height="8.5665" rx="4.28325" fill="white"/>
<rect x="41.4581" y="54.2759" width="5.83251" height="5.83251" rx="2.91626" fill="#4CAF50" fill-opacity="0.2"/>
<rect x="48.5665" y="55.5518" width="9.29557" height="0.729064" fill="#001833" fill-opacity="0.2"/>
<rect x="48.5665" y="58.1035" width="6.74384" height="0.729064" fill="#001833" fill-opacity="0.1"/>
<rect width="5.28571" height="0.729064" transform="matrix(-1 0 0 1 75.5419 55.5518)" fill="#001833" fill-opacity="0.2"/>
<rect width="6.92611" height="0.729064" transform="matrix(-1 0 0 1 75.5419 58.1035)" fill="#001833" fill-opacity="0.1"/>
<rect x="40" y="64" width="37" height="8.5665" rx="4.28325" fill="white"/>
<rect x="41.4581" y="65.2759" width="5.83251" height="5.83251" rx="2.91626" fill="#4CAF50" fill-opacity="0.2"/>
<rect x="48.5665" y="66.5518" width="9.29557" height="0.729064" fill="#001833" fill-opacity="0.2"/>
<rect x="48.5665" y="69.1035" width="6.74384" height="0.729064" fill="#001833" fill-opacity="0.1"/>
<rect width="5.28571" height="0.729064" transform="matrix(-1 0 0 1 75.5419 66.5518)" fill="#001833" fill-opacity="0.2"/>
<rect width="6.92611" height="0.729064" transform="matrix(-1 0 0 1 75.5419 69.1035)" fill="#001833" fill-opacity="0.1"/>
<g style="mix-blend-mode:soft-light" opacity="0.6">
<path d="M62.0632 85.094C77.7315 85.094 90.4332 72.6407 90.4332 57.2788C90.4332 41.9169 77.7315 29.4636 62.0632 29.4636C46.3949 29.4636 33.6932 41.9169 33.6932 57.2788C33.6932 72.6407 46.3949 85.094 62.0632 85.094Z" fill="white" fill-opacity="0.16"/>
</g>
<path d="M128.111 143.894C125.142 143.766 121.374 143.467 119.203 143.283C121.338 140.717 128.111 138.986 128.111 138.986H130.023C130.996 140.323 131.519 141.925 131.517 143.568C130.924 143.799 129.897 143.971 128.111 143.894Z" fill="#001833"/>
<path d="M130.346 135.924L130.168 139.397C130.16 139.581 130.086 139.757 129.96 139.893C129.833 140.03 129.662 140.118 129.476 140.144C128.994 140.214 128.502 140.174 128.038 140.027C127.875 139.974 127.73 139.879 127.617 139.751C127.504 139.624 127.428 139.47 127.396 139.304L126.776 135.924H130.346Z" fill="#F7A491"/>
<path d="M150.756 135.902H152.334C154.743 135.853 156.246 140.824 156.741 142.748C156.562 143.259 156.135 143.739 155.194 143.868C153.625 144.083 152.625 144.042 151.92 143.698C150.622 142.023 149.979 139.57 149.672 138.138C149.561 137.7 149.608 137.237 149.806 136.83C150.003 136.422 150.339 136.094 150.756 135.902Z" fill="#001833"/>
<path d="M152.132 132.679L153.007 136.096C153.059 136.299 153.039 136.514 152.949 136.705C152.86 136.896 152.707 137.051 152.516 137.146C152.026 137.393 151.336 137.651 150.701 137.577C150.556 137.558 150.419 137.5 150.305 137.409C150.192 137.317 150.107 137.197 150.059 137.061L148.774 133.466L152.132 132.679Z" fill="#F7A491"/>
<path d="M153.176 133.665C152.087 134.61 148.541 134.739 148.541 134.739C135.77 104.686 130.546 100.416 130.546 100.416C132.39 111.752 130.844 136.87 130.844 136.87C128.737 137.782 126.026 136.87 126.026 136.87C125.87 120.823 123.679 104.856 119.505 89.3388C128.136 89.1483 132.726 86.253 134.224 85.0879C141.413 96.4678 153.176 133.665 153.176 133.665Z" fill="#004A9E"/>
<path d="M132.026 50.5324C133.66 58.5226 133.074 72.823 132.69 79.3442C132.581 81.1784 133.887 83.7195 134.939 85.4545C134.978 85.5183 135.003 85.5894 135.013 85.6633C135.023 85.7372 135.018 85.8124 134.997 85.884C134.976 85.9557 134.94 86.0224 134.892 86.0799C134.843 86.1373 134.783 86.1844 134.715 86.2181C132.949 87.1092 126.964 89.8676 120.028 90.2108C119.803 90.2191 119.582 90.1519 119.401 90.0202C119.22 89.8885 119.09 89.7003 119.033 89.4866C113.894 70.6518 107.913 58.617 107.913 58.617C114.514 48.2904 132.026 50.5324 132.026 50.5324Z" fill="#4191ED"/>
<path d="M129.675 99.7062C129.747 99.7057 129.818 99.6864 129.88 99.6504C129.943 99.6143 129.994 99.5628 130.03 99.501C130.065 99.4392 130.083 99.3692 130.083 99.2983C130.082 99.2273 130.062 99.1579 130.025 99.0969C128.756 97.2453 127.008 95.7576 124.96 94.7861C124.911 94.7603 124.858 94.7444 124.802 94.7395C124.747 94.7345 124.692 94.7406 124.639 94.7573C124.586 94.7741 124.538 94.8011 124.496 94.8368C124.454 94.8725 124.42 94.9162 124.396 94.9651C124.372 95.0141 124.358 95.0673 124.356 95.1215C124.354 95.1758 124.362 95.23 124.382 95.2808C124.401 95.3316 124.431 95.378 124.47 95.4172C124.508 95.4564 124.554 95.4876 124.605 95.5088C126.506 96.4209 128.132 97.801 129.326 99.5141C129.363 99.5727 129.414 99.6211 129.475 99.6547C129.536 99.6883 129.605 99.706 129.675 99.7062Z" fill="#00428D"/>
<path d="M142.276 73.4623C141.751 77.1842 140.201 81.2446 137.098 85.5569L135.92 84.6123C135.92 84.6123 137.28 79.1979 136.508 73.0529C138.422 72.694 140.678 73.0671 142.276 73.4623Z" fill="#F7A491"/>
<path d="M130.202 60.3914L132.026 50.5325C132.026 50.5325 144.219 59.6641 142.274 73.4622C140.678 73.0671 138.42 72.6892 136.506 73.056C135.947 68.6288 134.284 63.8237 130.202 60.3914Z" fill="#4191ED"/>
<path d="M107.911 58.6172L112.618 68.5549C111.857 74.5534 108.57 77.148 105.026 78.1431C104.851 75.9178 104.318 73.7337 103.446 71.6722C107.979 67.0875 107.911 58.6172 107.911 58.6172Z" fill="#4191ED"/>
<path d="M103.45 71.6721C104.322 73.7336 104.855 75.9177 105.03 78.143C95.5734 81.7405 93.0715 74.7643 93.0715 74.7643L94.8202 74.462C98.7657 74.8697 101.523 73.6212 103.45 71.6721Z" fill="#F7A491"/>
<path d="M112.247 46.3494L114.519 54.5363C114.579 54.7531 114.685 54.9549 114.831 55.1285C114.976 55.3021 115.158 55.4436 115.363 55.5437C115.568 55.6437 115.793 55.7001 116.021 55.7091C116.25 55.7181 116.479 55.6796 116.691 55.5959C117.81 55.1667 118.904 54.6774 119.967 54.1301C120.235 53.9872 120.47 53.7911 120.656 53.5542C120.842 53.3173 120.976 53.0449 121.049 52.7545C121.121 52.464 121.132 52.1619 121.078 51.8674C121.025 51.5729 120.91 51.2926 120.74 51.0443L116.015 44.1389L112.247 46.3494Z" fill="#F7A491"/>
<path d="M88.738 69.2837L146.957 90.066C147.534 90.2721 148.062 90.5931 148.507 91.0088C148.952 91.4245 149.304 91.9259 149.542 92.4816C149.78 93.0372 149.898 93.635 149.889 94.2375C149.88 94.84 149.744 95.4341 149.489 95.9826L149.313 96.3636C149.085 96.8502 148.762 97.288 148.362 97.6518C147.961 98.0155 147.492 98.2982 146.98 98.4834C146.467 98.6686 145.923 98.7528 145.378 98.7311C144.832 98.7093 144.297 98.5822 143.801 98.3568L87.2767 72.7175L88.738 69.2837Z" fill="#023F85"/>
<path d="M30 56.7924C30 73.7961 44.3175 87.5801 61.9783 87.5801C79.639 87.5801 93.9581 73.7961 93.9581 56.7924C93.9581 39.7887 79.6487 26 61.9847 26C44.3207 26 30 39.7887 30 56.7924ZM34.697 56.7924C34.697 42.2857 46.9109 30.5264 61.9783 30.5264C77.0456 30.5264 89.2595 42.2857 89.2595 56.7924C89.2595 71.299 77.0456 83.0536 61.9847 83.0536C46.9237 83.0536 34.697 71.2943 34.697 56.7924Z" fill="#023F85"/>
<path d="M93.7801 76.0397C93.2984 76.4049 91.6733 75.6445 90.6745 75.1171C90.4387 74.9931 90.2544 74.7925 90.1532 74.5496C90.0521 74.3068 90.0405 74.037 90.1205 73.7867C90.3597 73.0451 90.7628 72.0863 91.2542 71.9651C92.0651 71.7651 95.7344 74.5377 93.7801 76.0397Z" fill="#F7A491"/>
<path d="M107.758 41.5632C107.758 41.5632 108.1 46.3998 109.069 48.5441C110.037 50.6885 110.294 52.2661 112.923 51.4836C115.551 50.7011 116.937 48.4922 116.963 45.8629C116.963 45.8629 117.018 41.8009 115.95 40.6831C114.882 39.5653 107.758 41.5632 107.758 41.5632Z" fill="#F7A491"/>
<path d="M115.714 44.8158C115.714 44.8158 114.787 45.8344 114.522 44.4852C114.257 43.1359 114.32 41.3521 112.435 42.0023C110.549 42.6525 107.5 43 106.5 42.0023C106.5 42.0023 104.5 40.5 107.355 38.0458C107.355 38.0458 109.409 38.918 111.901 37.4885C114.394 36.0589 117.467 36.8587 118.164 39.3211C118.164 39.3211 123.573 42.9895 117.191 46.6815C117.191 46.6815 116.317 46.5744 115.714 44.8158Z" fill="#001833"/>
<path d="M115.483 45.1967C115.483 45.1967 114.819 42.3297 116.324 42.4745C117.829 42.6194 117.215 45.6139 116.351 46.165L115.483 45.1967Z" fill="#F7A491"/>
</svg>
