<svg width="161" height="190" viewBox="0 0 161 190" fill="none" xmlns="http://www.w3.org/2000/svg">
<path d="M159.038 48.7136C159.278 51.8836 159.388 55.2036 158.668 58.4936C157.588 63.4536 156.258 68.3336 154.198 72.9936C153.048 75.6136 151.718 78.1236 149.958 80.3836C146.618 84.6736 142.288 87.5036 137.118 89.1036C135.178 89.7036 133.168 90.0236 131.168 90.3436C128.168 90.8236 125.148 91.2336 122.148 91.7136C119.718 92.1036 117.298 92.5637 114.878 92.9837C113.468 93.2236 112.348 93.8736 111.638 95.1636C111.208 95.9536 110.558 96.5036 109.738 96.8736C108.368 97.4937 107.168 98.3936 105.908 99.1836C104.848 99.8536 103.868 100.614 102.888 101.374C102.628 101.574 102.328 101.764 102.018 101.874C101.498 102.064 100.888 101.534 101.018 100.994C101.088 100.674 101.248 100.354 101.428 100.084C101.748 99.6036 102.108 99.1536 102.468 98.6936C103.938 96.7836 104.928 94.6637 105.368 92.2936C105.708 90.4936 106.048 88.6936 106.368 86.8836C107.388 81.1236 108.848 75.4736 110.878 69.9837C112.408 65.8437 114.338 61.9036 117.078 58.4136C119.718 55.0436 122.798 52.1436 126.578 50.0536C128.358 49.0636 130.258 48.3836 132.188 47.7536C135.108 46.8136 137.748 45.3336 140.228 43.5436C140.658 43.2336 141.088 42.9136 141.498 42.5736C143.788 40.7136 146.458 39.8436 149.348 39.5336C150.708 39.3836 152.048 39.5336 153.358 39.9036C155.178 40.4136 156.528 41.4936 157.398 43.1736C158.248 44.8736 158.748 46.6736 159.038 48.7136ZM107.048 97.2236C107.728 96.8936 108.398 96.5236 109.108 96.2436C110.048 95.8736 110.748 95.3036 111.268 94.4236C111.908 93.3436 112.868 92.6136 114.048 92.2337C115.328 91.8236 116.628 91.3936 117.948 91.1336C121.728 90.3736 125.528 89.6836 129.328 88.9636C131.418 88.5736 133.498 88.1436 135.498 87.4036C140.108 85.7037 143.858 82.8536 146.718 78.8536C148.208 76.7636 149.428 74.5236 150.478 72.1836C152.428 67.8636 153.958 63.3936 155.338 58.8736C156.158 56.1736 156.598 53.4236 156.638 50.6136C156.658 48.7836 156.558 46.9636 156.038 45.1736C155.338 42.7336 153.788 41.4436 151.308 41.1836C151.018 41.1536 150.728 41.1136 150.448 41.1236C147.538 41.2236 144.838 41.9236 142.488 43.7536C141.578 44.4636 140.638 45.1736 139.608 45.6736C137.138 46.8736 134.668 48.0836 132.038 48.9236C131.118 49.2136 130.228 49.5836 129.348 49.9836C126.028 51.5036 123.368 53.8336 121.058 56.6136C118.498 59.6836 116.618 63.1636 115.168 66.8636C113.518 71.0836 112.098 75.3936 110.948 79.7936C110.108 83.0237 109.618 86.3136 109.058 89.5936C108.618 92.1436 108.178 94.7236 107.048 97.2236Z" fill="#0066DA"/>
<path d="M125.408 60.1837C125.868 60.5537 125.898 61.0837 125.978 61.6037C126.168 62.8437 126.368 64.0837 126.568 65.3237C126.608 65.5937 126.698 65.8536 126.758 66.0636C127.178 66.2136 127.298 65.9637 127.438 65.7937C129.198 63.5737 131.358 61.8036 133.738 60.3136C136.688 58.4636 139.438 56.3637 142.038 54.0437C143.368 52.8537 144.818 51.8137 146.228 50.7137C146.558 50.4537 146.898 50.1637 147.478 50.4337C147.268 50.6937 147.128 50.9336 146.928 51.1136C145.008 52.8736 143.108 54.6537 141.158 56.3737C139.498 57.8437 137.788 59.2537 136.078 60.6637C134.698 61.8036 133.348 62.9637 132.238 64.3737C131.948 64.7437 131.688 65.1437 131.318 65.6637C131.698 65.7236 131.918 65.7936 132.128 65.7737C134.718 65.5237 137.308 65.2636 139.898 64.9937C140.368 64.9436 140.838 64.8736 141.268 64.8136C141.508 65.1836 141.328 65.3637 141.118 65.4637C140.728 65.6537 140.338 65.8437 139.918 65.9436C136.998 66.6436 134.058 67.1037 131.048 67.1337C130.858 67.1337 130.668 67.1637 130.378 67.1837C128.998 69.4337 128.108 71.8936 127.398 74.5836C128.688 74.6236 129.838 74.6737 130.988 74.6936C133.108 74.7236 135.228 74.7337 137.348 74.7637C137.728 74.7737 138.108 74.8437 138.478 74.9337C138.758 75.0037 138.828 75.4736 138.588 75.6436C138.318 75.8336 138.028 76.0237 137.718 76.1037C137.258 76.2237 136.768 76.2737 136.288 76.2937C133.258 76.4237 130.218 76.6636 127.188 76.2036C127.098 76.1936 127.008 76.2337 126.828 76.2737C126.668 76.6136 126.488 77.0036 126.318 77.3936C123.808 83.1736 119.658 87.3636 113.998 90.0836C113.608 90.2737 113.208 90.4537 112.788 90.5536C111.788 90.7837 111.048 89.9636 111.428 89.0036C111.618 88.5236 111.948 88.0736 112.308 87.7036C112.878 87.1236 113.538 86.6237 114.148 86.0737C115.438 84.9137 116.758 83.7837 117.998 82.5737C119.918 80.6937 121.338 78.4537 122.368 75.9837C122.818 74.9137 123.198 73.8236 123.648 72.7536C124.178 71.5136 124.708 70.2736 125.308 69.0636C125.578 68.5136 125.658 68.0337 125.528 67.4137C125.238 65.9937 125.018 64.5637 124.848 63.1337C124.768 62.4237 124.848 61.6936 124.878 60.9736C124.878 60.7136 124.968 60.6337 125.408 60.1837Z" fill="#0066DA"/>
<path d="M149.168 58.0636C149.108 58.2236 149.108 58.4437 148.998 58.5437C148.788 58.7337 148.548 58.9036 148.278 58.9936C147.468 59.2736 146.648 59.5537 145.818 59.7337C145.418 59.8237 144.968 59.7137 144.558 59.6237C144.438 59.5937 144.328 59.3436 144.298 59.1736C144.278 59.0736 144.398 58.9137 144.498 58.8237C144.598 58.7337 144.738 58.6536 144.868 58.6336C146.188 58.4036 147.498 58.1736 148.818 57.9636C148.908 57.9537 148.998 58.0136 149.168 58.0636Z" fill="#0066DA"/>
<path d="M144.058 72.2337C143.388 72.2536 142.808 72.3136 142.238 72.2836C141.978 72.2736 141.708 72.1136 141.468 71.9736C141.288 71.8636 141.338 71.4436 141.528 71.3536C141.658 71.2936 141.788 71.2136 141.928 71.2136C143.028 71.1836 144.138 71.1636 145.238 71.1436C145.288 71.1436 145.348 71.1536 145.368 71.1836C145.488 71.3136 145.688 71.4536 145.688 71.5836C145.688 71.7236 145.518 71.9336 145.368 71.9936C145.108 72.1036 144.818 72.1436 144.528 72.1936C144.348 72.2236 144.158 72.2337 144.058 72.2337Z" fill="#0066DA"/>
<path d="M119.038 73.3036C118.718 73.1236 118.438 73.0436 118.268 72.8636C117.598 72.1036 117.148 71.2137 116.838 70.2437C116.808 70.1537 116.798 70.0437 116.838 69.9637C116.898 69.8437 116.978 69.6937 117.078 69.6537C117.178 69.6137 117.358 69.6536 117.458 69.7236C117.568 69.7936 117.648 69.9336 117.708 70.0636C118.138 70.9636 118.558 71.8736 118.978 72.7737C119.038 72.8937 119.018 73.0436 119.038 73.3036Z" fill="#0066DA"/>
<path d="M10.4617 143.581C10.5317 140.481 11.5717 137.791 13.8717 135.661C15.9717 133.721 18.4717 132.531 21.2317 131.831C23.9517 131.131 26.5217 131.481 29.0117 132.741C29.7717 133.121 30.5817 133.391 31.3717 133.711C32.1917 134.051 33.0417 134.341 33.8317 134.741C34.2917 134.971 34.6817 135.341 35.1017 135.651C35.3917 135.871 35.6717 136.091 35.9617 136.311C38.3717 138.061 39.8617 140.381 40.3617 143.321C40.4317 143.761 40.4617 144.211 40.4617 144.651C40.4617 145.251 40.4117 145.821 40.7017 146.411C40.8717 146.761 40.7817 147.291 40.6817 147.721C40.3317 149.301 39.8417 150.851 39.2017 152.341C38.8417 153.161 38.3417 153.901 37.7517 154.581C35.4717 157.191 32.6217 158.911 29.3617 159.951C27.4217 160.571 25.5017 160.321 23.6417 159.631C21.8217 158.961 20.0117 158.231 18.2317 157.441C17.1217 156.941 16.1717 156.171 15.3617 155.241C12.7817 152.301 11.1517 148.921 10.5917 145.041C10.5217 144.561 10.5017 144.071 10.4617 143.581ZM38.4517 148.041C39.5817 146.341 39.7117 144.831 39.3417 143.211C38.7117 140.501 37.2317 138.391 34.8017 137.031C31.6817 135.281 28.3017 134.731 24.8117 135.491C21.4817 136.211 19.0217 138.111 17.6917 141.341C16.9217 143.211 16.5817 145.151 16.6617 147.161C16.8517 151.921 19.2517 155.251 23.4617 157.281C25.8617 158.441 28.3017 158.381 30.7217 157.181C32.7117 156.191 34.4117 154.851 35.9617 153.281C37.2117 152.021 38.0417 150.501 38.7517 148.901C38.9417 148.501 38.7217 148.311 38.4517 148.041ZM27.5217 133.691C27.2717 133.551 27.1817 133.471 27.0817 133.431C25.7417 133.021 24.3817 132.861 22.9917 133.061C20.6317 133.411 18.4417 134.251 16.4917 135.621C14.8717 136.761 13.5517 138.171 12.8117 140.051C12.2317 141.551 11.9817 143.081 12.2017 144.691C12.4517 146.501 12.7317 148.301 13.4817 149.991C14.2717 151.781 15.3017 153.431 16.4417 155.011C16.8217 155.541 17.2717 156.021 17.8717 156.291C18.0217 156.361 18.2117 156.361 18.5517 156.421C18.1617 155.961 17.9017 155.661 17.6417 155.351C16.3517 153.841 15.4517 152.131 15.0617 150.181C14.3417 146.611 14.7017 143.161 16.3517 139.881C17.2117 138.171 18.4217 136.791 20.0317 135.761C21.9517 134.541 24.0417 133.831 26.3217 133.741C26.6717 133.731 27.0217 133.711 27.5217 133.691Z" fill="#0066DA"/>
<path d="M29.1617 184.581C29.0617 185.511 28.9717 186.431 28.8717 187.361C28.8517 187.561 28.7917 187.771 28.8117 187.961C28.9617 189.271 28.5217 190.441 27.9817 191.591C27.5717 192.471 27.1117 193.331 26.6717 194.201C25.8617 195.801 24.6517 197.001 23.0817 197.881C20.7517 199.181 18.2517 199.741 15.6117 199.721C14.3817 199.711 13.1917 199.451 12.0717 198.931C11.0417 198.461 10.0217 197.951 9.04174 197.391C7.08174 196.271 5.58174 194.701 4.65174 192.641C3.80174 190.751 2.68174 189.011 1.78174 187.151C1.36174 186.281 0.971741 185.391 0.571741 184.501C0.501741 184.351 0.43174 184.201 0.42174 184.041C0.28174 182.311 -0.0682597 180.591 0.0117403 178.841C0.0617403 177.701 0.23174 176.581 0.54174 175.491C0.98174 173.941 1.77174 172.591 2.96174 171.481C4.10174 170.431 5.30174 169.461 6.66174 168.731C11.4617 166.131 16.1417 166.431 20.6717 169.431C22.9717 170.951 24.4917 173.131 25.8517 175.471C26.2817 176.211 26.6917 176.951 27.1417 177.671C28.4817 179.781 29.1917 182.061 29.1617 184.581ZM27.6017 185.751C27.6017 185.301 27.6017 184.861 27.5917 184.411C27.4817 179.951 23.9917 175.721 21.1317 174.281C19.3417 173.381 17.5017 173.101 15.5817 173.561C12.5017 174.291 9.84174 175.801 7.73174 178.171C5.67174 180.481 4.91174 183.221 5.34174 186.291C5.56174 187.831 6.05174 189.281 6.68174 190.691C8.25174 194.241 11.1117 196.201 14.7517 197.111C16.9717 197.661 19.1717 197.341 21.3417 196.651C23.1617 196.061 24.5617 194.991 25.5017 193.321C25.9817 192.471 26.5017 191.651 26.9917 190.811C27.2717 190.331 27.6317 189.861 27.3217 189.241C27.2617 189.121 27.3217 188.921 27.3717 188.771C27.7117 187.781 27.6317 186.761 27.6017 185.751ZM18.5617 171.111C18.3717 170.971 18.2317 170.841 18.0617 170.761C16.6417 170.031 15.1217 169.641 13.5317 169.491C11.5917 169.311 9.73174 169.611 7.99174 170.501C6.68174 171.161 5.50174 172.021 4.44174 173.031C3.23174 174.181 2.51174 175.591 2.19174 177.241C1.82174 179.151 2.02174 181.031 2.33174 182.921C2.36174 183.111 2.51174 183.291 2.67174 183.611C2.72174 183.281 2.74174 183.121 2.76174 182.971C3.06174 180.931 3.78174 179.041 5.06174 177.421C7.76174 174.001 11.2717 171.911 15.5917 171.281C16.5417 171.111 17.5117 171.151 18.5617 171.111Z" fill="#0066DA"/>
<path d="M19.5517 184.891C19.7317 184.811 19.8617 184.681 19.9917 184.691C21.6817 184.831 23.2217 185.421 24.6017 186.381C24.7417 186.481 24.8517 186.711 24.8617 186.891C24.8717 187.171 24.6317 187.321 24.3817 187.351C23.9417 187.401 23.5017 187.411 23.0517 187.401C22.5017 187.391 21.9417 187.241 21.2817 187.381C21.5117 187.821 21.7317 188.201 21.9017 188.601C22.0717 189.011 22.2317 189.431 22.3017 189.861C22.3717 190.301 21.9717 190.631 21.5317 190.541C21.3017 190.491 21.0617 190.411 20.8617 190.281C20.3617 189.941 19.8817 189.581 19.4017 189.201C19.3417 189.151 19.3317 188.961 19.3817 188.871C19.4317 188.791 19.5817 188.701 19.6717 188.711C19.8717 188.741 20.0617 188.811 20.2417 188.891C20.5317 189.011 20.8217 189.161 21.2317 189.351C21.1917 189.091 21.2017 188.941 21.1417 188.821C20.9617 188.461 20.7517 188.111 20.5517 187.761C20.0217 186.801 20.3017 186.331 21.4217 186.311C21.8617 186.301 22.3117 186.361 22.7517 186.391C22.9517 186.411 23.1417 186.451 23.5917 186.521C23.2717 186.261 23.1517 186.131 23.0017 186.051C22.2317 185.671 21.4117 185.461 20.5717 185.331C20.2317 185.281 19.8517 185.301 19.5517 184.891Z" fill="#0066DA"/>
<path d="M20.8217 180.471C20.6217 180.531 20.4717 180.561 20.3317 180.611C20.0317 180.731 19.7817 180.641 19.5417 180.461C19.2417 180.241 18.9717 179.851 18.6517 179.221C19.1417 178.721 19.5017 179.331 19.9817 179.401C20.1617 179.161 20.3417 178.901 20.5617 178.681C20.9517 178.291 21.5017 178.381 21.7817 178.861C21.8817 179.031 21.9417 179.231 21.9917 179.421C22.2917 180.531 22.0617 181.571 21.5917 182.581C21.5417 182.691 21.4717 182.821 21.3817 182.871C21.2517 182.941 21.0817 182.981 20.9417 182.961C20.8717 182.951 20.7717 182.781 20.7717 182.681C20.7717 182.241 20.8117 181.801 20.8217 181.361C20.8317 181.081 20.8217 180.811 20.8217 180.471Z" fill="#0066DA"/>
<path d="M13.3917 181.951C13.5117 182.391 13.6017 182.641 13.6517 182.911C13.7317 183.361 13.5517 183.761 13.1317 183.891C12.6817 184.031 12.1917 184.081 11.7217 184.121C11.5317 184.141 11.3217 184.011 11.2917 183.781C11.2517 183.551 11.3917 183.391 11.5917 183.321C11.9517 183.181 12.3317 183.061 12.7517 182.911C12.5217 182.431 12.3117 182.041 12.1417 181.641C11.9417 181.151 12.2517 180.751 12.7817 180.791C12.8617 180.801 12.9417 180.801 13.0217 180.821C14.5217 181.261 15.8117 182.031 16.8117 183.181C16.7317 183.541 16.5617 183.621 16.3517 183.511C16.0317 183.341 15.7317 183.131 15.4317 182.941C14.8517 182.561 14.2717 182.191 13.3917 181.951Z" fill="#0066DA"/>
<path d="M14.5417 191.391C14.1117 191.261 13.8517 191.191 13.6217 191.121C13.5417 190.821 13.7017 190.671 13.8817 190.611C14.1017 190.541 14.3617 190.501 14.5917 190.521C15.0817 190.561 15.4217 190.911 15.4317 191.391C15.4417 191.741 15.4017 192.101 15.3717 192.541C16.1917 192.291 16.5617 191.661 17.0017 190.951C17.1117 191.191 17.2417 191.331 17.2217 191.451C17.1717 191.721 17.1017 192.011 16.9617 192.241C16.5017 192.991 15.8117 193.491 15.0417 193.871C14.7817 194.001 14.4817 194.011 14.2517 193.771C14.0717 193.581 14.0317 193.351 14.0917 193.091C14.2517 192.561 14.3817 192.011 14.5417 191.391Z" fill="#0066DA"/>
<path d="M17.7017 181.431C17.5417 181.411 17.4617 181.411 17.3917 181.381C16.8417 181.151 16.5217 180.621 16.5717 180.051C16.6017 179.761 16.7917 179.531 17.0817 179.471C17.3617 179.411 17.7117 179.521 17.7917 179.771C17.9117 180.181 17.9917 180.611 18.0117 181.041C18.0217 181.181 17.7917 181.321 17.7017 181.431Z" fill="#0066DA"/>
<path d="M19.3317 193.741C19.4117 193.601 19.5517 193.311 19.7517 193.081C19.9717 192.831 20.3717 192.841 20.6217 193.041C20.8317 193.211 20.8817 193.531 20.7117 193.801C20.5617 194.041 20.4017 194.281 20.2017 194.461C20.0717 194.571 19.8117 194.651 19.6717 194.591C19.5317 194.541 19.4417 194.311 19.3517 194.141C19.3117 194.091 19.3317 193.991 19.3317 193.741Z" fill="#0066DA"/>
<path d="M12.8217 187.721C12.6617 187.701 12.5417 187.691 12.4217 187.661C12.0917 187.591 11.9117 187.181 12.0917 186.901C12.3617 186.491 12.9317 186.331 13.3817 186.531C13.6317 186.641 13.7717 186.851 13.7017 187.111C13.6517 187.281 13.5117 187.461 13.3617 187.561C13.2017 187.671 12.9817 187.681 12.8217 187.721Z" fill="#0066DA"/>
<path d="M11.9017 191.321C11.4217 191.301 11.2117 190.961 11.3417 190.691C11.5217 190.301 11.8117 190.031 12.2117 189.901C12.4717 189.821 12.7217 189.931 12.8217 190.171C12.8917 190.331 12.9017 190.581 12.8317 190.731C12.6017 191.161 12.1817 191.301 11.9017 191.321Z" fill="#0066DA"/>
<path d="M24.7117 184.011C24.2717 184.021 24.0917 183.721 24.1917 183.501C24.3517 183.161 24.6117 182.931 24.9717 182.821C25.1917 182.751 25.5117 182.861 25.5517 183.081C25.5817 183.251 25.5717 183.531 25.4617 183.611C25.1917 183.811 24.8617 183.931 24.7117 184.011Z" fill="#0066DA"/>
<path d="M23.6917 141.801C24.0217 142.201 24.3917 142.581 24.6717 143.011C25.0317 143.551 24.6917 144.171 24.0517 144.261C23.6217 144.321 23.4617 144.051 23.6317 143.591C23.6617 143.521 23.6817 143.441 23.7217 143.331C23.3417 142.841 22.9117 142.361 22.5617 141.821C22.3517 141.491 22.2017 141.101 22.1117 140.721C22.0317 140.351 22.4317 140.031 22.8117 140.101C22.9717 140.131 23.1317 140.181 23.2617 140.261C24.4117 141.071 25.5617 141.891 26.7017 142.721C26.7617 142.771 26.7817 142.961 26.7417 143.041C26.6917 143.131 26.5317 143.231 26.4617 143.201C26.0817 143.081 25.6917 142.961 25.3617 142.751C24.8217 142.411 24.3217 142.011 23.8017 141.641C23.7717 141.691 23.7317 141.751 23.6917 141.801Z" fill="#0066DA"/>
<path d="M30.5917 147.731C29.9417 148.191 30.1017 148.851 29.8717 149.321C29.6317 149.391 29.5317 149.291 29.5117 149.111C29.4917 148.951 29.4817 148.791 29.5017 148.631C29.6117 147.671 29.8317 147.371 30.7317 146.971C30.3917 146.501 29.7117 146.541 29.3617 146.141C29.4117 145.831 29.6117 145.871 29.7417 145.891C29.9817 145.921 30.2117 145.991 30.4417 146.081C31.6617 146.571 32.7217 147.291 33.6517 148.221C34.1317 148.701 34.2617 149.071 34.0317 149.241C33.6717 149.501 33.3317 149.311 33.0217 149.131C32.5017 148.831 31.9917 148.491 31.4717 148.181C31.1917 148.011 30.9017 147.891 30.5917 147.731Z" fill="#0066DA"/>
<path d="M26.3517 147.821C26.8217 148.671 26.0717 149.201 26.2517 149.861C26.9717 149.321 26.9017 148.411 27.3017 147.801C27.5717 147.791 27.6517 147.911 27.6617 148.091C27.7117 149.711 26.8717 150.841 25.6017 151.711C25.4717 151.801 25.1617 151.791 25.0517 151.701C24.9417 151.611 24.8817 151.321 24.9417 151.161C25.1417 150.591 25.4117 150.041 25.6517 149.481C25.8417 149.011 26.0517 148.531 26.3517 147.821Z" fill="#0066DA"/>
<path d="M31.9417 142.571C32.4617 141.711 33.2017 141.321 33.9717 140.981C34.1117 140.921 34.3917 140.971 34.5117 141.081C34.7117 141.261 34.6317 141.521 34.4817 141.731C34.0917 142.251 33.6317 142.691 33.0017 142.981C32.6917 142.861 32.3617 142.731 31.9417 142.571Z" fill="#0066DA"/>
<path d="M31.2917 152.631C31.0517 152.531 30.8017 152.501 30.7117 152.371C30.4117 151.951 30.1517 151.491 29.9217 151.021C29.8717 150.921 29.9517 150.691 30.0517 150.601C30.1517 150.511 30.3617 150.461 30.4917 150.501C31.1717 150.701 31.5417 151.211 31.7617 151.851C31.7817 151.921 31.7917 152.031 31.7517 152.091C31.6117 152.271 31.4617 152.431 31.2917 152.631Z" fill="#0066DA"/>
<path d="M23.1017 147.921C22.7117 147.911 22.4017 147.961 22.2817 147.621C22.1817 147.351 22.3617 147.051 22.7617 146.901C23.0917 146.781 23.4517 146.721 23.8017 146.701C24.0817 146.691 24.3517 147.001 24.3417 147.251C24.3317 147.511 24.1817 147.721 23.9417 147.791C23.6317 147.871 23.3017 147.891 23.1017 147.921Z" fill="#0066DA"/>
<path d="M29.4717 139.651C29.4817 140.031 29.1417 140.341 28.7617 140.311C28.4117 140.281 28.1417 139.961 28.1217 139.561C28.1017 139.231 28.3817 138.901 28.6817 138.891C29.0817 138.871 29.4717 139.251 29.4717 139.651Z" fill="#0066DA"/>
<path d="M35.3817 144.731C34.7117 145.131 34.7117 145.131 33.6217 145.041C33.5217 144.661 33.8017 144.541 34.0617 144.481C34.5117 144.381 34.9817 144.281 35.3817 144.731Z" fill="#0066DA"/>
<path d="M73.8171 98.4663C74.0271 101.746 71.3471 106.306 66.6771 107.436C63.9671 108.086 61.6171 107.506 59.6371 105.566C57.8471 103.826 56.5371 101.796 56.1571 99.2663C56.1071 98.9063 56.0471 98.5363 56.0871 98.1763C56.3371 95.4663 57.2071 92.9963 59.0171 90.9263C60.5171 89.2163 62.3871 88.3563 64.7071 88.6463C64.9171 88.6763 65.1471 88.6563 65.3171 88.7463C66.5171 89.3463 67.8671 89.6163 68.9771 90.3863C69.8271 90.9863 70.6471 91.6263 71.4671 92.2663C72.1371 92.7863 72.6671 93.4263 72.9571 94.2363C73.4471 95.6063 73.8371 97.0063 73.8171 98.4663ZM68.0571 91.0463C67.6771 91.3563 67.3971 91.6063 66.9971 91.3263C66.7871 91.1763 66.5671 91.0263 66.3471 90.9063C64.1971 89.7363 62.2571 90.0163 60.5171 91.7363C58.9271 93.3063 58.1371 95.2463 57.8371 97.4063C57.6771 98.5063 57.7771 99.5863 58.2571 100.616C58.9871 102.196 59.9771 103.576 61.3471 104.676C63.2871 106.236 65.4571 106.386 67.6571 105.466C71.0071 104.066 72.8071 100.446 72.0471 96.8963C71.9471 96.4363 71.8771 95.9663 71.7071 95.5363C71.4771 94.9663 71.2471 94.3563 70.8671 93.8863C70.0571 92.8663 69.1571 91.9263 68.0571 91.0463Z" fill="#0066DA"/>
<path d="M57.2671 79.5263C58.4371 80.8563 58.5071 82.4763 57.9971 84.0463C56.9871 87.1463 54.8771 89.2663 51.7671 90.3263C50.5971 90.7263 49.4171 90.6963 48.2571 90.2863C47.0171 89.8463 45.8971 89.2063 44.8771 88.3763C44.5571 88.1163 44.2371 87.8363 43.9871 87.5063C42.3071 85.2763 41.5871 82.7863 42.2371 80.0263C42.6971 78.0663 43.9071 76.5763 45.6771 75.5963C47.1571 74.7763 48.7171 74.6063 50.3371 75.2363C50.5671 75.3263 50.8171 75.3963 51.1071 75.4863C51.1371 75.0563 51.1371 74.6963 51.1971 74.3363C51.2771 73.8363 51.7071 73.4663 52.1571 73.4763C52.6171 73.4863 52.9371 73.7363 53.1171 74.1563C53.2171 74.3963 53.2671 74.6563 53.3371 74.9063C53.3971 75.0963 53.4571 75.2863 53.5471 75.5863C53.9671 75.4663 54.3471 75.3363 54.7371 75.2663C55.4771 75.1363 55.7371 75.3263 55.9171 76.0963C55.9471 76.2463 55.9671 76.3963 56.0071 76.6263C56.4071 76.6663 56.8071 76.6863 57.2071 76.7563C57.8271 76.8663 58.2271 77.3963 58.0471 78.0063C57.8571 78.5363 57.5271 79.0163 57.2671 79.5263ZM52.3071 77.4863C52.7271 77.7363 53.1671 77.9863 53.5971 78.2563C54.1171 78.5863 54.6371 78.9363 55.1371 79.2963C55.2171 79.3563 55.2171 79.5263 55.3171 79.8463C54.4171 79.3963 53.6871 79.0363 52.9671 78.6663C52.3271 78.3263 51.6471 78.0263 51.4671 77.1963C51.4271 77.0363 51.2271 76.8563 51.0471 76.7763C49.9871 76.2963 48.8971 76.0663 47.7171 76.3163C44.7271 76.9463 43.1771 80.0563 43.5371 82.5863C43.9671 85.5963 45.5871 87.6163 48.4071 88.7263C49.3671 89.1063 50.3271 89.1563 51.3071 88.8763C53.7471 88.1763 55.3271 86.5563 56.1671 84.2163C56.4071 83.5463 56.6071 82.7363 56.4371 82.0863C56.1771 81.0763 56.1871 80.0763 56.0571 79.0563C56.3471 78.5363 57.3671 78.4963 57.0971 77.4863C56.6271 77.4863 56.1671 77.4963 55.6971 77.4863C55.3671 77.4763 55.1071 77.3363 54.9471 77.0263C54.8371 76.8163 54.7171 76.6163 54.5671 76.3563C54.0471 76.6863 53.5971 76.9263 53.0271 76.7663C52.5771 76.6263 52.4471 77.0063 52.3071 77.4863Z" fill="#0066DA"/>
<path d="M64.1671 92.3163C64.1971 92.2863 64.2971 92.1763 64.4071 92.0663C65.3271 91.1663 66.3171 91.2563 66.9771 92.3063C67.2871 92.7863 67.3171 93.2863 66.9871 93.7663C66.7571 94.1063 66.5071 94.4263 66.2171 94.8263C66.6771 95.2163 67.1371 95.5563 67.5271 95.9563C67.9871 96.4263 68.1971 97.0063 67.9471 97.6663C67.7071 98.3063 67.2371 98.7263 66.5771 98.7863C66.1871 98.8163 65.7571 98.6963 65.3871 98.5463C65.0071 98.3963 64.6871 98.1063 64.3271 97.9063C64.0071 97.7363 63.7071 97.8163 63.4971 98.0963C63.2871 98.3863 63.1371 98.7263 62.9371 99.0263C62.1271 100.216 60.7771 100.536 59.5071 99.8563C58.4871 99.3063 57.9771 98.0963 58.5771 97.0563C59.2671 95.8763 59.7671 94.6663 60.1271 93.3563C60.3271 92.6163 60.9771 92.1663 61.7871 92.1663C62.5371 92.1763 63.3071 92.2563 64.1671 92.3163ZM63.0171 93.0663C62.5971 93.0663 62.1371 93.0463 61.6771 93.0763C61.2771 93.0963 60.9971 93.3463 60.8771 93.7163C60.7571 94.1063 60.6971 94.5263 60.6371 94.9263C60.5571 95.5563 60.3771 96.1363 59.9371 96.6163C59.7971 96.7663 59.6571 96.9263 59.5471 97.1063C59.1371 97.7963 59.2471 98.5363 59.7971 98.9163C60.5371 99.4263 61.3871 99.3663 61.8871 98.7263C62.1071 98.4463 62.2471 98.0963 62.4371 97.7963C63.0371 96.8563 63.8871 96.6263 64.8371 97.1463C65.1971 97.3463 65.5271 97.6063 65.8871 97.8063C66.2571 98.0063 66.6671 97.8963 66.8371 97.5863C67.0071 97.2763 66.9371 96.9663 66.6871 96.7363C66.3471 96.4263 65.9471 96.1663 65.6071 95.8463C65.1371 95.4063 65.0371 94.8363 65.3471 94.2863C65.5771 93.8863 65.8771 93.5363 66.1471 93.1563C66.0671 92.9863 66.0271 92.8163 65.9371 92.7063C65.5471 92.2863 65.1671 92.3463 65.0171 92.8363C64.9871 92.9363 64.9871 93.0463 64.9471 93.1363C64.7971 93.5563 64.8671 94.1663 64.3071 94.2763C63.5971 94.4163 63.6171 93.6363 63.2871 93.2963C63.2571 93.2863 63.2171 93.2563 63.0171 93.0663Z" fill="#0066DA"/>
<path d="M62.6571 94.5263C63.0871 94.5563 63.4371 94.9163 63.4471 95.3363C63.4471 95.8263 63.0471 96.2063 62.5471 96.1863C62.0571 96.1663 61.6971 95.7163 61.7771 95.2263C61.8371 94.7863 62.2171 94.4863 62.6571 94.5263Z" fill="#0066DA"/>
<path d="M13.3423 2.48627C14.1723 1.19627 15.3423 0.426271 16.8523 0.156271C17.9423 -0.0437293 19.0323 -0.0637272 20.1123 0.166273C22.4123 0.636273 24.5123 1.53628 26.2123 3.21628C26.5223 3.51628 26.8323 3.80627 27.1623 4.08627C29.0224 5.71627 31.0424 7.10627 33.3324 8.08627C34.8424 8.73627 36.3223 9.42627 37.6824 10.3663C40.5723 12.3463 42.8323 14.9163 44.7123 17.8263C46.6523 20.8463 47.9123 24.1663 48.8323 27.6263C50.0523 32.2063 50.8123 36.8763 51.1923 41.5963C51.3123 43.0763 51.4524 44.5563 51.5924 46.0363C51.7724 47.9863 52.4023 49.7663 53.4423 51.4163C53.6923 51.8163 53.9523 52.2063 54.1723 52.6163C54.3023 52.8563 54.3923 53.1163 54.4324 53.3863C54.4924 53.8263 53.9624 54.2163 53.5624 54.0163C53.3223 53.8963 53.0924 53.7363 52.8923 53.5463C52.1623 52.8563 51.4324 52.1663 50.6223 51.5463C49.6623 50.8063 48.7624 49.9963 47.7024 49.3963C47.0723 49.0363 46.5823 48.5463 46.3023 47.8763C45.8323 46.7863 44.9723 46.1763 43.8523 45.8763C41.9324 45.3563 40.0123 44.8063 38.0823 44.3063C35.6923 43.6863 33.2924 43.1263 30.9123 42.5163C29.3223 42.1063 27.7323 41.6963 26.2023 41.0663C22.1523 39.3863 18.8723 36.7763 16.5023 33.0663C15.2523 31.1063 14.3823 28.9763 13.6423 26.7763C12.3323 22.8563 11.6323 18.8263 11.1323 14.7363C10.8023 12.0263 11.1423 9.35627 11.5723 6.81627C11.9823 5.20627 12.5123 3.78627 13.3423 2.48627ZM48.8223 43.5863C48.6223 40.8963 48.4724 38.2063 48.0424 35.5363C47.4524 31.9063 46.6323 28.3263 45.6223 24.7863C44.7323 21.6863 43.4823 18.7463 41.6523 16.0663C39.9923 13.6563 38.0224 11.5663 35.4623 10.0863C34.7823 9.69627 34.0924 9.32627 33.3723 9.02627C31.3123 8.15627 29.4123 6.98627 27.5124 5.83627C26.7223 5.35627 26.0124 4.70627 25.3323 4.06627C23.5723 2.41627 21.4424 1.64627 19.1024 1.34627C18.8724 1.31627 18.6323 1.32627 18.4023 1.32627C16.3823 1.34627 15.0323 2.27627 14.2823 4.18627C13.7323 5.59627 13.5123 7.05628 13.3923 8.53628C13.2123 10.8063 13.3523 13.0663 13.8123 15.2963C14.5823 19.0563 15.4823 22.7763 16.7323 26.4063C17.4023 28.3763 18.2224 30.2763 19.2624 32.0763C21.2624 35.5263 24.0823 38.1063 27.6723 39.8263C29.2223 40.5763 30.8723 41.0763 32.5323 41.5463C35.5423 42.4063 38.5523 43.2563 41.5424 44.1563C42.5824 44.4663 43.6023 44.9063 44.6023 45.3363C45.5323 45.7363 46.2523 46.3963 46.6824 47.3163C47.0323 48.0663 47.5624 48.5863 48.2924 48.9463C48.8424 49.2263 49.3524 49.5763 49.8824 49.8863C49.1423 47.7963 48.9823 45.6863 48.8223 43.5863Z" fill="#0066DA"/>
<path d="M37.8523 18.6263C37.4523 18.8863 37.3923 19.3163 37.2823 19.7263C37.0323 20.7163 36.7823 21.6963 36.5224 22.6763C36.4623 22.8963 36.3724 23.0963 36.3124 23.2563C35.9624 23.3463 35.8823 23.1363 35.7823 22.9863C34.5224 21.0663 32.9223 19.4763 31.1123 18.0863C28.8723 16.3663 26.8123 14.4663 24.8923 12.3963C23.9123 11.3363 22.8223 10.3863 21.7624 9.39627C21.5224 9.16628 21.2624 8.90627 20.7724 9.07627C20.9223 9.30627 21.0224 9.50628 21.1623 9.66628C22.5723 11.2363 23.9723 12.8063 25.4223 14.3463C26.6523 15.6563 27.9223 16.9263 29.2023 18.1963C30.2323 19.2163 31.2323 20.2563 32.0224 21.4763C32.2323 21.7963 32.4123 22.1363 32.6723 22.5863C32.3623 22.6063 32.1723 22.6463 32.0123 22.6163C29.9423 22.2163 27.8723 21.8163 25.8023 21.4063C25.4223 21.3363 25.0523 21.2363 24.7123 21.1563C24.4923 21.4363 24.6223 21.5963 24.7823 21.6963C25.0823 21.8763 25.3823 22.0563 25.7123 22.1663C28.0123 22.9463 30.3523 23.5463 32.7823 23.7963C32.9324 23.8163 33.0924 23.8463 33.3223 23.8863C34.2623 25.8063 34.7923 27.8563 35.1723 30.0763C34.1323 30.0163 33.2024 29.9663 32.2724 29.8963C30.5624 29.7663 28.8424 29.6063 27.1323 29.4763C26.8223 29.4563 26.5123 29.4863 26.2023 29.5263C25.9723 29.5563 25.8723 29.9363 26.0623 30.0863C26.2624 30.2563 26.4823 30.4363 26.7323 30.5263C27.1024 30.6563 27.4923 30.7363 27.8723 30.7863C30.3123 31.1263 32.7423 31.5363 35.2123 31.3963C35.2823 31.3963 35.3624 31.4363 35.5023 31.4763C35.6023 31.7663 35.7223 32.0863 35.8323 32.4163C37.4223 37.2663 40.4524 40.9663 44.8124 43.5863C45.1124 43.7663 45.4223 43.9463 45.7523 44.0563C46.5424 44.3163 47.2024 43.7063 46.9724 42.9063C46.8524 42.5063 46.6223 42.1163 46.3624 41.7863C45.9424 41.2763 45.4524 40.8163 45.0023 40.3363C44.0523 39.3063 43.0723 38.2963 42.1623 37.2163C40.7623 35.5563 39.7824 33.6463 39.1324 31.5663C38.8524 30.6663 38.6223 29.7563 38.3424 28.8663C38.0123 27.8263 37.6723 26.7863 37.2823 25.7663C37.1023 25.3063 37.0824 24.9063 37.2224 24.4163C37.5624 23.2963 37.8523 22.1563 38.0924 21.0163C38.2123 20.4463 38.2024 19.8563 38.2323 19.2663C38.2423 19.0963 38.1723 19.0263 37.8523 18.6263Z" fill="#0066DA"/>
<path d="M18.8424 15.1263C18.8724 15.2663 18.8623 15.4363 18.9423 15.5263C19.0923 15.6963 19.2823 15.8463 19.4823 15.9363C20.1123 16.2263 20.7523 16.5163 21.4123 16.7263C21.7223 16.8263 22.0924 16.7763 22.4324 16.7363C22.5324 16.7263 22.6423 16.5263 22.6723 16.3963C22.6924 16.3163 22.6123 16.1863 22.5423 16.1063C22.4723 16.0263 22.3624 15.9563 22.2523 15.9263C21.2123 15.6363 20.1623 15.3563 19.1123 15.0863C19.0623 15.0563 18.9823 15.0963 18.8424 15.1263Z" fill="#0066DA"/>
<path d="M21.8923 26.9463C22.4324 27.0163 22.8923 27.1063 23.3623 27.1263C23.5723 27.1363 23.8024 27.0263 24.0124 26.9363C24.1723 26.8663 24.1523 26.5163 24.0124 26.4263C23.9123 26.3663 23.8123 26.2963 23.7023 26.2763C22.8123 26.1663 21.9223 26.0663 21.0423 25.9663C21.0023 25.9663 20.9524 25.9663 20.9324 25.9863C20.8223 26.0863 20.6523 26.1763 20.6423 26.2863C20.6323 26.3963 20.7523 26.5763 20.8723 26.6363C21.0723 26.7463 21.3023 26.7963 21.5323 26.8563C21.6623 26.9063 21.8123 26.9263 21.8923 26.9463Z" fill="#0066DA"/>
<path d="M42.0023 29.6963C42.2724 29.5763 42.5123 29.5363 42.6523 29.3963C43.2423 28.8263 43.6824 28.1463 44.0023 27.3963C44.0323 27.3263 44.0424 27.2363 44.0224 27.1763C43.9823 27.0763 43.9324 26.9463 43.8523 26.9063C43.7723 26.8663 43.6324 26.8863 43.5424 26.9363C43.4524 26.9863 43.3724 27.0963 43.3124 27.1863C42.9024 27.8863 42.4823 28.5763 42.0823 29.2763C42.0323 29.3663 42.0424 29.4863 42.0023 29.6963Z" fill="#0066DA"/>
<path d="M154.849 110.983C156.989 114.133 158.509 117.533 159.439 121.163C160.659 125.943 159.989 130.493 157.319 134.693C157.049 135.123 156.749 135.543 156.479 135.973C154.529 138.983 151.829 141.063 148.549 142.473C145.229 143.903 141.759 144.703 138.179 145.003C136.869 145.113 135.529 145.013 134.209 144.903C131.759 144.693 129.379 144.093 127.019 143.413C125.679 143.023 124.459 142.403 123.439 141.423C123.089 141.083 122.839 140.733 122.929 140.213C122.949 140.113 123.009 139.973 122.969 139.913C122.259 138.893 122.779 137.933 123.159 137.023C124.119 134.713 125.079 132.403 126.199 130.163C127.879 126.783 129.669 123.453 131.449 120.113C133.729 115.833 136.069 111.573 138.349 107.293C139.189 105.713 140.209 104.243 141.229 102.783C142.169 101.443 142.899 101.193 144.679 101.763C145.439 102.003 146.189 102.413 146.839 102.893C149.879 105.213 152.639 107.853 154.849 110.983ZM143.249 104.773C142.829 105.233 142.609 105.723 142.539 106.283C142.949 106.773 143.389 107.203 143.719 107.713C145.199 109.983 146.519 112.353 147.569 114.843C148.059 116.013 148.009 117.143 146.859 117.993C146.809 118.033 146.819 118.143 146.789 118.303C147.299 118.373 147.799 118.433 148.299 118.523C149.259 118.683 150.189 118.963 151.019 119.493C151.859 120.023 152.339 120.763 152.319 121.773C152.309 122.333 152.299 122.893 152.269 123.453C152.169 125.393 151.349 126.993 149.929 128.283C148.999 129.133 147.919 129.673 146.619 129.653C146.379 129.653 146.149 129.673 145.759 129.683C146.069 130.213 146.319 130.583 146.519 130.983C146.769 131.483 147.049 131.993 147.179 132.523C147.529 133.953 147.099 134.873 145.799 135.333C144.059 135.943 142.269 136.353 140.469 136.683C139.219 136.913 138.179 136.373 137.339 135.443C137.159 135.243 136.989 135.023 136.689 134.663C136.579 135.313 136.509 135.753 136.439 136.193C136.269 137.193 135.729 137.813 134.699 138.073C133.349 138.403 132.009 138.613 130.609 138.593C129.199 138.573 127.879 138.263 126.689 137.483C126.269 137.213 125.809 136.993 125.289 136.703C124.929 137.333 124.589 137.903 124.269 138.473C124.119 138.733 123.989 139.003 123.839 139.283C126.989 140.093 130.149 140.413 132.989 140.253C134.369 140.173 135.739 140.113 137.119 140.073C138.199 140.043 139.259 139.943 140.289 139.613C141.309 139.283 142.339 138.973 143.329 138.573C144.749 138.003 146.219 137.513 147.429 136.533C149.509 134.853 151.249 132.843 152.709 130.623C153.699 129.113 154.349 127.373 154.189 125.553C153.949 122.913 153.519 120.273 152.329 117.853C150.819 114.773 149.029 111.863 147.069 109.053C146.899 108.803 146.699 108.563 146.489 108.343C145.959 107.793 145.399 107.263 144.889 106.703C144.349 106.093 143.839 105.463 143.249 104.773ZM145.829 133.603C145.949 132.643 145.519 131.833 145.059 131.033C144.259 129.653 143.149 128.503 142.019 127.403C140.669 126.083 139.229 124.853 137.889 123.533C137.059 122.713 136.319 121.793 135.569 120.883C135.439 120.723 135.419 120.363 135.509 120.183C135.679 119.853 135.999 119.963 136.309 120.083C137.299 120.453 137.989 121.213 138.719 121.933C140.579 123.763 142.459 125.553 144.569 127.103C144.859 127.313 145.149 127.523 145.439 127.723C146.299 128.313 147.169 128.303 147.999 127.693C148.489 127.333 148.959 126.933 149.369 126.483C150.489 125.223 150.689 123.653 150.729 122.043C150.739 121.463 150.519 121.083 150.019 120.803C149.109 120.293 148.139 120.023 147.109 119.913C143.659 119.533 140.199 119.153 136.719 119.203C136.209 119.213 135.699 119.203 135.189 119.203C134.649 119.693 134.489 120.263 134.779 120.973C134.949 121.393 134.999 121.863 135.099 122.313C135.749 125.203 136.389 128.093 137.059 130.973C137.229 131.713 137.439 132.463 137.699 133.173C138.379 135.063 139.279 135.563 141.229 135.153C142.229 134.943 143.219 134.683 144.209 134.453C144.809 134.323 145.369 134.103 145.829 133.603ZM131.839 141.473C131.819 141.583 131.799 141.693 131.779 141.793C133.869 142.213 135.959 142.633 138.119 142.423C141.539 142.093 144.869 141.393 147.989 139.873C149.279 139.243 150.509 138.573 151.599 137.613C153.579 135.863 155.149 133.783 156.309 131.443C157.869 128.313 158.549 124.973 157.769 121.483C156.509 115.833 153.679 111.083 149.309 107.263C149.129 107.103 148.929 106.983 148.549 106.703C148.689 107.063 148.709 107.203 148.789 107.303C150.269 109.383 151.409 111.683 152.699 113.883C153.959 116.023 154.789 118.313 155.109 120.773C155.319 122.443 155.599 124.143 155.459 125.793C155.239 128.363 154.339 130.753 152.569 132.743C151.959 133.433 151.419 134.183 150.789 134.843C149.499 136.213 148.179 137.563 146.459 138.443C144.909 139.233 143.289 139.823 141.649 140.413C139.999 141.013 138.309 141.273 136.549 141.263C134.989 141.273 133.409 141.403 131.839 141.473ZM134.669 136.073C134.759 135.603 134.899 135.163 134.929 134.713C134.999 133.643 135.099 132.573 135.039 131.503C134.859 128.553 134.509 125.613 133.959 122.713C133.919 122.483 133.819 122.263 133.679 121.843C132.589 123.343 131.859 124.833 131.029 126.263C130.159 127.763 129.289 129.263 128.469 130.783C127.679 132.243 126.779 133.653 126.169 135.193C128.579 136.673 130.499 137.083 134.669 136.073ZM136.009 117.903C136.479 117.893 136.939 117.843 137.389 117.893C139.659 118.153 141.869 117.743 144.059 117.233C144.559 117.123 145.049 116.973 145.519 116.793C146.079 116.583 146.229 116.283 146.039 115.723C145.809 115.053 145.529 114.383 145.239 113.733C144.459 112.013 143.579 110.333 142.469 108.803C142.279 108.533 142.009 108.323 141.769 108.083C140.889 109.093 136.499 116.603 136.009 117.903Z" fill="#0066DA"/>
<path d="M132.829 157.053C132.729 157.403 132.639 158.013 132.389 158.563C131.809 159.833 130.749 160.243 129.499 159.663C128.949 159.413 128.439 159.053 127.969 158.673C127.009 157.893 126.219 156.933 125.749 155.793C125.079 154.203 124.529 152.563 123.969 150.933C123.839 150.563 123.809 150.133 123.839 149.733C123.899 148.983 124.689 148.483 125.409 148.723C125.689 148.813 125.969 148.973 126.209 149.153C127.639 150.213 129.059 151.293 130.469 152.373C131.209 152.933 131.789 153.633 132.249 154.443C132.649 155.173 132.789 155.973 132.829 157.053ZM126.139 151.513C126.739 153.193 127.149 154.553 127.889 155.753C128.309 156.433 128.839 157.063 129.379 157.663C129.709 158.033 130.099 158.383 130.659 158.363C130.749 158.303 130.859 158.263 130.909 158.183C131.009 158.013 131.119 157.833 131.149 157.643C131.399 156.303 131.099 155.123 130.069 154.193C128.969 153.213 127.769 152.393 126.139 151.513Z" fill="#0066DA"/>
<path d="M113.279 160.823C113.309 159.583 113.619 158.403 114.099 157.273C115.169 154.753 116.729 152.583 118.879 150.853C119.039 150.723 119.189 150.593 119.359 150.473C120.339 149.803 120.859 150.043 120.949 151.203C120.979 151.553 121.019 151.923 120.969 152.273C120.689 154.233 120.589 156.223 120.079 158.153C119.709 159.543 119.189 160.853 118.379 162.043C117.819 162.863 117.099 163.493 116.179 163.873C115.049 164.333 114.189 163.993 113.649 162.913C113.359 162.313 113.259 161.773 113.279 160.823ZM118.999 153.273C118.649 153.533 118.509 153.593 118.419 153.703C117.349 154.943 116.379 156.263 115.669 157.743C115.229 158.653 114.919 159.633 114.639 160.613C114.469 161.193 114.479 161.823 114.719 162.423C114.929 162.943 115.299 163.093 115.819 162.903C116.579 162.623 117.159 162.113 117.499 161.413C117.899 160.593 118.269 159.743 118.509 158.863C118.989 157.113 118.929 155.323 118.999 153.273Z" fill="#0066DA"/>
<path d="M112.979 148.083C112.319 148.313 111.959 148.513 111.579 148.563C110.559 148.703 109.629 149.093 108.709 149.523C108.389 149.673 108.059 149.833 107.719 149.873C107.509 149.903 107.189 149.763 107.079 149.593C106.969 149.423 106.979 149.083 107.079 148.903C107.219 148.653 107.479 148.443 107.729 148.283C108.649 147.713 109.659 147.373 110.719 147.233C111.479 147.133 112.189 147.293 112.979 148.083Z" fill="#0066DA"/>
<path d="M144.739 124.193C144.679 124.073 144.549 123.923 144.579 123.803C144.609 123.643 144.759 123.373 144.859 123.373C145.609 123.393 146.189 123.803 146.649 124.353C146.739 124.463 146.699 124.743 146.639 124.923C146.549 125.203 146.279 125.273 146.019 125.233C145.389 125.143 145.099 124.633 144.739 124.193Z" fill="#0066DA"/>
<path d="M140.409 120.803C140.509 120.783 140.669 120.683 140.789 120.723C141.269 120.863 141.749 121.043 142.209 121.243C142.309 121.283 142.389 121.493 142.379 121.613C142.359 121.733 142.239 121.913 142.129 121.943C141.509 122.113 140.929 121.983 140.399 121.633C140.149 121.463 140.139 120.953 140.409 120.803Z" fill="#0066DA"/>
<path d="M139.509 130.693C140.289 130.813 140.559 131.403 140.729 132.053C140.759 132.163 140.639 132.353 140.539 132.423C140.439 132.503 140.239 132.543 140.129 132.503C139.529 132.243 139.289 131.513 139.509 130.693Z" fill="#0066DA"/>
<path d="M140.499 128.693C141.289 129.223 142.009 129.793 142.519 130.683C142.309 130.733 142.129 130.833 142.069 130.783C141.289 130.253 140.879 129.733 140.499 128.693Z" fill="#0066DA"/>
<path d="M147.549 121.363C147.489 121.463 147.419 121.673 147.289 121.753C147.009 121.933 146.599 121.823 146.539 121.543C146.509 121.393 146.609 121.143 146.729 121.053C146.979 120.863 147.369 121.003 147.549 121.363Z" fill="#0066DA"/>
<path d="M132.569 130.293C132.999 130.903 132.859 132.333 132.259 132.793C132.059 132.943 131.689 132.963 131.419 132.923C131.109 132.883 130.899 132.613 130.889 132.283C130.859 131.493 131.189 130.823 131.639 130.213C131.839 129.943 132.369 130.013 132.569 130.293Z" fill="#0066DA"/>
<path d="M133.619 125.673C133.909 126.393 134.019 127.033 133.659 127.643C133.579 127.773 133.329 127.883 133.169 127.873C132.999 127.863 132.769 127.743 132.679 127.603C132.359 127.073 132.529 126.033 132.999 125.673C133.139 125.583 133.419 125.673 133.619 125.673Z" fill="#0066DA"/>
<path d="M129.179 134.443C128.999 134.393 128.789 134.383 128.669 134.283C128.349 133.983 128.329 133.573 128.469 133.173C128.529 133.013 128.699 132.813 128.849 132.783C128.969 132.763 129.199 132.963 129.249 133.103C129.349 133.373 129.379 133.683 129.399 133.973C129.409 134.113 129.279 134.243 129.179 134.443Z" fill="#0066DA"/>
<path d="M140.699 115.903C140.189 116.263 139.619 116.483 138.999 116.373C138.789 116.333 138.569 116.133 138.449 115.943C138.309 115.733 138.519 115.273 138.799 115.203C139.379 115.053 139.969 114.943 140.569 114.873C140.719 114.853 140.979 115.003 141.039 115.143C141.099 115.293 140.979 115.513 140.909 115.693C140.879 115.783 140.769 115.843 140.699 115.903Z" fill="#0066DA"/>
<path d="M142.059 112.453C141.829 112.563 141.609 112.723 141.369 112.763C141.209 112.793 140.959 112.683 140.869 112.553C140.779 112.423 140.759 112.143 140.839 112.003C141.179 111.433 141.779 111.263 142.389 111.143C142.499 111.123 142.689 111.263 142.749 111.373C142.809 111.493 142.799 111.703 142.719 111.803C142.529 112.053 142.279 112.243 142.059 112.453Z" fill="#0066DA"/>
</svg>
