<?xml version="1.0" encoding="UTF-8" standalone="no"?>
<svg
   width="152"
   height="129"
   viewBox="0 0 152 129"
   fill="none"
   version="1.1"
   id="svg30"
   xmlns="http://www.w3.org/2000/svg"
   xmlns:svg="http://www.w3.org/2000/svg">
  <defs
     id="defs34" />
  <path
     id="path2"
     style="color:#000000;fill:#000000;fill-opacity:0.23;-inkscape-stroke:none;opacity:0.5"
     d="M 135.97852 115.32031 C 124.8075 115.39088 111.97805 116.0082 98.294922 117.65039 C 52.174012 112.97939 19.480469 117.65039 19.480469 117.65039 C 19.480469 117.65039 54.768012 129.32617 98.294922 129.32617 C 119.31454 129.32617 138.36357 126.60102 152.49414 123.78516 L 152.49414 115.61719 C 147.54282 115.4119 142.02961 115.28209 135.97852 115.32031 z " />
  <g
     id="path20"
     transform="translate(64.130584,17.731959)" />
  <path
     id="path28"
     style="color:#000000;fill:#00438f;-inkscape-stroke:none"
     d="m 152.49414,5.636725 c -1.85565,0.348948 -3.68469,0.852217 -5.45899,1.529297 -4.896,1.84354 -9.31704,4.918788 -12.74804,8.886719 -2.60161,3.04144 -4.65679,6.609079 -5.8086,10.5 -0.0168,7.25e-4 -0.0339,-7.75e-4 -0.0508,0 -2.551,0.1343 -5.10303,0.475538 -7.58203,1.085938 -4.969,1.1965 -9.66966,3.468222 -13.72266,6.544922 -4.06589,3.0766 -7.44647,6.970968 -10.04687,11.292968 -2.4058,4.017157 -4.16254,8.423347 -5.08985,13.003907 -3.84556,0.0794 -7.69105,0.222523 -11.53515,0.443359 0.20872,-0.112339 0.41759,-0.224973 0.60546,-0.371094 0.9767,-0.8057 1.52685,-1.978872 1.68555,-3.138672 0.1709,-1.1721 0.0357,-2.330406 -0.2207,-3.441406 -0.525,-2.2343 -1.59889,-4.274069 -2.92969,-6.105469 1.3185,1.8436 2.35488,3.918625 2.70898,6.140625 0.1831,1.111 0.19538,2.246394 -0.0488,3.308594 -0.2442,1.0622 -0.81775,2.027763 -1.66015,2.601563 -0.8668,0.5494 -1.91591,0.69629 -2.94141,0.52539 -1.0256,-0.171 -2.01399,-0.611237 -2.92969,-1.148437 -1.8435,-1.0866 -3.40697,-2.649113 -4.70117,-4.382813 -1.2697,-1.7458 -2.2949,-3.699309 -2.7832,-5.787109 -0.232,-1.0377 -0.3672,-2.098919 -0.2207,-3.136719 0.1343,-1.0255 0.58588,-1.99109 1.36718,-2.65039 0.7936,-0.6348 1.8802,-0.90376 2.9668,-0.81836 1.0866,0.0855 2.17468,0.428606 3.17578,0.941406 2.0145,1.0011 3.69901,2.61155 5.06641,4.40625 -1.343,-1.8069 -2.97875,-3.443234 -4.96875,-4.615234 -0.9889,-0.5616 -2.06471,-1.049322 -3.22461,-1.232422 -1.1476,-0.1832 -2.42804,-0.02403 -3.49024,0.671875 -1.0256,0.7203 -1.69829,1.891391 -1.96679,3.087891 -0.2686,1.2087 -0.25633,2.431034 -0.0488,3.615234 0.4029,2.3686 1.49002,4.540231 2.85742,6.457031 1.4284,1.8801 3.17347,3.554025 5.32226,4.640625 0.59139,0.299117 1.22207,0.533811 1.8711,0.716797 -2.84664,0.210167 -5.69207,0.441027 -8.53516,0.748047 -6.7149,0.7814 -13.4419,1.757469 -20.0957,3.417969 -3.3208,0.8546 -6.63034,1.807928 -9.90234,3.236328 -1.636,0.6959 -3.25909,1.525166 -4.83399,2.697266 -0.7814,0.5738 -1.56386,1.293765 -2.25976,2.197265 -0.6837,0.9523 -1.26857,2.20931 -1.29297,3.66211 0.0244,1.4529 0.60927,2.711762 1.29297,3.664062 0.6959,0.8913 1.46616,1.611266 2.25976,2.197266 1.5749,1.1598 3.19799,1.989165 4.83399,2.697265 3.2598,1.428395 6.58154,2.381728 9.90234,3.236329 6.6538,1.635999 13.3808,2.624949 20.0957,3.40625 13.4664,1.4407 26.96788,1.757871 40.42188,1.513671 13.467,-0.293 26.90979,-1.244318 40.21679,-3.136718 1.48428,-0.206983 2.96661,-0.433642 4.44727,-0.669922 v -0.539063 c -1.49772,0.199292 -2.9967,0.387218 -4.4961,0.560547 -13.332,1.4284 -26.74986,1.746053 -40.13086,1.501953 -13.38119,-0.2931 -26.74994,-1.2448 -39.93554,-3.125 -6.5928,-0.9157 -13.14749,-2.113037 -19.49609,-3.773437 -3.1743,-0.8424 -6.31206,-1.782072 -9.19336,-3.076172 -1.4406,-0.6227 -2.80893,-1.366585 -3.91993,-2.208985 -0.54939,-0.4273 -1.00047,-0.879821 -1.33007,-1.294921 -0.2808,-0.4151 -0.3799,-0.744082 -0.4043,-0.988282 0.0366,-0.2319 0.1235,-0.562934 0.4043,-0.990234 0.3296,-0.4151 0.76848,-0.86615 1.33007,-1.28125 1.111,-0.8424 2.47933,-1.574084 3.91993,-2.208984 2.8691,-1.2819 6.01758,-2.235725 9.17968,-3.078125 6.3608,-1.6482 12.90525,-2.844066 19.49805,-3.759766 7.82051,-1.10793 15.70512,-1.864096 23.61524,-2.384766 -0.21096,1.853926 -0.31841,3.72193 -0.13672,5.583985 0.2442,2.4784 0.87924,4.968969 2.18554,7.105469 -1.1842,-2.197601 -1.68403,-4.675897 -1.76953,-7.154297 -0.0832,-1.867081 0.0894,-3.732206 0.375,-5.576172 5.20961,-0.333086 10.42865,-0.58479 15.65433,-0.699219 10.2894,-0.187948 20.61316,-0.03062 30.90234,0.697266 -0.17623,0.327394 -0.35605,0.652746 -0.50195,1 -0.402,0.989 -0.69699,2.050528 -0.70899,3.173828 -0.012,1.111 0.34255,2.331356 1.18555,3.222656 0.866,0.8546 2.07455,1.245612 3.18555,1.257812 1.123,0.0122 2.1985,-0.256265 3.1875,-0.634765 1.99,-0.7935 3.67423,-2.100825 5.11523,-3.578125 0.87063,-0.938778 1.63877,-1.971317 2.27344,-3.076172 0.004,5.22e-4 0.008,0.0014 0.0117,0.002 v -0.646484 c -0.0294,0.0475 -0.0637,0.09158 -0.0937,0.138672 -0.937,-0.149085 -1.87585,-0.284864 -2.81446,-0.421875 0.12264,-0.244194 0.27235,-0.475255 0.36524,-0.732422 0.366,-0.9767 0.51442,-2.233263 -0.26758,-3.039063 0.745,0.8302 0.56092,2.062335 0.16992,2.990235 -0.11123,0.272959 -0.2857,0.506301 -0.43554,0.755859 -0.45737,-0.06643 -0.91347,-0.143222 -1.3711,-0.207031 -1.64747,-0.235799 -3.30335,-0.413932 -4.95508,-0.621094 0.2971,-0.479153 0.63713,-0.935766 1.02344,-1.355469 0.733,-0.7569 1.57545,-1.41594 2.56445,-1.80664 0.952,-0.3663 2.18591,-0.52506 3.00391,0.24414 -0.793,-0.7936 -2.0523,-0.684178 -3.0293,-0.330078 -1.025,0.3419 -1.95181,0.939856 -2.75781,1.660156 -0.48876,0.45153 -0.94019,0.961334 -1.32226,1.523438 -0.77109,-0.09532 -1.54059,-0.20173 -2.3125,-0.291016 0.58944,-1.002472 1.29724,-1.948402 2.09765,-2.80664 1.379,-1.4284 3.00281,-2.69866 4.88281,-3.44336 0.94,-0.3663 1.94208,-0.609856 2.95508,-0.597656 0.8127,0.0098 1.62597,0.250852 2.29688,0.707031 v -0.01172 c -0.66631,-0.464132 -1.48159,-0.712806 -2.27344,-0.732422 -1.025,-0.0366 -2.05163,0.146862 -3.01562,0.476562 -1.95401,0.6348 -3.72372,1.768838 -5.26172,3.148438 -0.99918,0.926582 -1.91221,1.972868 -2.66797,3.136718 -10.43571,-1.172245 -20.93989,-1.820042 -31.44531,-2.048828 -5.01764,-0.09099 -10.03907,-0.07103 -15.06251,0.02148 1.08746,-4.39619 2.94798,-8.581984 5.40625,-12.353516 2.68591,-4.1022 6.08033,-7.703166 10.01172,-10.572266 3.931,-2.8569 8.43711,-4.884175 13.16211,-5.921875 2.15881,-0.481058 4.36954,-0.724372 6.58399,-0.8125 -0.0909,0.45981 -0.18358,0.919623 -0.24805,1.386719 -0.341,2.6493 -0.23334,5.407822 0.59766,8.044922 0.818,2.6371 2.42884,5.067081 4.58984,6.800781 1.075,0.879 2.25919,1.586838 3.49219,2.148438 0.61,0.2808 1.24586,0.524822 1.88086,0.732422 0.635,0.2197 1.46559,0.426743 2.30859,0.402343 0.866,-0.0122 1.8185,-0.304625 2.5625,-0.890625 0.745,-0.586 1.20895,-1.34319 1.50195,-2.08789 0.562,-1.4895 0.57346,-2.942566 0.43946,-4.322266 -0.306,-2.747 -1.35642,-5.285812 -2.85742,-7.507812 -1.514,-2.222 -3.55175,-4.102838 -5.96875,-5.335938 -1.42038,-0.728262 -2.96468,-1.174598 -4.53321,-1.417969 1.0619,-3.160922 2.81638,-6.12875 5.02149,-8.666015 3.052,-3.5772 7.03145,-6.385483 11.43945,-8.070313 1.40744,-0.544389 2.86325,-0.933297 4.33594,-1.251953 z M 98.66406,19.927741 c -0.60961,0.06306 -1.24421,0.288088 -1.86133,0.642578 -1.23425,0.70898 -2.43758,1.938735 -3.35547,3.529297 -0.9118,1.584625 -1.37008,3.235756 -1.36524,4.658203 0.005,1.422447 0.4859,2.65359 1.51368,3.251953 l 0.002,0.002 c 1.03415,0.590943 2.33979,0.390512 3.57226,-0.31836 1.23246,-0.708872 2.43182,-1.933403 3.34961,-3.517578 0.91181,-1.584623 1.37006,-3.237706 1.36523,-4.660156 -0.005,-1.422449 -0.48389,-2.653593 -1.51172,-3.251953 -0.5143,-0.299434 -1.09937,-0.398994 -1.70898,-0.335938 z m 0.0254,0.337891 c 0.54978,-0.05799 1.06609,0.03352 1.51172,0.292969 1.7825,1.0377 1.79374,4.370665 0.0234,7.447265 -1.78251,3.0767 -4.66419,4.736538 -6.45899,3.710938 -1.7824,-1.0377 -1.79374,-4.370666 -0.0234,-7.447266 1.33687,-2.3166 3.29792,-3.829925 4.94726,-4.003906 z m 0.0273,0.33789 c -0.48995,0.05293 -1.02431,0.239631 -1.57618,0.556641 -1.10375,0.634019 -2.2389,1.781062 -3.10351,3.279297 -0.85849,1.491972 -1.27939,3.043731 -1.27539,4.316406 0.004,1.272675 0.42116,2.226681 1.17578,2.666016 0.76049,0.433556 1.79286,0.315289 2.89453,-0.31836 1.10185,-0.633746 2.23313,-1.776282 3.09765,-3.267578 0.85849,-1.491974 1.2794,-3.045686 1.2754,-4.318359 -0.004,-1.272674 -0.42112,-2.226676 -1.17579,-2.666016 -0.37695,-0.219467 -0.82254,-0.300976 -1.31249,-0.248047 z m 32.35546,8.353516 c 1.42972,0.224365 2.8134,0.645717 4.07032,1.332031 3.992,2.1366 6.75223,6.543291 7.24023,10.962891 0.11,1.0866 0.0243,2.197144 -0.30469,3.027344 -0.367,0.8547 -0.80578,1.172865 -1.55078,1.197265 -0.403,0 -0.80675,-0.08595 -1.34375,-0.28125 -0.549,-0.1953 -1.07294,-0.402284 -1.58594,-0.646484 -1.025,-0.4762 -1.97831,-1.086822 -2.82031,-1.794922 -1.709,-1.4162 -2.90741,-3.333112 -3.56641,-5.445312 -0.647,-2.1365 -0.75645,-4.455763 -0.43945,-6.726563 0.077,-0.544773 0.18041,-1.087154 0.30078,-1.625 z m -15.7539,15.638672 c -0.66088,0.117512 -1.40286,0.478884 -2.06836,1.052734 -1.33,1.1476 -1.8676,2.722025 -1.1836,3.515625 0.684,0.7936 2.32135,0.501116 3.65235,-0.646484 1.33,-1.1476 1.86759,-2.723978 1.18359,-3.517578 -0.342,-0.3968 -0.92311,-0.521809 -1.58398,-0.404297 z m -42.04294,1.25 c -0.45935,-0.0702 -0.93545,-0.01523 -1.375,0.265625 -0.8424,0.5982 -0.95362,1.745519 -0.79492,2.636719 0.171,0.9401 0.58584,1.795834 1.12304,2.552734 0.5738,0.7326 1.25917,1.392431 2.10157,1.832031 0.8058,0.4151 1.92761,0.658238 2.75781,0.02344 0.7936,-0.6715 0.76962,-1.75721 0.57422,-2.599609 -0.1953,-0.8791 -0.62296,-1.68595 -1.16016,-2.40625 0.5127,0.732599 0.91552,1.550587 1.07422,2.429687 0.1588,0.8546 0.0138,1.868031 -0.66992,2.332031 -0.7082,0.4517 -1.61221,0.18316 -2.32031,-0.24414 -0.7448,-0.4151 -1.35487,-1.050675 -1.85547,-1.734375 -0.5005,-0.6837 -0.91651,-1.453004 -1.09961,-2.283203 -0.1953,-0.793601 -0.18363,-1.744051 0.45117,-2.28125 0.6471,-0.5127 1.64887,-0.354072 2.41797,0.04883 0.7936,0.4029 1.45255,1.024321 2.00195,1.732422 -0.5128,-0.7203 -1.15952,-1.37886 -1.95312,-1.81836 -0.37235,-0.21975 -0.81409,-0.416128 -1.27344,-0.486328 z m 66.5039,15.630859 c 0.78194,0.05832 1.5623,0.139811 2.34375,0.205079 -0.0556,0.113157 -0.11963,0.220403 -0.16796,0.33789 -0.22,0.5127 -0.35324,1.074156 -0.36524,1.660156 -0.012,0.5739 0.17038,1.221547 0.60938,1.685547 0.464,0.4395 1.08587,0.646485 1.67187,0.646485 0.586,0.0123 1.14688,-0.121107 1.67188,-0.316407 1.05,-0.4151 1.9305,-1.099559 2.6875,-1.880859 0.4179,-0.445164 0.77586,-0.937399 1.08984,-1.455078 0.92409,0.110993 1.84817,0.222494 2.77148,0.34375 -0.68165,0.975444 -1.47347,1.871235 -2.33398,2.673828 -1.489,1.3186 -3.19897,2.417425 -5.04297,3.015625 -1.782,0.6105 -3.93123,0.720419 -5.11523,-0.488281 -1.185,-1.2209 -1.01419,-3.356653 -0.36719,-5.126953 0.15342,-0.442467 0.33893,-0.876624 0.54687,-1.300782 z m 2.93164,0.25586 c 1.75468,0.150565 3.51203,0.271311 5.26368,0.458984 0.37839,0.04374 0.75639,0.09546 1.13476,0.140625 -0.33009,0.448416 -0.70396,0.863661 -1.11133,1.238281 -0.781,0.6959 -1.68343,1.270491 -2.64843,1.587891 -0.928,0.3419 -2.0645,0.389287 -2.6875,-0.257812 -0.635,-0.6226 -0.54736,-1.757747 -0.19336,-2.685547 0.0603,-0.167862 0.16679,-0.319316 0.24218,-0.482422 z m -24.96484,3.11914 c -2.601,0.1587 -5.14066,1.013957 -7.47266,2.222657 -2.295,1.2575 -4.48071,2.868296 -6.1289,5.029296 -0.8058,1.0866 -1.50099,2.307901 -1.86719,3.6875 -0.3541,1.367401 -0.30583,2.978785 0.45117,4.333985 0.7936,1.3186 2.16211,2.186434 3.5293,2.552734 1.38,0.3662 2.78395,0.37745 4.12695,0.21875 2.698,-0.3418 5.18788,-1.427522 7.42188,-2.794922 2.21,-1.4162 4.21301,-3.188128 5.66601,-5.361328 0.732,-1.0622 1.31705,-2.258125 1.62305,-3.515625 0.305,-1.2575 0.20727,-2.636084 -0.42773,-3.771484 0.623,1.1354 0.69618,2.514947 0.36718,3.748047 -0.33,1.2453 -0.98909,2.38075 -1.74609,3.40625 -1.563,2.0511 -3.66277,3.601847 -5.88477,4.810547 -2.246,1.1599 -4.68829,1.976546 -7.15429,2.123046 -1.221,0.0977 -2.45346,-3.78e-4 -3.56446,-0.330078 -1.1114,-0.3174 -2.05264,-0.975406 -2.58984,-1.878906 -0.5128,-0.9156 -0.6226,-2.0643 -0.3418,-3.1875 0.2808,-1.1232 0.80607,-2.232694 1.50196,-3.246094 1.3679,-2.0633 3.29787,-3.773225 5.42187,-5.140625 2.161,-1.3186 4.55252,-2.367665 7.10352,-2.697265 1.27,-0.1466 2.57726,-0.146588 3.82226,0.195312 1.233,0.3418 2.38146,1.086266 3.06446,2.197266 -0.659,-1.1232 -1.80746,-1.892094 -3.06446,-2.246094 -1.245,-0.3663 -2.56342,-0.453169 -3.85742,-0.355469 z M 16.60546,66.023444 c -2.38071,0.0732 -5.08993,0.354669 -7.71484,2.417969 -1.26973,1.0256 -2.31928,2.637438 -2.68555,4.273438 -0.20755,0.818 -0.26855,1.612184 -0.29297,2.271484 -0.0122,0.7081 0.0483,1.427556 0.15821,2.160156 0.42731,2.9911 2.47816,5.763488 4.77343,7.179688 2.29527,1.501695 4.71357,2.147472 7.03321,2.513672 4.6638,0.6105 9.17951,0.110593 13.41601,-1.378907 -4.3341,-0.988895 -8.52044,-1.880093 -12.24414,-3.308593 -1.8435,-0.6959 -3.54132,-1.562291 -4.75,-2.587891 -1.20867,-1.0621 -1.80661,-2.09995 -2.00195,-3.40625 -0.0366,-0.3297 -0.0488,-0.684481 -0.0488,-1.050781 0,-0.4151 0.0234,-0.707935 0.0723,-0.927735 0.12209,-0.4639 0.24556,-0.769937 0.59961,-1.148437 0.6837,-0.7814 2.39282,-1.489197 4.23633,-1.904297 3.7726,-0.8424 8.08276,-1.050253 12.53906,-1.501953 -1.9413,-1.1843 -4.04164,-2.0024 -6.21484,-2.625 -2.1854,-0.6105 -4.4576,-1.000963 -6.875,-0.976563 z m 100.38477,2.957032 c -0.34037,-0.02594 -0.6873,-0.02079 -1.0293,0.0098 -1.367,0.0976 -2.69696,0.536975 -3.91796,1.171875 -1.208,0.6593 -2.35594,1.503272 -3.21094,2.638672 -0.415,0.5738 -0.76985,1.207435 -0.96485,1.927734 -0.195,0.708101 -0.17029,1.551185 0.22071,2.271485 0.427,0.6959 1.14747,1.146978 1.85547,1.330078 0.721,0.1954 1.45215,0.207966 2.16015,0.134766 1.417,-0.1832 2.72253,-0.744544 3.89453,-1.464844 1.16,-0.7448 2.21147,-1.673194 2.98047,-2.808594 0.391,-0.5617 0.70819,-1.17225 0.86719,-1.84375 0.159,-0.6593 0.10958,-1.390562 -0.23242,-1.976562 0.33,0.5982 0.35264,1.318225 0.18164,1.953125 -0.171,0.6592 -0.50034,1.257722 -0.90234,1.794922 -0.818,1.086599 -1.9279,1.892543 -3.0879,2.527343 -1.185,0.6105 -2.46671,1.037647 -3.76171,1.123047 -1.245,0.1221 -2.66066,-0.171256 -3.22266,-1.160156 -0.574,-0.9889 -0.12167,-2.357213 0.61133,-3.382813 0.72,-1.0621 1.72075,-1.965247 2.84375,-2.685547 1.124,-0.695899 2.37965,-1.245015 3.72265,-1.416015 0.672,-0.0732 1.35496,-0.06153 2.00196,0.109375 0.647,0.1709 1.24728,0.562819 1.61328,1.136719 -0.342,-0.5861 -0.941,-1.001485 -1.625,-1.208985 -0.3235,-0.0977 -0.65767,-0.155703 -0.99805,-0.18164 z m -39.29297,1.003906 c -2.65695,-0.160389 -4.86295,0.8372 -5.16211,2.460937 -0.354,1.868 1.91651,3.845641 5.06641,4.431641 3.1499,0.5861 5.98241,-0.450459 6.32421,-2.318359 0.3541,-1.868 -1.9165,-3.845541 -5.0664,-4.431641 -0.39373,-0.07173 -0.78255,-0.119665 -1.16211,-0.142578 z M 31.28124,85.742194 c -0.0855,1.8924 0.14688,3.796644 0.67188,5.652344 0.525,1.8558 1.428,3.576409 2.4414,5.22461 2.1121,3.2476 4.90912,6.006582 7.94922,8.363282 6.141,4.688 13.18499,7.985 20.40039,10.5 14.5042,5.018 29.8507,6.9472 45.0879,7.0332 15.08849,-0.0852 30.29388,-1.98814 44.66211,-6.89844 v -3.72851 c -0.22958,0.0711 -0.45571,0.15474 -0.68555,0.22461 -7.106,2.087 -14.40753,3.56547 -21.76953,4.48047 -3.687,0.44 -7.37494,0.81683 -11.08594,1.04882 -3.699,0.232 -7.42276,0.31836 -11.13476,0.31836 -3.71119,0 -7.42131,-0.0864 -11.13282,-0.31836 -3.7115,-0.244 -7.39884,-0.59654 -11.08594,-1.06054 -7.3741,-0.916 -14.66393,-2.39442 -21.76953,-4.48242 -7.0689,-2.148 -14.02786,-4.88155 -20.19336,-8.93555 -3.1011,-1.98961 -5.92149,-4.408244 -8.21679,-7.277344 -2.2708,-2.8813 -3.87008,-6.359732 -4.13868,-10.144532 z" />
</svg>
