<svg width="16" height="16" viewBox="0 0 16 16" fill="none" xmlns="http://www.w3.org/2000/svg">
<path fill-rule="evenodd" clip-rule="evenodd" d="M0.25 7.125C0.25 3.32805 3.32805 0.25 7.125 0.25C10.9219 0.25 14 3.32804 14 7.125C14 7.9781 13.7927 8.91476 13.4555 9.76708C13.2169 10.3699 12.9022 10.9588 12.5234 11.4627L15.5303 14.4697C15.8232 14.7626 15.8232 15.2374 15.5303 15.5303C15.2374 15.8232 14.7626 15.8232 14.4697 15.5303L11.4648 12.5254C10.2778 13.4395 8.66799 14 7.125 14C3.32804 14 0.25 10.9219 0.25 7.125ZM7.125 1.75C4.15647 1.75 1.75 4.15647 1.75 7.125C1.75 10.0935 4.15648 12.5 7.125 12.5C8.55381 12.5 10.0622 11.8761 10.97 10.9693L10.9741 10.9653L10.9741 10.9653C11.3901 10.5562 11.7773 9.93131 12.0607 9.21522C12.3431 8.50149 12.5 7.753 12.5 7.125C12.5 4.15648 10.0935 1.75 7.125 1.75Z" fill="#001833"/>
</svg>
