<svg width="167" height="164" viewBox="0 0 167 164" fill="none" xmlns="http://www.w3.org/2000/svg">
<path d="M5.80546 27.1536L21.8944 10.3717C27.3066 5.62157 34.288 2.99919 41.5195 3H62.0538C64.9818 2.99974 67.8294 3.94894 70.1613 5.70254L80.1612 13.2183C82.3323 14.8527 84.9839 15.7382 87.711 15.7395H108.097C110.88 15.7396 113.612 16.4781 116.008 17.8782C118.405 19.2783 120.379 21.2889 121.726 23.7007L137.606 52.1428C138.757 54.204 140.444 55.9223 142.492 57.1188C144.541 58.3154 146.875 58.9465 149.253 58.9466H154.354C158.259 58.9466 160.416 63.4356 157.952 66.4383L136.617 92.4505C135.782 93.4683 135.22 94.6781 134.983 95.9681C134.746 97.2581 134.841 98.5865 135.259 99.8305L139.195 111.521C140.073 114.128 139.983 116.96 138.941 119.507C137.899 122.054 135.974 124.15 133.511 125.416L128.479 128.004C126.338 129.103 124.666 130.927 123.769 133.145L117.986 147.468C116.015 152.349 112.613 156.533 108.218 159.479C103.823 162.426 98.6373 164.001 93.3298 164H90.8277C89.5146 164 88.2276 163.636 87.1119 162.951C85.9962 162.265 85.0961 161.284 84.5131 160.118L68.3454 127.814C67.4028 125.932 66.9714 123.839 67.0937 121.741C67.2159 119.644 67.8875 117.614 69.0424 115.851L70.1516 114.16C71.7374 111.74 72.4405 108.856 72.1441 105.986C71.8478 103.116 70.5699 100.432 68.5224 98.3802L61.1276 90.9737C60.0275 89.5055 59.3806 87.7529 59.2653 85.9281C59.15 84.1033 59.5712 82.2845 60.4779 80.6918L62.4951 77.15C62.7881 76.6358 62.94 76.0545 62.9357 75.464C62.9314 74.8735 62.771 74.2944 62.4705 73.7844C62.17 73.2744 61.7398 72.8512 61.2228 72.557C60.7058 72.2628 60.1201 72.1078 59.5238 72.1075H26.2694C11.7612 72.1075 0 60.4533 0 46.0786V41.556C0.000628346 36.1959 2.07871 31.0405 5.80546 27.1536Z" fill="#001F41"/>
<path d="M157.248 117.195L157.275 117.248C157.699 118.088 157.943 119.002 157.991 119.936C158.039 120.87 157.891 121.804 157.555 122.68L150.44 141.243C150.13 142.052 149.572 142.75 148.842 143.243C148.112 143.736 147.245 144 146.356 144C145.201 144 144.093 143.554 143.276 142.759C142.459 141.965 142 140.888 142 139.764V124.944C142 124.129 142.198 123.325 142.577 122.598C142.957 121.871 143.508 121.242 144.186 120.761L151.246 115.753C151.722 115.416 152.269 115.184 152.847 115.074C153.425 114.963 154.021 114.977 154.592 115.115C155.164 115.252 155.698 115.509 156.157 115.869C156.616 116.228 156.988 116.68 157.248 117.195Z" fill="#001F41"/>
<path d="M134.781 82.6412L134.766 82.7335C134.428 83.7811 128.351 84.6571 120.116 84.941C118.289 85.0042 116.354 85.0414 114.354 85.0414C113.454 85.0414 112.569 85.0347 111.698 85.0213C101.925 84.8728 94.3204 83.9175 93.9371 82.7375L93.922 82.6452C93.922 81.3217 103.067 80.249 114.349 80.249C125.63 80.249 134.781 81.3177 134.781 82.6412Z" fill="#56303C"/>
<path d="M105.209 83.5863C105.863 83.5863 106.392 83.0566 106.392 82.4033C106.392 81.7499 105.863 81.2202 105.209 81.2202C104.556 81.2202 104.026 81.7499 104.026 82.4033C104.026 83.0566 104.556 83.5863 105.209 83.5863Z" fill="white"/>
<path d="M120.424 85.2478C118.597 85.3111 116.662 85.3482 114.662 85.3482C113.759 85.3482 112.875 85.3412 112.006 85.3281C112.16 83.3353 113.987 81.762 116.22 81.762C118.42 81.759 120.23 83.2922 120.424 85.2478Z" fill="white"/>
<path d="M124.914 88.1195C126.389 88.1195 127.585 87.0198 127.585 85.6632C127.585 84.3065 126.389 83.2068 124.914 83.2068C123.44 83.2068 122.244 84.3065 122.244 85.6632C122.244 87.0198 123.44 88.1195 124.914 88.1195Z" fill="white"/>
<path d="M134.766 82.7332L134.044 87.1482C133.281 91.8204 130.882 96.0691 127.275 99.135C123.667 102.201 119.087 103.884 114.353 103.884C109.619 103.884 105.039 102.201 101.432 99.135C97.8248 96.0691 95.4253 91.8204 94.6622 87.1482L93.9418 82.7332C94.3201 83.9092 101.925 84.8684 111.702 85.0169C112.572 85.0297 113.457 85.0363 114.358 85.037C116.359 85.037 118.294 85.0029 120.121 84.9367C128.351 84.6567 134.428 83.7807 134.766 82.7332Z" fill="#0066DA"/>
<path d="M92.6807 117.102V105.344C92.6809 101.833 94.0608 98.4633 96.5228 95.9608L106.449 85.8714C106.507 85.8115 106.578 85.7651 106.656 85.7351C106.735 85.7051 106.818 85.6924 106.902 85.6977C106.986 85.703 107.067 85.7263 107.141 85.766C107.215 85.8057 107.279 85.8608 107.33 85.9276L107.369 85.9787C107.638 86.3347 107.808 86.7559 107.861 87.1992C107.914 87.6425 107.848 88.0919 107.67 88.5013L106.405 91.9049C106.323 92.1248 106.303 92.363 106.347 92.5936C106.391 92.8242 106.498 93.0383 106.655 93.2126C106.812 93.3869 107.014 93.5148 107.239 93.5824C107.463 93.6499 107.702 93.6545 107.93 93.5957L123.849 89.4586C124.091 89.3825 124.353 89.4008 124.582 89.5099C124.811 89.619 124.99 89.8107 125.083 90.0466L125.092 90.0687C125.19 90.3147 125.191 90.5892 125.092 90.8353C124.994 91.0814 124.805 91.2804 124.564 91.3912C123.199 92.0173 120.742 93.1472 120.742 93.1472L126.462 91.2587C126.741 91.1679 127.044 91.1885 127.308 91.3162C127.572 91.444 127.777 91.669 127.879 91.9441L127.889 91.9701C127.993 92.2499 127.986 92.5588 127.869 92.8336C127.753 93.1084 127.536 93.3283 127.263 93.4482C125.448 94.2429 121.813 95.8413 121.756 95.8664L126.01 94.5509C126.252 94.4763 126.514 94.495 126.743 94.6035C126.972 94.7119 127.152 94.9023 127.247 95.1369L127.256 95.159C127.353 95.3944 127.36 95.6573 127.277 95.8978C127.193 96.1383 127.024 96.3396 126.801 96.4635L120.135 100.176C120.087 100.204 120.049 100.247 120.029 100.299C120.009 100.351 120.007 100.408 120.024 100.461C120.04 100.514 120.075 100.56 120.121 100.591C120.168 100.622 120.223 100.636 120.279 100.631L125.376 100.115C126.185 100.033 126.454 101.168 125.694 101.457L107.811 108.281C107.56 108.377 107.349 108.557 107.215 108.79C107.082 109.024 107.033 109.297 107.078 109.562L108.25 116.532L92.6807 117.102Z" fill="#B4702F"/>
<path fill-rule="evenodd" clip-rule="evenodd" d="M122.064 92.7315C122.114 92.8888 122.026 93.0563 121.869 93.1055L117.407 94.5002C117.25 94.5494 117.083 94.4618 117.033 94.3044C116.984 94.147 117.072 93.9796 117.229 93.9304L121.69 92.5357C121.848 92.4865 122.015 92.5741 122.064 92.7315Z" fill="#56303C"/>
<path fill-rule="evenodd" clip-rule="evenodd" d="M122.531 95.6272C122.581 95.7846 122.493 95.952 122.336 96.0012L118.653 97.1532C118.496 97.2024 118.328 97.1147 118.279 96.9574C118.23 96.8 118.318 96.6326 118.475 96.5833L122.157 95.4314C122.315 95.3822 122.482 95.4699 122.531 95.6272Z" fill="#56303C"/>
<path fill-rule="evenodd" clip-rule="evenodd" d="M124.007 90.146C123.864 90.2896 123.864 90.5224 124.007 90.6661C124.151 90.8097 124.384 90.8097 124.527 90.6661C124.671 90.5224 124.671 90.2896 124.527 90.146C124.384 90.0024 124.151 90.0024 124.007 90.146ZM123.662 91.0116C123.327 90.6771 123.327 90.1349 123.662 89.8004C123.996 89.466 124.538 89.466 124.873 89.8004C125.207 90.1349 125.207 90.6771 124.873 91.0116C124.538 91.346 123.996 91.346 123.662 91.0116Z" fill="#56303C"/>
<path fill-rule="evenodd" clip-rule="evenodd" d="M126.142 95.4242C126.095 95.6219 126.218 95.82 126.415 95.8666C126.613 95.9133 126.811 95.7909 126.858 95.5932C126.904 95.3955 126.782 95.1974 126.584 95.1508C126.387 95.1041 126.189 95.2266 126.142 95.4242ZM126.303 96.3422C125.843 96.2336 125.558 95.7723 125.666 95.312C125.775 94.8516 126.236 94.5665 126.697 94.6752C127.157 94.7838 127.442 95.2451 127.333 95.7054C127.225 96.1658 126.763 96.4509 126.303 96.3422Z" fill="#56303C"/>
<path fill-rule="evenodd" clip-rule="evenodd" d="M125.236 100.736C125.203 100.875 125.289 101.015 125.429 101.048C125.568 101.081 125.708 100.994 125.741 100.855C125.773 100.716 125.687 100.576 125.548 100.543C125.408 100.51 125.269 100.596 125.236 100.736ZM125.329 101.471C124.956 101.383 124.725 101.009 124.813 100.636C124.901 100.263 125.275 100.032 125.648 100.12C126.02 100.208 126.251 100.582 126.163 100.955C126.075 101.328 125.702 101.559 125.329 101.471Z" fill="#56303C"/>
<path fill-rule="evenodd" clip-rule="evenodd" d="M126.547 92.1686C126.488 92.4213 126.644 92.6745 126.897 92.7341C127.149 92.7938 127.403 92.6373 127.462 92.3846C127.522 92.1319 127.365 91.8787 127.113 91.8191C126.86 91.7594 126.607 91.9159 126.547 92.1686ZM126.784 93.2097C126.269 93.0881 125.95 92.5717 126.072 92.0564C126.193 91.541 126.71 91.2218 127.225 91.3435C127.74 91.4651 128.059 91.9815 127.938 92.4968C127.816 93.0122 127.3 93.3314 126.784 93.2097Z" fill="#56303C"/>
<path fill-rule="evenodd" clip-rule="evenodd" d="M106.563 85.6613C106.664 85.5715 106.818 85.5804 106.908 85.6811C107.134 85.9347 107.258 86.2633 107.255 86.6029C107.252 86.9426 107.123 87.269 106.893 87.5187C106.662 87.7685 106.348 87.9236 106.009 87.954C105.671 87.9845 105.333 87.888 105.062 87.6833C104.955 87.602 104.933 87.4488 105.015 87.3411C105.096 87.2334 105.249 87.212 105.357 87.2933C105.531 87.4249 105.748 87.4869 105.965 87.4673C106.183 87.4478 106.385 87.348 106.533 87.1875C106.681 87.027 106.764 86.8171 106.766 86.5988C106.768 86.3805 106.689 86.1693 106.543 86.0063C106.454 85.9055 106.462 85.7511 106.563 85.6613Z" fill="#56303C"/>
<path d="M112.627 128.821C112.627 130.379 108.07 131.644 102.45 131.644C98.345 131.644 94.807 130.969 93.1985 129.998C92.6044 129.64 92.2733 129.241 92.2733 128.821V118.987H89.8972L91.1435 112.317L110.05 114.837L111.131 118.987H109.516L112.575 128.52L112.606 128.62C112.613 128.648 112.619 128.675 112.623 128.704C112.627 128.742 112.628 128.782 112.627 128.821Z" fill="#7FB0E8"/>
<path d="M109.514 118.985H95.8605L110.064 120.699L109.514 118.985Z" fill="#56303C"/>
<path fill-rule="evenodd" clip-rule="evenodd" d="M108.06 0.0298947C108.245 -0.0498559 108.46 0.0354521 108.539 0.220435L130.481 51.1149C130.561 51.2999 130.476 51.5145 130.291 51.5943C130.106 51.674 129.891 51.5887 129.811 51.4037L107.87 0.509238C107.79 0.324254 107.875 0.109645 108.06 0.0298947Z" fill="#56303C"/>
<path d="M132.677 56.3298C132.676 58.7104 131.854 61.0179 130.349 62.8624C128.844 64.7068 126.748 65.9752 124.416 66.453C122.084 66.9309 119.658 66.589 117.549 65.4851C115.44 64.3813 113.777 62.5831 112.84 60.3945C111.903 58.2059 111.751 55.761 112.409 53.473C113.066 51.1851 114.494 49.1943 116.449 47.8371C118.405 46.4799 120.77 45.8394 123.143 46.0241C125.517 46.2087 127.753 47.207 129.476 48.8503C130.488 49.8156 131.293 50.9762 131.843 52.2618C132.393 53.5475 132.677 54.9314 132.677 56.3298Z" fill="#7FB0E8"/>
<path d="M123.222 59.7725C119.255 61.6369 115.061 61.5154 112.575 59.7334C111.808 57.5417 111.8 55.1552 112.555 52.9589C113.309 50.7625 114.781 48.8843 116.734 47.627C118.686 46.3697 121.005 45.8066 123.317 46.0285C125.629 46.2504 127.798 47.2445 129.476 48.8503C129.488 48.8754 129.5 48.8994 129.511 48.9245C131.19 52.4917 128.373 57.3492 123.222 59.7725Z" fill="#56303C"/>
<path d="M107.826 61.393C107.826 60.0121 108.186 58.655 108.871 57.4558C109.555 56.2566 110.541 55.2567 111.73 54.5548C112.919 53.853 114.271 53.4734 115.652 53.4537C117.033 53.434 118.395 53.7747 119.603 54.4423L124.395 58.3486C123.066 59.6079 120.255 60.0072 119.083 60.4989C117.999 60.9535 117.297 62.2961 117.297 63.4711V84.8921C116.547 84.8921 115.807 85.0416 115.079 85.0316C112.484 84.9914 110.036 85.0316 107.827 84.8961L107.826 61.393Z" fill="white"/>
<path fill-rule="evenodd" clip-rule="evenodd" d="M106.586 63.5317C106.722 63.5317 106.832 63.642 106.832 63.7781V71.1823C106.832 71.3184 106.722 71.4287 106.586 71.4287C106.45 71.4287 106.34 71.3184 106.34 71.1823V63.7781C106.34 63.642 106.45 63.5317 106.586 63.5317Z" fill="white"/>
<path d="M164.983 18.2236L128.706 7.11073C127.304 6.68214 125.827 6.55292 124.372 6.73143L109.427 8.57271C109.23 8.59681 109.043 8.67243 108.885 8.79194C108.726 8.91144 108.602 9.0706 108.525 9.25333C108.448 9.43606 108.421 9.63589 108.446 9.83263C108.471 10.0294 108.547 10.2161 108.667 10.3738C109.104 10.9485 109.659 11.4238 110.293 11.7682C110.928 12.1126 111.629 12.3183 112.349 12.3717L119.611 12.9105C119.68 12.9127 119.745 12.9381 119.797 12.9825C119.849 13.0269 119.885 13.0876 119.898 13.1548C119.91 13.222 119.9 13.2915 119.868 13.352C119.836 13.4124 119.785 13.4602 119.722 13.4875L111.073 17.7018L111.535 15.9177C111.596 15.6805 111.602 15.4324 111.553 15.1925C111.503 14.9525 111.4 14.727 111.25 14.5333C111.1 14.3396 110.907 14.1828 110.687 14.0749C110.467 13.967 110.226 13.9109 109.981 13.9109C109.694 13.911 109.412 13.9856 109.163 14.1276C108.913 14.2696 108.705 14.474 108.559 14.7207L106.04 18.9641C105.637 19.644 105.488 20.4451 105.62 21.2246C105.752 22.004 106.157 22.7111 106.763 23.2196L117.469 32.2133C118.449 33.0361 119.639 33.5678 120.906 33.7482C122.172 33.9285 123.464 33.7503 124.635 33.2338L135.572 28.4033L159.363 41.6916C159.363 41.6916 169.689 31.9484 164.983 18.2236Z" fill="#B4702F"/>
<path fill-rule="evenodd" clip-rule="evenodd" d="M111.429 17.541C111.594 17.5829 111.694 17.7507 111.653 17.9159L110.135 23.903C110.021 24.4011 109.999 24.7307 110.072 25.003C110.143 25.267 110.316 25.5216 110.692 25.838C110.823 25.9476 110.839 26.1422 110.73 26.2727C110.62 26.4032 110.426 26.42 110.295 26.3104C109.867 25.9504 109.592 25.5955 109.476 25.1629C109.363 24.7391 109.414 24.2859 109.535 23.7613L109.535 23.758L111.054 17.7643C111.096 17.5991 111.264 17.4992 111.429 17.541Z" fill="#56303C"/>
<path fill-rule="evenodd" clip-rule="evenodd" d="M119.111 17.7675C118.938 17.6588 118.738 17.6042 118.534 17.6108C118.331 17.6174 118.134 17.6848 117.97 17.8044C117.97 17.8044 117.97 17.8044 117.97 17.8044L110.791 23.0223C110.571 23.1818 110.391 23.3893 110.263 23.629C110.136 23.8687 110.065 24.1344 110.055 24.4057C110.045 24.6771 110.098 24.9471 110.208 25.1952C110.318 25.4433 110.484 25.663 110.692 25.8376C110.822 25.9472 110.839 26.1418 110.73 26.2723C110.62 26.4028 110.425 26.4197 110.295 26.3101C110.015 26.0752 109.793 25.7797 109.644 25.4459C109.496 25.1122 109.425 24.749 109.438 24.384C109.451 24.0189 109.547 23.6616 109.719 23.3392C109.89 23.0167 110.133 22.7376 110.428 22.5229L117.607 17.3052C117.871 17.113 118.188 17.0046 118.514 16.994C118.841 16.9834 119.164 17.0711 119.44 17.2458L119.275 17.5067L119.44 17.246C119.63 17.366 119.793 17.5239 119.919 17.7096C120.044 17.8954 120.131 18.1051 120.172 18.3257C120.213 18.5462 120.208 18.7729 120.158 18.9916C120.108 19.2102 120.013 19.4162 119.88 19.5966L119.879 19.5972L118.374 21.6127C118.272 21.7492 118.078 21.7772 117.942 21.6752C117.805 21.5732 117.777 21.3799 117.879 21.2434L119.383 19.2297C119.384 19.2295 119.384 19.2293 119.384 19.2291C119.467 19.117 119.525 18.9891 119.557 18.8533C119.588 18.7172 119.591 18.5762 119.565 18.439C119.54 18.3018 119.486 18.1713 119.408 18.0558C119.329 17.9403 119.228 17.8422 119.111 17.7675Z" fill="#56303C"/>
<path fill-rule="evenodd" clip-rule="evenodd" d="M122.121 19.2263C121.89 19.0696 121.612 18.9986 121.334 19.0255C121.056 19.0525 120.797 19.1757 120.6 19.3738L120.6 19.374L114.207 25.8089L114.207 25.809C114.002 26.0158 113.841 26.263 113.736 26.5349C113.631 26.8069 113.584 27.0976 113.597 27.3889C113.61 27.6801 113.684 27.9654 113.813 28.2268C113.942 28.4881 114.124 28.7198 114.347 28.9073C114.478 29.0168 114.495 29.2115 114.385 29.342C114.276 29.4725 114.081 29.4895 113.95 29.3799C113.662 29.1376 113.427 28.838 113.26 28.5001C113.093 28.1621 112.998 27.7932 112.981 27.4167C112.964 27.0402 113.025 26.6642 113.161 26.3126C113.297 25.961 113.504 25.6414 113.769 25.374L120.162 18.9393C120.46 18.6389 120.853 18.4522 121.275 18.4113C121.695 18.3705 122.117 18.478 122.467 18.7153C122.854 18.9762 123.125 19.3758 123.224 19.8312C123.324 20.2865 123.244 20.7627 123.002 21.1609L123.002 21.1613M123.002 21.1613L119.106 27.5828C119.017 27.7285 118.827 27.7749 118.682 27.6865C118.536 27.5981 118.49 27.4084 118.578 27.2627L122.474 20.8408L122.475 20.8404C122.634 20.5777 122.687 20.2634 122.621 19.9629C122.556 19.6624 122.377 19.3988 122.122 19.2266L122.295 18.9709L122.121 19.2263" fill="#56303C"/>
<path fill-rule="evenodd" clip-rule="evenodd" d="M123.376 23.9449C123.168 23.819 122.922 23.771 122.682 23.8094C122.441 23.8479 122.223 23.9703 122.064 24.1548C122.064 24.1549 122.064 24.155 122.064 24.155L117.979 28.939C117.782 29.169 117.633 29.4357 117.54 29.7236C117.446 30.0116 117.411 30.3151 117.436 30.6168C117.461 30.9184 117.545 31.2122 117.683 31.4812C117.822 31.7502 118.013 31.9891 118.244 32.1841C118.374 32.2939 118.391 32.4886 118.281 32.6189C118.171 32.7492 117.977 32.7658 117.846 32.656C117.553 32.4085 117.311 32.1053 117.135 31.764C116.959 31.4226 116.852 31.0498 116.821 30.6671C116.79 30.2843 116.834 29.8991 116.952 29.5337C117.071 29.1683 117.26 28.83 117.509 28.5381C117.509 28.5381 117.51 28.538 117.51 28.538L121.596 23.7533C121.849 23.4577 122.2 23.2616 122.584 23.2001C122.969 23.1386 123.363 23.2155 123.696 23.4173L123.697 23.4179C124.034 23.6241 124.286 23.9453 124.406 24.3224C124.527 24.6995 124.506 25.1072 124.35 25.4707C124.35 25.4708 124.35 25.4708 124.35 25.4709L121.741 31.5434C121.674 31.7 121.493 31.7724 121.336 31.7051C121.179 31.6379 121.107 31.4564 121.174 31.2998L123.783 25.227C123.881 24.9999 123.893 24.7452 123.818 24.5096C123.744 24.2742 123.586 24.0737 123.376 23.9449Z" fill="#56303C"/>
<path fill-rule="evenodd" clip-rule="evenodd" d="M112.17 8.29529C112.339 8.2757 112.492 8.39705 112.512 8.56633C112.539 8.80529 112.52 9.04736 112.454 9.27871C112.388 9.51007 112.277 9.72618 112.128 9.9147C111.978 10.1032 111.793 10.2605 111.583 10.3775C111.373 10.4945 111.142 10.5689 110.903 10.5966C110.664 10.6242 110.422 10.6045 110.19 10.5386C109.959 10.4727 109.743 10.3619 109.554 10.2125C109.366 10.0631 109.209 9.87798 109.092 9.66778C108.975 9.45759 108.9 9.22642 108.872 8.98746C108.853 8.81818 108.974 8.66507 109.143 8.64548C109.313 8.62589 109.466 8.74724 109.485 8.91652C109.504 9.07498 109.553 9.22828 109.631 9.36766C109.708 9.50704 109.813 9.62977 109.938 9.72886C110.063 9.82794 110.206 9.90143 110.359 9.94513C110.513 9.98883 110.673 10.0019 110.832 9.98354C110.99 9.96521 111.143 9.91584 111.283 9.83826C111.422 9.76068 111.545 9.6564 111.644 9.53139C111.743 9.40637 111.817 9.26307 111.86 9.10966C111.904 8.95624 111.917 8.79572 111.899 8.63726C111.879 8.46798 112.001 8.31488 112.17 8.29529Z" fill="#56303C"/>
<path fill-rule="evenodd" clip-rule="evenodd" d="M119.832 12.9547C119.962 12.8452 120.157 12.8623 120.266 12.9928L120.03 13.1911C120.266 12.9928 120.266 12.9928 120.266 12.9927L120.266 12.9928L120.266 12.9931L120.268 12.9949C120.27 12.9968 120.272 12.9997 120.276 13.0037C120.282 13.0117 120.293 13.0239 120.307 13.0402C120.336 13.0728 120.379 13.1215 120.437 13.1842C120.553 13.3096 120.726 13.4909 120.953 13.7114C121.407 14.1525 122.077 14.7495 122.936 15.3694C124.655 16.6104 127.118 17.9337 130.113 18.2932C130.282 18.3135 130.403 18.4671 130.382 18.6363C130.362 18.8055 130.209 18.9262 130.039 18.9059C126.907 18.5299 124.347 17.149 122.575 15.8697C121.688 15.2294 120.995 14.6122 120.523 14.1542C120.287 13.9251 120.106 13.7355 119.983 13.6025C119.922 13.536 119.875 13.4836 119.844 13.4473C119.828 13.4292 119.815 13.4152 119.807 13.4054C119.803 13.4006 119.8 13.3968 119.797 13.3941L119.795 13.3909L119.794 13.3899L119.794 13.3896C119.794 13.3895 119.793 13.3894 120.03 13.1911L119.793 13.3894C119.684 13.2588 119.701 13.0642 119.832 12.9547Z" fill="#56303C"/>
<path fill-rule="evenodd" clip-rule="evenodd" d="M139.456 25.7789C139.551 25.9201 139.514 26.1119 139.373 26.2073L135.745 28.6577C135.604 28.7531 135.412 28.7159 135.317 28.5747C135.222 28.4335 135.259 28.2417 135.4 28.1463L139.027 25.696C139.169 25.6006 139.36 25.6377 139.456 25.7789Z" fill="#56303C"/>
<path fill-rule="evenodd" clip-rule="evenodd" d="M110.094 14.5148C109.708 14.5148 109.394 14.8281 109.394 15.2147C109.394 15.6012 109.708 15.9145 110.094 15.9145C110.481 15.9145 110.794 15.6012 110.794 15.2147C110.794 14.8281 110.481 14.5148 110.094 14.5148ZM108.833 15.2147C108.833 14.5183 109.398 13.9539 110.094 13.9539C110.79 13.9539 111.355 14.5183 111.355 15.2147C111.355 15.911 110.79 16.4755 110.094 16.4755C109.398 16.4755 108.833 15.911 108.833 15.2147Z" fill="#56303C"/>
<path fill-rule="evenodd" clip-rule="evenodd" d="M118.378 17.7948C118.021 17.9427 117.851 18.3521 117.999 18.7092C118.147 19.0663 118.557 19.2359 118.914 19.088C119.271 18.9401 119.441 18.5306 119.293 18.1735C119.145 17.8164 118.735 17.6468 118.378 17.7948ZM117.481 18.9239C117.215 18.2805 117.52 17.543 118.163 17.2765C118.807 17.0101 119.544 17.3156 119.811 17.9589C120.077 18.6022 119.772 19.3397 119.128 19.6062C118.485 19.8727 117.748 19.5672 117.481 18.9239Z" fill="#56303C"/>
<path fill-rule="evenodd" clip-rule="evenodd" d="M120.826 19.8025C120.754 20.247 121.055 20.6657 121.5 20.7379C121.944 20.81 122.363 20.5082 122.435 20.0638C122.507 19.6193 122.206 19.2005 121.761 19.1284C121.317 19.0562 120.898 19.3581 120.826 19.8025ZM121.41 21.2915C120.66 21.1698 120.15 20.4629 120.272 19.7126C120.394 18.9624 121.101 18.4529 121.851 18.5747C122.601 18.6965 123.111 19.4034 122.989 20.1536C122.867 20.9039 122.16 21.4133 121.41 21.2915Z" fill="#56303C"/>
<path fill-rule="evenodd" clip-rule="evenodd" d="M122.957 23.9923C122.57 23.9923 122.257 24.3057 122.257 24.6922C122.257 25.0787 122.57 25.3921 122.957 25.3921C123.343 25.3921 123.657 25.0787 123.657 24.6922C123.657 24.3057 123.343 23.9923 122.957 23.9923ZM121.696 24.6922C121.696 23.9959 122.26 23.4314 122.957 23.4314C123.653 23.4314 124.218 23.9959 124.218 24.6922C124.218 25.3885 123.653 25.953 122.957 25.953C122.26 25.953 121.696 25.3885 121.696 24.6922Z" fill="#56303C"/>
<path d="M162.268 15.4013L167.039 15.1223L166.674 46.8294L157.674 43.7589L162.268 15.4013Z" fill="#0066DA"/>
<path d="M161.062 21.9856L158.121 40.9984L156.27 39.9649L161.062 21.9856Z" fill="#56303C"/>
<path fill-rule="evenodd" clip-rule="evenodd" d="M114.596 15.2123C114.783 15.1314 115.001 15.2175 115.082 15.4047L116.393 18.438C116.474 18.6252 116.388 18.8426 116.201 18.9235C116.014 19.0044 115.796 18.9183 115.715 18.7311L114.404 15.6978C114.323 15.5106 114.409 15.2932 114.596 15.2123Z" fill="#5D2D3C"/>
<path fill-rule="evenodd" clip-rule="evenodd" d="M121.515 31.1987C121.69 31.1242 121.892 31.2059 121.967 31.3811L124.215 36.6711C124.29 36.8463 124.208 37.0487 124.033 37.1231C123.858 37.1976 123.655 37.116 123.581 36.9408L121.332 31.6507C121.258 31.4756 121.34 31.2732 121.515 31.1987Z" fill="#5D2D3C"/>
</svg>
