<svg width="252" height="252" viewBox="0 0 252 252" fill="none" xmlns="http://www.w3.org/2000/svg">
<path d="M242.5 115C242.5 173.542 192.542 228.5 134 228.5C75.4578 228.5 17 173.542 17 115C17 56.4578 75.4578 16 134 16C192.542 16 242.5 56.4578 242.5 115Z" fill="#F5FAFF"/>
<path d="M88.8653 106.752C88.0085 102.433 87.3433 98.0784 86.8695 93.6987C86.5419 90.6696 88.5327 87.8775 91.5063 87.2072C110.779 82.8526 130.864 82.1168 150.792 81.396C153.115 81.3104 155.514 81.2398 157.682 82.0815C159.335 82.7266 160.832 84.0471 161.426 85.67C161.426 85.67 162.918 90.8208 163.498 94.0515C164.077 97.2821 128.288 106.279 128.288 106.279L88.8653 106.752Z" fill="#4E83C0"/>
<path d="M161.431 85.67C160.837 84.0471 159.345 82.7266 157.687 82.0815C155.519 81.2398 153.12 81.3104 150.797 81.396C130.869 82.1117 110.784 82.8526 91.5113 87.2072C89.3441 87.696 87.7061 89.3139 87.0963 91.3248C108.799 87.2374 130.854 85.04 152.939 84.7728C154.058 84.7577 155.227 84.7627 156.175 85.4482C156.573 85.7355 156.88 86.1488 156.996 86.6175C157.641 89.2584 157.399 90.7553 157.399 90.7553C157.399 90.7553 155.106 97.3325 159.244 96.2892C161.245 95.7852 162.066 92.4135 162.349 89.0367C161.86 87.1568 161.431 85.67 161.431 85.67Z" fill="#76ABE9"/>
<path d="M145.001 77.5857C140.757 74.0728 134.23 73.6394 129.558 76.5626C124.886 79.4858 122.417 85.5388 123.712 90.8963C125.007 96.2539 129.972 100.508 135.465 100.966C140.959 101.425 146.563 98.0582 148.73 92.993C150.898 87.9278 149.602 81.3959 145.001 77.5857Z" fill="#FFB928"/>
<path d="M142.143 79.4908C138.701 77.1674 133.777 77.3135 130.476 79.8386C127.174 82.3636 125.748 87.076 127.089 91.0123C128.429 94.9435 132.446 97.8011 136.599 97.781C140.752 97.7608 144.739 94.8628 146.044 90.9165C147.349 86.9702 145.999 82.0915 142.143 79.4908Z" fill="#FFB10F"/>
<path d="M148.73 92.993C149.93 90.1857 150.066 86.9349 149.169 83.9411C149.497 89.3239 147.546 95.7851 141.347 98.3959C134.981 101.077 130.118 98.8444 127.341 97.1409C129.528 99.2779 132.411 100.704 135.465 100.961C140.954 101.43 146.558 98.0582 148.73 92.993Z" fill="#E6A41E"/>
<path d="M129.553 76.5626C126.282 78.6088 124.095 82.1872 123.52 85.9874C124.322 83.2255 126.161 78.8911 131.69 76.618C135.521 75.0405 139.815 75.3177 143.806 76.7289C139.598 74.0325 133.812 73.9015 129.553 76.5626Z" fill="#F5B878"/>
<path fill-rule="evenodd" clip-rule="evenodd" d="M130.246 79.5383C133.676 76.9147 138.778 76.7632 142.355 79.1774C146.36 81.8789 147.758 86.9386 146.403 91.0352C145.047 95.1354 140.917 98.138 136.601 98.159C132.286 98.1799 128.124 95.2193 126.731 91.1343C125.338 87.0447 126.816 82.1622 130.246 79.5383ZM141.932 79.8041C138.624 77.5716 133.878 77.7124 130.705 80.1388C127.533 82.565 126.158 87.1074 127.447 90.8904C128.735 94.6677 132.607 97.4223 136.597 97.403C140.588 97.3836 144.431 94.5902 145.685 90.7978C146.941 87.0017 145.638 82.304 141.932 79.8041Z" fill="#B4702F"/>
<path d="M140.636 87.5951C141.281 88.1899 141.695 89.0416 141.7 89.9891V90.1706C141.71 91.9699 140.248 93.4365 138.449 93.4365H138.368L138.373 94.3991H136.277L136.272 93.4365H135.41L135.415 94.3991H133.318L133.313 93.4365H131.786L131.776 91.3399H132.814L132.784 84.4552H131.746L131.736 82.3586H133.263L133.258 81.1792H135.354L135.359 82.3586H136.216L136.211 81.1792H138.308L138.313 82.3687C139.961 82.4695 141.276 83.8353 141.281 85.5035V85.6749C141.286 86.3956 141.044 87.0609 140.636 87.5951ZM139.603 90.1655V89.9841C139.598 89.339 139.074 88.8148 138.429 88.8148H134.901L134.911 91.3348H138.434C139.084 91.3348 139.603 90.8107 139.603 90.1655ZM134.881 84.4502L134.891 86.7182H138.146C138.726 86.7182 139.195 86.2495 139.19 85.6699V85.4985C139.185 84.9189 138.716 84.4502 138.136 84.4502H134.881Z" fill="#FFF3E5"/>
<path d="M95.4325 87.9933C91.1888 84.4804 84.662 84.047 79.9899 86.9702C75.3178 89.8934 72.8482 95.9464 74.1435 101.304C75.4388 106.661 80.4032 110.915 85.8968 111.374C91.3904 111.832 96.9949 108.466 99.1621 103.401C101.334 98.3354 100.039 91.8035 95.4325 87.9933Z" fill="#FFB928"/>
<path d="M92.5798 89.8984C89.1375 87.575 84.2134 87.7211 80.9122 90.2462C77.611 92.7712 76.1847 97.4836 77.5253 101.42C78.866 105.351 82.8829 108.209 87.0358 108.189C91.1888 108.168 95.1754 105.27 96.4808 101.324C97.7811 97.3778 96.4304 92.5041 92.5798 89.8984Z" fill="#FFB10F"/>
<path d="M99.1621 103.401C100.362 100.593 100.498 97.3425 99.6005 94.3487C99.9281 99.7315 97.9777 106.193 91.7785 108.803C85.4129 111.485 80.5493 109.252 77.7723 107.548C79.9597 109.685 82.8425 111.112 85.8968 111.369C91.3904 111.838 96.9949 108.466 99.1621 103.401Z" fill="#E6A41E"/>
<path d="M79.9899 86.9702C76.7189 89.0164 74.5316 92.5948 73.957 96.395C74.7584 93.6331 76.598 89.2987 82.1269 87.0256C85.9573 85.4481 90.2513 85.7253 94.243 87.1365C90.0346 84.4401 84.2437 84.3091 79.9899 86.9702Z" fill="#FFC243"/>
<path fill-rule="evenodd" clip-rule="evenodd" d="M80.6826 89.9459C84.1127 87.3223 89.2143 87.1708 92.7913 89.5851C96.7906 92.2915 98.1896 97.3459 96.8398 101.442C95.4835 105.543 91.3532 108.546 87.0377 108.567C82.7224 108.588 78.5607 105.627 77.1676 101.542C75.7747 97.4523 77.2522 92.5698 80.6826 89.9459ZM92.3681 90.2115C89.0604 87.9792 84.3141 88.12 81.1419 90.5464C77.9699 92.9726 76.5947 97.515 77.8832 101.298C79.1714 105.075 83.0434 107.83 87.034 107.811C91.0243 107.791 94.8673 104.998 96.1218 101.206C97.3726 97.4095 96.0697 92.7165 92.3681 90.2115Z" fill="#B4702F"/>
<path d="M91.0678 98.0027C91.718 98.5975 92.1262 99.4492 92.1313 100.397V100.578C92.1413 102.377 90.6797 103.844 88.8805 103.844H88.7998L88.8049 104.807H86.7082L86.7032 103.844H85.8413L85.8464 104.807H83.7497L83.7447 103.844H82.2176L82.2075 101.747H83.2457L83.2155 94.8628H82.1773L82.1672 92.7662H83.6943L83.6893 91.5868H85.7859L85.7909 92.7662H86.6528L86.6477 91.5868H88.7444L88.7494 92.7763C90.3975 92.8771 91.7129 94.2429 91.718 95.9111V96.0825C91.723 96.8032 91.4811 97.4685 91.0678 98.0027ZM90.0346 100.578V100.397C90.0296 99.7516 89.5054 99.2275 88.8603 99.2275H85.3323L85.3424 101.747H88.8653C89.5155 101.742 90.0397 101.218 90.0346 100.578ZM85.3121 94.8578L85.3222 97.1258H88.5781C89.1577 97.1258 89.6264 96.6571 89.6213 96.0775V95.9061C89.6163 95.3265 89.1476 94.8578 88.568 94.8578H85.3121Z" fill="#FFF3E5"/>
<path d="M107.493 143.746C103.249 140.233 96.7227 139.799 92.0506 142.723C87.3785 145.646 84.9089 151.699 86.2042 157.056C87.4995 162.414 92.4639 166.668 97.9575 167.126C103.451 167.585 109.056 164.218 111.223 159.153C113.395 154.088 112.095 147.556 107.493 143.746Z" fill="#FFB928"/>
<path d="M104.635 145.656C101.193 143.332 96.2691 143.479 92.9679 146.004C89.6667 148.529 88.2404 153.241 89.581 157.177C90.9217 161.109 94.9385 163.966 99.0915 163.946C103.244 163.926 107.231 161.028 108.536 157.082C109.842 153.135 108.491 148.257 104.635 145.656Z" fill="#FFB10F"/>
<path d="M111.223 159.158C112.422 156.351 112.558 153.1 111.661 150.106C111.989 155.489 110.038 161.95 103.839 164.561C97.4737 167.242 92.6101 165.01 89.833 163.306C92.0204 165.443 94.9033 166.869 97.9575 167.126C103.446 167.59 109.051 164.218 111.223 159.158Z" fill="#E6A41E"/>
<path d="M92.0456 142.723C88.7746 144.769 86.5873 148.347 86.0127 152.147C86.8141 149.386 88.6537 145.051 94.1825 142.778C98.0129 141.201 102.307 141.478 106.299 142.889C102.09 140.193 96.3044 140.062 92.0456 142.723Z" fill="#FFC243"/>
<path fill-rule="evenodd" clip-rule="evenodd" d="M92.7382 145.703C96.1683 143.08 101.27 142.928 104.847 145.343C108.852 148.044 110.25 153.104 108.895 157.2C107.539 161.301 103.409 164.303 99.0933 164.324C94.7781 164.345 90.6163 161.384 89.2233 157.299C87.8304 153.21 89.3078 148.327 92.7382 145.703ZM104.424 145.969C101.116 143.737 96.3698 143.877 93.1975 146.304C90.0256 148.73 88.6504 153.273 89.9388 157.056C91.2271 160.833 95.0991 163.587 99.0897 163.568C103.08 163.549 106.923 160.755 108.178 156.963C109.433 153.167 108.13 148.469 104.424 145.969Z" fill="#B4702F"/>
<path d="M103.129 153.755C103.774 154.35 104.187 155.202 104.192 156.149V156.331C104.202 158.13 102.74 159.597 100.941 159.597H100.861L100.866 160.559H98.7689L98.7639 159.597H97.9021L97.9071 160.559H95.8105L95.8054 159.597H94.2783L94.2682 157.5H95.3065L95.2762 150.615H94.238L94.2279 148.519H95.755L95.75 147.339H97.8466L97.8517 148.519H98.7135L98.7085 147.339H100.8L100.805 148.529C102.453 148.63 103.769 149.995 103.774 151.664V151.835C103.784 152.556 103.537 153.221 103.129 153.755ZM102.095 156.331V156.149C102.09 155.504 101.566 154.98 100.921 154.98H97.393L97.4031 157.5H100.926C101.576 157.5 102.095 156.971 102.095 156.331ZM97.3728 150.615L97.3829 152.883H100.639C101.218 152.883 101.687 152.415 101.682 151.835V151.664C101.677 151.084 101.208 150.615 100.629 150.615H97.3728Z" fill="#FFF3E5"/>
<path d="M115.875 49.3718C111.631 45.8589 105.104 45.4255 100.432 48.3487C95.7601 51.2719 93.2905 57.3249 94.5857 62.6824C95.881 68.0399 100.845 72.2937 106.339 72.7523C111.833 73.211 117.437 69.8443 119.604 64.7791C121.777 59.7139 120.481 53.182 115.875 49.3718Z" fill="#FFB928"/>
<path d="M113.022 51.2769C109.58 48.9535 104.656 49.0996 101.354 51.6247C98.0533 54.1497 96.6269 58.8621 97.9676 62.7983C99.3082 66.7295 103.325 69.5872 107.478 69.5671C111.631 69.5469 115.618 66.6489 116.923 62.7026C118.223 58.7563 116.873 53.8775 113.022 51.2769Z" fill="#FFB10F"/>
<path d="M119.604 64.7791C120.804 61.9718 120.94 58.721 120.043 55.7272C120.37 61.1099 118.42 67.5712 112.221 70.1819C105.855 72.8632 100.992 70.6305 98.2145 68.927C100.402 71.0639 103.285 72.4903 106.339 72.7473C111.828 73.216 117.437 69.8443 119.604 64.7791Z" fill="#E6A41E"/>
<path d="M100.432 48.3487C97.1612 50.3949 94.9738 53.9733 94.3993 57.7735C95.2006 55.0115 97.0402 50.6771 102.569 48.4041C106.399 46.8266 110.694 47.1038 114.685 48.515C110.477 45.8186 104.686 45.6875 100.432 48.3487Z" fill="#F5B878"/>
<path fill-rule="evenodd" clip-rule="evenodd" d="M101.125 51.3244C104.555 48.7008 109.657 48.5493 113.234 50.9636C117.233 53.6651 118.632 58.7246 117.282 62.8209C115.926 66.9211 111.795 69.9241 107.48 69.945C103.165 69.966 99.0029 67.0054 97.6098 62.9203C96.217 58.8308 97.6944 53.9483 101.125 51.3244ZM112.81 51.5901C109.503 49.3577 104.756 49.4985 101.584 51.9249C98.4121 54.3511 97.037 58.8935 98.3254 62.6765C99.6136 66.4538 103.486 69.2084 107.476 69.1891C111.467 69.1697 115.31 66.3764 116.564 62.5841C117.815 58.7877 116.512 54.0899 112.81 51.5901Z" fill="#B4702F"/>
<path d="M111.51 59.3812C112.16 59.9759 112.568 60.8277 112.573 61.7752V61.9567C112.584 63.7559 111.122 65.2226 109.323 65.2226H109.242L109.247 66.1852H107.15L107.145 65.2226H106.284L106.289 66.1852H104.192L104.187 65.2226H102.66L102.65 63.1259H103.688L103.658 56.2413H102.619L102.609 54.1447H104.137L104.131 52.9653H106.228L106.233 54.1447H107.095L107.09 52.9653H109.187L109.192 54.1547C110.84 54.2555 112.155 55.6214 112.16 57.2896V57.461C112.165 58.1817 111.918 58.847 111.51 59.3812ZM110.477 61.9516V61.7702C110.472 61.1251 109.948 60.6009 109.303 60.6009H105.775L105.785 63.1209H109.308C109.958 63.1209 110.482 62.5967 110.477 61.9516ZM105.754 56.2363L105.764 58.5043H109.02C109.6 58.5043 110.069 58.0355 110.064 57.4559V57.2846C110.059 56.705 109.59 56.2363 109.01 56.2363H105.754Z" fill="#FFF3E6"/>
<path d="M151.029 180.235C146.785 176.722 140.258 176.289 135.586 179.212C130.914 182.135 128.444 188.188 129.74 193.546C131.035 198.903 135.999 203.157 141.493 203.616C146.987 204.074 152.591 200.708 154.758 195.643C156.931 190.577 155.635 184.046 151.029 180.235Z" fill="#FFB928"/>
<path d="M148.176 182.14C144.734 179.817 139.81 179.963 136.508 182.488C133.207 185.013 131.781 189.726 133.122 193.662C134.462 197.593 138.479 200.451 142.632 200.431C146.785 200.41 150.772 197.512 152.077 193.566C153.377 189.62 152.027 184.741 148.176 182.14Z" fill="#FFB10F"/>
<path d="M154.758 195.643C155.958 192.835 156.094 189.584 155.197 186.591C155.524 191.973 153.574 198.435 147.375 201.045C141.009 203.727 136.146 201.494 133.369 199.79C135.556 201.927 138.439 203.354 141.493 203.611C146.982 204.08 152.591 200.708 154.758 195.643Z" fill="#E6A41E"/>
<path d="M135.586 179.212C132.315 181.258 130.128 184.837 129.553 188.637C130.355 185.875 132.194 181.541 137.723 179.268C141.553 177.69 145.848 177.967 149.839 179.378C145.631 176.682 139.84 176.551 135.586 179.212Z" fill="#F5B878"/>
<path fill-rule="evenodd" clip-rule="evenodd" d="M136.279 182.188C139.709 179.564 144.811 179.413 148.388 181.827C152.387 184.529 153.786 189.588 152.436 193.684C151.08 197.785 146.949 200.788 142.634 200.809C138.319 200.83 134.157 197.869 132.764 193.784C131.371 189.694 132.848 184.812 136.279 182.188ZM147.964 182.454C144.657 180.221 139.91 180.362 136.738 182.788C133.566 185.215 132.191 189.757 133.479 193.54C134.768 197.317 138.64 200.072 142.63 200.053C146.62 200.033 150.464 197.24 151.718 193.448C152.969 189.651 151.666 184.953 147.964 182.454Z" fill="#B4702F"/>
<path d="M146.664 190.245C147.314 190.839 147.722 191.691 147.727 192.639V192.82C147.738 194.619 146.276 196.086 144.477 196.086H144.396L144.401 197.049H142.304L142.299 196.086H141.438L141.443 197.049H139.346L139.341 196.086H137.814L137.804 193.989H138.842L138.812 187.105H137.773L137.763 185.008H139.291L139.285 183.829H141.382L141.387 185.008H142.249L142.244 183.829H144.341L144.346 185.018C145.994 185.119 147.309 186.485 147.314 188.153V188.324C147.319 189.045 147.072 189.71 146.664 190.245ZM145.631 192.815V192.634C145.626 191.989 145.102 191.464 144.457 191.464H140.929L140.939 193.984H144.462C145.112 193.984 145.636 193.46 145.631 192.815ZM140.908 187.1L140.918 189.368H144.174C144.754 189.368 145.223 188.899 145.218 188.319V188.148C145.213 187.568 144.744 187.1 144.164 187.1H140.908Z" fill="#FFF3E6"/>
<path d="M85.4936 109.842L84.8283 104.595C84.41 101.511 86.2597 98.5623 89.2282 97.6248C110.19 91.0023 132.865 93.87 154.093 89.3643C155.408 89.0871 156.991 88.4974 157.041 87.0963C157.046 86.935 157.031 86.7737 156.991 86.6225C156.991 86.6225 158.291 88.2202 159.486 94.747C159.486 94.747 139.749 103.169 121.701 105.462C103.663 107.75 85.4936 109.842 85.4936 109.842Z" fill="#76ABE9"/>
<path d="M169.43 111.107C166.688 131.131 157.117 134.85 143.605 137.985L140.203 134.744C140.203 134.744 135.793 134.024 135.294 137.511C135.203 138.131 135.374 138.907 135.712 139.769C135.173 139.895 134.634 140.021 134.084 140.152C116.782 144.331 98.1087 144.406 90.8965 144.245C91.2341 145.787 91.6071 147.41 92.0204 149.164C92.726 152.143 95.4778 154.174 98.5321 153.967C122.225 152.364 145.596 149.144 168.689 144.562C171.804 143.942 173.961 141.11 173.744 137.94C173.109 128.626 171.582 119.761 169.43 111.107Z" fill="#4191ED"/>
<path d="M89.1677 135.697C91.5063 135.677 94.4497 135.49 97.4837 134.901C104.298 133.57 106.289 131.841 107.156 128.223C108.017 124.599 105.825 122.306 105.825 122.306L87.2878 123.404C87.8725 127.784 88.4218 131.564 89.1677 135.697Z" fill="#B4702F"/>
<path d="M168.462 110.124C179.157 113.672 190.033 118.566 196.772 127.598C202.099 134.734 204.256 143.67 207.719 151.875C213.096 164.621 221.634 175.624 230.862 186.031C230.862 186.031 223.312 200.164 217.421 206.348C211.529 212.527 200.501 219.336 200.501 219.336C192.81 203.55 184.63 187.327 171.098 176.133C167.832 173.431 164.299 171.068 160.937 168.492L152.422 154.022L143.907 139.553L168.462 110.124Z" fill="#B4702F"/>
<path d="M86.6024 114.468C85.4784 115.043 84.6569 116.106 84.1731 117.27C83.6892 118.435 83.5028 119.705 83.3919 120.96C83.1802 123.354 83.2155 125.773 83.5632 128.238C83.5884 128.409 83.6187 128.575 83.659 128.742L88.7544 123.948L86.6024 114.468Z" fill="#7F57E2"/>
<path d="M86.6024 114.468C85.4784 115.043 84.6569 116.106 84.1731 117.27C83.8354 118.082 83.6489 118.949 83.5229 119.821C83.6691 120.027 83.8455 120.214 84.042 120.37C85.0904 121.192 86.5217 121.313 87.8523 121.282C87.948 121.282 88.0489 121.272 88.1446 121.267L86.6024 114.468Z" fill="#976FFB"/>
<path d="M85.4936 109.842C87.8573 127.255 88.2404 133.202 92.0153 149.164C92.7209 152.142 95.4728 154.173 98.527 153.967C122.22 152.364 145.591 149.143 168.684 144.562C171.799 143.942 173.956 141.11 173.739 137.94C172.474 119.367 167.661 102.599 161.426 85.67C161.613 86.174 161.708 86.7079 161.698 87.2573C161.663 88.9507 160.61 90.503 159.244 91.506C157.878 92.5089 156.23 93.0381 154.587 93.4615C149.612 94.7316 144.462 95.1197 139.341 95.4977C126.912 96.42 114.484 97.3423 102.055 98.2646C98.2599 98.5469 94.3337 98.8644 90.972 100.644C87.6053 102.423 84.919 106.077 85.4936 109.842Z" fill="#7FB0E8"/>
<path d="M83.664 128.742C84.2184 131.08 86.2597 132.799 88.704 132.91C92.7461 133.091 97.0301 132.834 101.062 132.179C104.756 131.574 107.256 128.081 106.687 124.377C106.662 124.221 106.636 124.064 106.611 123.908C106.057 120.456 103.018 117.961 99.5249 118.127C95.2056 118.334 90.6747 118.541 86.6729 118.747L83.664 128.742Z" fill="#895EF2"/>
<path d="M99.5249 118.122C95.2056 118.329 90.6747 118.536 86.6729 118.742L85.9472 121.161C86.5721 121.272 87.2223 121.297 87.8573 121.282C91.1636 121.207 94.4093 120.4 97.7004 120.088C100.331 119.836 103.093 119.937 105.371 120.93C104.051 119.125 101.894 118.011 99.5249 118.122Z" fill="#976FFB"/>
<path d="M101.047 124.044C102.05 125.072 102.05 126.912 101.047 127.94C100.039 128.968 98.2044 129.014 97.1511 128.031C96.0977 127.048 96.012 125.214 96.9696 124.135C97.9222 123.066 99.8576 122.825 101.047 124.044Z" fill="#001833"/>
<path d="M125.839 151.4C125.839 151.4 125.951 150.515 125.593 152.944C125.448 153.933 125.919 155.333 126.837 155.902C127.462 156.29 128.278 156.25 128.964 155.973C129.644 155.696 130.224 155.217 130.788 154.748C133.54 152.445 133.941 152.297 136.693 149.988L125.839 151.4Z" fill="#B4702F"/>
<path d="M137.731 149.841C135.569 151.998 135.179 153.197 134.593 154.622C134.23 155.504 133.923 156.472 134.165 157.389C134.487 158.609 135.763 159.415 137.028 159.491C138.293 159.566 139.517 159.037 140.576 158.347C143.081 156.704 144.824 154.163 146.709 151.83C148.589 149.496 150.827 147.213 153.73 146.467L137.731 149.841Z" fill="#B4702F"/>
<path d="M147.475 150.908C149.194 148.917 151.21 147.112 153.73 146.462L137.731 149.841C136.148 151.418 152.598 144.971 151.534 146.937C155.188 146.498 143.378 151.457 147.475 150.908Z" fill="#B4702F"/>
<path d="M160.887 148.907C156.855 143.686 150.812 138.293 145.102 134.992C143.983 134.342 142.798 133.727 141.513 133.586C140.228 133.445 138.802 133.878 138.081 134.952C136.957 136.64 137.985 138.878 139.018 140.627C144.23 149.462 149.567 158.453 157.228 165.282C158.468 166.386 159.758 167.424 161.073 168.437" fill="#B4702F"/>
<path d="M201.283 228.408C200.194 227.657 198.536 227.904 197.719 228.942C196.898 229.98 197.054 231.659 198.057 232.52C199.06 233.382 200.748 233.281 201.635 232.299C202.517 231.311 202.658 229.35 201.283 228.408Z" fill="#EDF4FC"/>
<path d="M235.227 59.7895C234.138 59.0386 232.48 59.2855 231.664 60.3238C230.842 61.362 230.998 63.0404 232.001 63.9022C233.004 64.764 234.693 64.6632 235.58 63.6804C236.457 62.6976 236.598 60.732 235.227 59.7895Z" fill="#EDF4FC"/>
<path d="M34.8315 30.4819C33.4153 29.1463 31.1019 28.8843 29.4236 29.8771C27.7503 30.87 26.8633 33.0272 27.3572 34.9071C27.8511 36.792 29.6806 38.2335 31.6261 38.2788C33.5715 38.3242 35.4665 36.9634 36.0411 35.1036C36.4947 33.6521 36.1822 31.7571 34.8315 30.4819Z" fill="#EDF4FC"/>
<path d="M207.154 36.409C206.383 36.3082 205.582 36.8676 205.415 37.6287C205.249 38.3897 205.748 39.2364 206.494 39.4582C207.24 39.685 208.122 39.2566 208.404 38.5308C208.691 37.8101 208.419 36.5803 207.154 36.409Z" fill="#EDF4FC"/>
<path d="M19.1017 55.3342C18.3305 55.2334 17.5292 55.7928 17.3629 56.5539C17.1965 57.3149 17.6955 58.1616 18.4414 58.3834C19.1873 58.6102 20.0693 58.1818 20.3516 57.456C20.6338 56.7353 20.3617 55.5056 19.1017 55.3342Z" fill="#EDF4FC"/>
<path d="M227.092 43.3239C226.321 43.2231 225.52 43.7825 225.354 44.5435C225.187 45.3046 225.686 46.1513 226.432 46.3731C227.178 46.5999 228.06 46.1715 228.342 45.4457C228.63 44.725 228.357 43.4952 227.092 43.3239Z" fill="#EDF4FC"/>
<path d="M84.2588 211.73C83.4877 211.63 82.6863 212.189 82.52 212.95C82.3537 213.711 82.8526 214.558 83.5985 214.78C84.3445 215.006 85.2265 214.578 85.5087 213.852C85.7909 213.127 85.5188 211.902 84.2588 211.73Z" fill="#EDF4FC"/>
<path d="M211.846 91.5919C211.075 91.4911 210.274 92.0506 210.108 92.8116C209.941 93.5727 210.44 94.4194 211.186 94.6411C211.932 94.8679 212.814 94.4396 213.096 93.7138C213.379 92.9931 213.106 91.7633 211.846 91.5919Z" fill="#EDF4FC"/>
<path d="M172.348 206.821C171.577 206.721 170.775 207.28 170.609 208.041C170.443 208.802 170.942 209.649 171.688 209.871C172.434 210.097 173.316 209.669 173.598 208.943C173.88 208.218 173.608 206.993 172.348 206.821Z" fill="#EDF4FC"/>
<path d="M67.4403 185.301C67.997 185.301 68.4483 184.85 68.4483 184.293C68.4483 183.736 67.997 183.285 67.4403 183.285C66.8836 183.285 66.4323 183.736 66.4323 184.293C66.4323 184.85 66.8836 185.301 67.4403 185.301Z" fill="#895EF2"/>
<path d="M72.576 137.592C73.1327 137.592 73.584 137.141 73.584 136.584C73.584 136.027 73.1327 135.576 72.576 135.576C72.0193 135.576 71.568 136.027 71.568 136.584C71.568 137.141 72.0193 137.592 72.576 137.592Z" fill="#EDF4FC"/>
<path d="M126 174.384C126.557 174.384 127.008 173.933 127.008 173.376C127.008 172.819 126.557 172.368 126 172.368C125.443 172.368 124.992 172.819 124.992 173.376C124.992 173.933 125.443 174.384 126 174.384Z" fill="#FFB10F"/>
<path d="M101.279 213.822C101.836 213.822 102.287 213.371 102.287 212.814C102.287 212.257 101.836 211.806 101.279 211.806C100.722 211.806 100.271 212.257 100.271 212.814C100.271 213.371 100.722 213.822 101.279 213.822Z" fill="#EDF4FC"/>
<path d="M216.216 82.1521C216.773 82.1521 217.224 81.7008 217.224 81.1441C217.224 80.5874 216.773 80.1361 216.216 80.1361C215.659 80.1361 215.208 80.5874 215.208 81.1441C215.208 81.7008 215.659 82.1521 216.216 82.1521Z" fill="#829DFD"/>
<path d="M168.336 208.656C169.449 208.656 170.352 207.753 170.352 206.64C170.352 205.527 169.449 204.624 168.336 204.624C167.223 204.624 166.32 205.527 166.32 206.64C166.32 207.753 167.223 208.656 168.336 208.656Z" fill="#EDF4FC"/>
<path d="M40.3099 169.011C41.4233 169.011 42.3259 168.109 42.3259 166.995C42.3259 165.882 41.4233 164.979 40.3099 164.979C39.1965 164.979 38.2939 165.882 38.2939 166.995C38.2939 168.109 39.1965 169.011 40.3099 169.011Z" fill="#FFB928"/>
<path d="M113.168 192.024L109.368 196.167L114.852 197.382L113.168 192.024Z" fill="#895EF2"/>
<path d="M196.888 110.88L192.024 113.687L196.888 116.495V110.88Z" fill="#829DFD"/>
<path d="M48.1943 113.178C47.5744 112.196 46.1582 111.807 44.3085 112.12C43.1997 112.306 42.3731 112.165 42.0959 111.752C41.9296 111.5 41.975 111.117 42.2219 110.734C42.6806 110.013 43.8549 109.267 45.6491 109.534L45.8255 108.375C44.9839 108.249 44.243 108.305 43.6029 108.476L42.9578 106.848L41.8641 107.282L42.5142 108.92C41.9347 109.252 41.5012 109.681 41.2341 110.104C40.7301 110.89 40.6898 111.752 41.1182 112.402C41.4407 112.891 42.3076 113.652 44.5051 113.284C45.8457 113.062 46.8537 113.259 47.2015 113.813C47.4031 114.136 47.3527 114.569 47.0654 114.983C46.5362 115.739 45.1351 116.459 42.9326 115.986L42.6856 117.135C43.9003 117.397 44.9284 117.351 45.7701 117.13L46.4202 118.763L47.5139 118.329L46.8638 116.696C47.3779 116.404 47.7659 116.041 48.0331 115.658C48.5925 114.842 48.653 113.899 48.1943 113.178Z" fill="#7FB0E8"/>
<path d="M158.57 69.8343C157.95 68.8515 156.534 68.4635 154.684 68.7759C153.576 68.9624 152.749 68.8213 152.472 68.408C152.306 68.156 152.351 67.773 152.598 67.3899C153.057 66.6692 154.231 65.9233 156.025 66.1904L156.202 65.0312C155.36 64.9052 154.619 64.9607 153.979 65.132L153.334 63.5041L152.24 63.9375L152.89 65.5755C152.311 65.9082 151.877 66.3366 151.61 66.7599C151.106 67.5462 151.066 68.408 151.494 69.0582C151.817 69.5471 152.684 70.3081 154.881 69.9402C156.222 69.7184 157.23 69.915 157.577 70.4694C157.779 70.7919 157.729 71.2254 157.441 71.6387C156.912 72.3947 155.511 73.1154 153.309 72.6416L153.062 73.7907C154.276 74.0528 155.304 74.0075 156.146 73.7857L156.796 75.4187L157.89 74.9852L157.24 73.3523C157.754 73.0599 158.142 72.6971 158.409 72.314C158.968 71.4975 159.029 70.5551 158.57 69.8343Z" fill="#7FB0E8"/>
<path d="M74.592 64.0081C75.1487 64.0081 75.6 63.5568 75.6 63.0001C75.6 62.4434 75.1487 61.9921 74.592 61.9921C74.0353 61.9921 73.584 62.4434 73.584 63.0001C73.584 63.5568 74.0353 64.0081 74.592 64.0081Z" fill="#829DFD"/>
<path d="M151.2 50.4001C151.757 50.4001 152.208 49.9488 152.208 49.3921C152.208 48.8354 151.757 48.3841 151.2 48.3841C150.643 48.3841 150.192 48.8354 150.192 49.3921C150.192 49.9488 150.643 50.4001 151.2 50.4001Z" fill="#FFB10F"/>
</svg>
