<svg width="52" height="71" viewBox="0 0 52 71" fill="none" xmlns="http://www.w3.org/2000/svg">
<path d="M46.783 24.4642C46.7205 25.9738 44.7524 27.1922 44.411 28.6054C44.0607 30.0635 45.2456 32.0501 44.6342 33.3783C44.0228 34.7064 41.7334 35.1006 40.8564 36.2899C39.9795 37.4792 40.3209 39.7816 39.2365 40.7828C38.152 41.7839 35.9028 41.2509 34.642 42.0236C33.3813 42.7963 32.8302 45.045 31.4355 45.5556C30.0409 46.0663 28.1911 44.7068 26.7162 44.9352C25.2836 45.1592 23.9091 47.0226 22.4051 46.951C20.9012 46.8793 19.6873 44.9128 18.2793 44.5701C16.8289 44.2163 14.8474 45.4078 13.5242 44.7941C12.201 44.1804 11.8105 41.8825 10.6234 41.0045C9.4363 40.1265 7.14467 40.467 6.14724 39.3785C5.14981 38.29 5.67865 36.0323 4.90882 34.7647C4.139 33.497 1.90315 32.9482 1.39216 31.5507C0.881173 30.1531 2.24009 28.2941 2.01025 26.8137C1.78712 25.3758 -0.0693977 23.9939 0.00200667 22.4865C0.073411 20.9792 2.0348 19.7586 2.3762 18.3453C2.72653 16.8895 1.54166 14.9006 2.15306 13.5725C2.76446 12.2443 5.05386 11.8524 5.92857 10.6608C6.80327 9.4693 6.46633 7.16911 7.55078 6.18139C8.63524 5.19368 10.8845 5.71105 12.1452 4.93835C13.4059 4.16565 13.9571 1.91921 15.3517 1.40632C16.7463 0.893421 18.5939 2.24621 20.0644 2.01776C21.4947 1.79379 22.8715 -0.0696568 24.3732 0.00201416C25.8749 0.0736851 27.091 2.0424 28.5013 2.38283C29.9517 2.73671 31.9309 1.54518 33.2541 2.15886C34.5773 2.77254 34.9701 5.07049 36.1549 5.94846C37.3398 6.82643 39.6336 6.48599 40.6311 7.5745C41.6285 8.663 41.0997 10.9229 41.8695 12.1883C42.6393 13.4538 44.8774 14.007 45.3884 15.4045C45.8994 16.8021 44.5405 18.6611 44.7681 20.1415C44.9867 21.5705 46.8477 22.9569 46.783 24.4642Z" fill="black"/>
<path d="M51.9999 62.4161C37.0836 73.9442 16.2779 73.852 1.46353 62.1921L12.3214 57.0833C12.6538 56.9256 12.9778 56.7506 13.2921 56.5592L13.542 56.4024C13.6313 56.3465 13.7183 56.2882 13.8053 56.2277C15.1752 55.2792 16.2978 54.014 17.0788 52.5389C17.9713 50.8479 18.2659 48.98 18.2792 47.0763C18.2792 45.7952 18.2101 44.514 18.1967 43.2307C18.1878 42.5214 18.1803 41.8114 18.1744 41.1007L18.6206 41.3247L19.781 41.9272L33.4839 44.2677L33.7985 54.9892L36.3579 56.0351L38.3662 56.8504L51.9999 62.4161Z" fill="#9B4832"/>
<path d="M33.6892 51.4302C31.445 51.8325 29.1357 51.6537 26.9795 50.9106C22.1641 49.2868 18.9219 45.3696 18.6162 41.3336L19.7766 41.9361L33.4795 44.2766L33.6892 51.4302Z" fill="#843E2B"/>
<path d="M51.9999 62.4161C37.0836 73.9442 16.2779 73.852 1.46353 62.1921L12.3214 57.0833C12.6538 56.9256 12.9778 56.7506 13.2921 56.5592C18.576 60.4586 25.9284 62.9983 32.2723 60.1427C34.0708 59.3319 35.693 57.8917 36.3535 56.0417L38.3617 56.857L51.9999 62.4161Z" fill="#7FB0E8"/>
<path d="M31.7949 49C27.109 48.8007 15.9029 44.5654 13.6649 35.3512C13.1947 33.4315 12.9845 31.4569 13.0401 29.4809C13.0401 29.0934 13.0758 28.7104 13.107 28.3297C13.6582 22.0002 17.1123 16.8332 22.2825 15.5633C22.5815 15.4916 22.8805 15.4311 23.175 15.3886C24.9799 15.1281 26.8212 15.3355 28.5236 15.9911C30.7125 16.8472 32.6689 18.2101 34.2338 19.9688C34.8951 20.6936 35.4987 21.4695 36.039 22.2891C37.4165 24.3861 38.4186 26.7085 39 29.1516C41.2358 38.3725 35.2133 49.1389 31.7949 49Z" fill="#9B4832"/>
<path d="M24.516 29.4273C25.8749 29.4967 25.7879 31.5819 24.4267 31.5371H24.3665C23.0053 31.4676 23.0946 29.3802 24.4535 29.4273H24.516Z" fill="black"/>
<path d="M35.7578 29.0423C37.0185 29.1072 36.9382 31.0423 35.6752 30.9998H35.6172C34.3565 30.9371 34.4368 28.9997 35.6998 29.0423H35.7578Z" fill="black"/>
<path fill-rule="evenodd" clip-rule="evenodd" d="M31.7633 31.6268C31.5582 30.7602 31.4422 29.8748 31.4172 28.9844L31.9402 28.9696C31.9642 29.8227 32.0752 30.6712 32.2715 31.5017C32.4571 32.193 32.738 32.6324 33.1466 33.2715C33.1535 33.2821 33.1603 33.2928 33.1672 33.3036C33.3198 33.5329 33.451 33.7759 33.5592 34.0294L33.5618 34.0356C33.8583 34.7826 33.7755 35.5702 33.3982 36.1672C33.0183 36.7683 32.347 37.163 31.507 37.1276L30.5872 37.0873L30.6101 36.5626L31.529 36.6029C32.1795 36.6302 32.6753 36.3306 32.9564 35.8858C33.2397 35.4376 33.3123 34.8289 33.0769 34.2331C32.9814 34.0097 32.8655 33.7955 32.7309 33.5934L32.7281 33.5893C32.7166 33.5713 32.7052 33.5533 32.6938 33.5355C32.2921 32.9076 31.9721 32.4072 31.7652 31.6342L31.7642 31.6305L31.7633 31.6268Z" fill="black"/>
<path fill-rule="evenodd" clip-rule="evenodd" d="M26.741 35.9473C26.6027 35.459 26.8415 34.9427 27.3024 34.7338L27.5178 35.2124C27.2932 35.3142 27.1769 35.5657 27.2443 35.8036C27.3117 36.0415 27.5425 36.1939 27.7868 36.1618L27.8546 36.6826C27.3531 36.7484 26.8793 36.4355 26.741 35.9473Z" fill="black"/>
<path fill-rule="evenodd" clip-rule="evenodd" d="M37.881 26.2541C36.2675 25.7077 34.5071 25.8002 32.9593 26.5127L32.7412 26.0353C34.4102 25.2671 36.3084 25.1673 38.0482 25.7564L37.881 26.2541Z" fill="black"/>
<path fill-rule="evenodd" clip-rule="evenodd" d="M27.9812 26.7387C25.8552 25.706 23.3811 25.679 21.2331 26.665L21.0155 26.1873C23.3053 25.1363 25.9427 25.1651 28.2091 26.2659L27.9812 26.7387Z" fill="black"/>
<path d="M34.66 19.893C34.7693 20.1573 34.747 20.388 34.5596 20.7486C34.3356 21.1755 34.0565 21.5709 33.7295 21.9244C32.3638 23.4329 30.2739 24.0506 28.3117 23.5258C27.7948 23.4025 27.3012 23.196 26.8501 22.9144C26.5154 22.6904 26.1272 22.1618 25.6719 22.341C25.4873 22.4385 25.3415 22.5966 25.2591 22.789C24.5295 24.0835 22.9415 24.7734 21.5 25.4542C20.6617 25.8155 21.053 26.2696 19.9797 26.3837C19 26.5 18.98 25.6401 18.3262 25.4542C17.958 25.349 17.5899 25.6334 17.3667 25.947C16.945 26.5405 16.9093 27.2908 16.5612 27.9202C16.1149 28.7489 15.2067 29.488 14.2383 29.5955C13.8516 29.649 13.464 29.5033 13.2074 29.208C12.7143 28.5674 13.0066 27.4162 13.1003 26.6749C13.4573 23.9021 14.4079 21.1562 16.0881 18.9053C17.6033 16.8896 19.7208 15.3218 22.1888 14.7282C26.4619 13.6823 31.7525 16.184 34.4056 19.4675C34.5124 19.5949 34.5982 19.7385 34.66 19.893Z" fill="black"/>
<path d="M34.1467 19.1449C30.0387 18.0385 25.1966 18.2491 21.9098 20.1013C16.1974 23.3131 14.8564 25.8619 13.04 28.5338L12.9619 28.6525C12.9619 28.498 12.9619 28.3412 12.982 28.1867C13.3346 21.5459 16.849 16.0497 22.2043 14.7484C26.4239 13.7159 30.8242 15.5211 34.14 19.1382L34.1467 19.1449Z" fill="#004A9E"/>
<path fill-rule="evenodd" clip-rule="evenodd" d="M27.3685 40.6398L27.5659 40.8368C28.1053 41.375 28.7924 41.7419 29.5405 41.8912L29.8574 41.9544C30.3092 42.0446 30.7767 42.0155 31.2138 41.8702C31.6037 41.7405 31.958 41.522 32.2486 41.232L32.8422 40.6398L33.1647 40.9616L32.5711 41.5539C32.2304 41.8938 31.8151 42.1499 31.358 42.302C30.8456 42.4724 30.2975 42.5064 29.7679 42.4007L29.451 42.3375C28.6146 42.1706 27.8465 41.7604 27.2433 41.1586L27.0459 40.9616L27.3685 40.6398Z" fill="black"/>
<path d="M16.9449 33.5842C16.9449 35.687 15.2465 37.3917 13.1515 37.3917C11.0565 37.3917 9.35815 35.687 9.35815 33.5842C9.35815 31.4814 11.0565 29.7767 13.1515 29.7767C15.2465 29.7767 16.9449 31.4814 16.9449 33.5842Z" fill="#843E2B"/>
<path d="M18.3015 33.1948C18.3015 35.2977 16.6031 37.0024 14.5081 37.0024C12.4131 37.0024 10.7148 35.2977 10.7148 33.1948C10.7148 31.092 12.905 29.9999 15 29.9999C17.095 29.9999 18.3015 31.092 18.3015 33.1948Z" fill="#9B4832"/>
</svg>
