<svg width="1100" height="800" viewBox="0 0 1100 800" fill="none" xmlns="http://www.w3.org/2000/svg">
<path d="M1100 0H0V800H1100V0Z" fill="#EDF4FC"/>
<g opacity="0.5">
<path d="M521.96 644.12C493.77 644.2 465.57 644.88 437.43 648.01C426.82 649.19 416.43 651.79 405.79 652.83C384.55 654.92 363.68 658.82 342.36 660.62C325.19 662.07 307.95 662.92 290.83 664.76C274.78 666.48 257.01 666.09 241.09 663.24C229.3 661.13 217.46 659.94 205.86 656.56C192.89 652.77 178.81 650.06 165.29 650.16C146.02 650.3 127.26 650.32 108.82 657.01C102.35 659.36 94.42 663.22 89.51 668.15C78.26 679.43 76.74 707.58 87.97 719.28C106.89 738.97 147.27 746.7 173.8 747.07C202.86 747.47 231.1 745.31 260.2 744.04C287.25 742.86 314.22 741.18 341.31 741.24C396.64 741.36 451.97 741.24 507.2 737.54C559.09 734.07 611.11 735.26 663.11 735.26C716.44 735.26 769.4 735.68 822.34 742.77C845.41 745.86 868.91 746.94 892.09 749.1C912.85 751.04 932.8 749.06 953.48 747.27C970.84 745.77 988.1 741.31 1003.87 733.77C1016.36 727.8 1038.62 709.26 1042.45 695.02C1053.19 655.09 891.15 656.05 866.27 656.14C838.44 656.24 810.39 657.16 782.58 656.1C770.88 655.65 759.36 653.37 747.94 650.86C736.57 648.36 725.11 649 713.58 647.95C665.49 643.58 617.29 644.22 569.04 644.22C553.38 644.21 537.67 644.07 521.96 644.12Z" fill="#EED5D5"/>
</g>
<path d="M614.98 700.74L616.1 709.47L599.76 720.45L589.9 712.84L597.51 702.98L613.85 692L614.98 700.74Z" fill="#1B1B30"/>
<path d="M615.53 697.8L602.92 586.42L618.09 461.73L614.68 435.2L546.94 432.63L544.5 475.8L555.87 586.59L598.65 703.5L615.53 697.8Z" fill="#353A85"/>
<path d="M540.58 309.39L506.51 318.67L467.1 388.49L485.77 405.78L512.04 374.67L540.58 309.39Z" fill="#BABCBE"/>
<path d="M497.24 445.11L497.06 557.51L519.68 702.21L535.97 702.04L544.92 568.23L565.87 434.3L497.24 445.11Z" fill="#353A85"/>
<path d="M535.94 708.91L518.42 717.89L509.53 709.18L518.25 700.28L535.86 700.11L535.94 708.91Z" fill="#1B1B30"/>
<path d="M625.1 483.34C624.94 478.47 624.67 474.4 624.64 472.95C624.29 459.88 623.13 446.85 621.49 433.87C620.02 422.24 618.17 393.38 616.18 381.83C614.54 372.29 608.81 348.48 604.68 339.63C594.39 317.62 597.57 315.59 552.39 309.06C532.59 306.2 527.91 318.54 511.72 332.73C510.12 334.13 510.21 342.46 509.84 344.67C509.19 348.56 508.49 352.44 507.69 356.3C507.06 359.34 506.37 362.36 505.59 365.37C497.53 396.48 488.27 426.39 486.38 458.64C485.84 467.74 483.05 476.57 483.29 485.75C483.32 486.81 483.41 487.94 484.06 488.76C486.79 492.21 501.89 486.94 506.47 486.49C518.13 485.34 530.03 484.62 541.75 484.71C553.78 484.8 565.86 486.02 577.69 488.06C585.6 489.38 593.67 491.3 600.75 495C607.5 498.53 612.37 503.71 619.22 507.36C619.87 507.71 620.58 508.06 621.32 507.96C625.24 507.41 625.43 493.59 625.1 483.34Z" fill="#BABCBE"/>
<path d="M552.34 315.26C554.62 316.39 560 316.79 565.61 314.59C566.74 314.15 567.5 313.06 567.49 311.84C567.45 308.43 567.17 305.02 566.67 301.65C570.88 300.17 575.74 297.95 576.48 293.55C576.71 292.16 576.47 290.75 576.23 289.36C575.24 283.63 574.25 277.91 573.26 272.18C572.92 270.2 572.55 268.16 571.48 266.46C569.59 263.48 565.92 262.18 562.45 261.58C553.58 260.04 543.92 261.96 537.05 267.77C535.22 269.32 533.57 271.17 532.76 273.43C531.52 276.91 532.45 280.74 533.38 284.31C534.25 287.61 535.11 290.9 535.98 294.2C536.98 297.99 538.41 302.3 542.07 303.72C544.01 304.48 546.3 304.25 548.06 305.37C551.14 307.36 550.73 311.97 552.34 315.26Z" fill="#D5C6AB"/>
<path d="M503.43 257.91C501.91 243.69 508.12 228.72 519.82 231.7C526.9 233.5 533.24 236.49 540.37 233.83C547.07 231.33 551.91 232.35 558.91 234.85C566.49 237.55 576.66 238.19 583.52 242.01C586.38 243.6 588.67 246.1 590.45 248.85C596.62 258.38 596.66 271.53 590.53 281.1C589.16 283.25 587.51 285.21 585.79 287.08C582.21 290.96 577.94 295.75 573.02 297.18C572.9 292.78 576.91 278.91 573.53 275.3C568.17 269.58 556.04 271.57 549.39 272.98C542.13 274.52 535.67 279.66 528.47 280.75C512.6 283.17 504.82 270.85 503.43 257.91Z" fill="#3B3631"/>
<path d="M634.96 227.64C633.72 227.02 632.47 226.41 631.2 225.82C643.81 207.51 650.64 185.03 650.64 161.21C650.64 103.75 610.12 57 560.3 57C510.48 57 469.96 103.75 469.96 161.21C469.96 185.05 476.79 207.52 489.4 225.83C487.44 226.73 486.14 227.39 485.57 227.68C432.63 251.99 398.43 305.09 398.43 363.05V399.17C398.43 414.72 411.08 427.37 426.63 427.37H693.98C709.53 427.37 722.18 414.72 722.18 399.17V363.05C722.18 305.06 687.95 251.93 634.96 227.64Z" fill="white"/>
<path d="M630.74 236.45C630.25 237.04 629.79 237.65 629.29 238.24C611.02 259.65 586.53 271.44 560.31 271.44C534.09 271.44 509.6 259.65 491.33 238.24C490.83 237.66 490.36 237.05 489.88 236.45C441.82 258.41 408.21 306.99 408.21 363.05V399.17C408.21 409.35 416.46 417.6 426.64 417.6H693.99C704.17 417.6 712.42 409.35 712.42 399.17V363.05C712.41 306.99 678.8 258.41 630.74 236.45Z" fill="#474EBB"/>
<path d="M560.31 255.65C581.48 255.65 600.73 246.07 615.11 230.42C630.96 213.17 640.88 188.55 640.88 161.21C640.88 109.05 604.81 66.7598 560.31 66.7598C515.81 66.7598 479.74 109.04 479.74 161.21C479.74 188.56 489.67 213.18 505.51 230.42C519.89 246.07 539.14 255.65 560.31 255.65Z" fill="#474EBB"/>
<path d="M469.22 426.92L465.5 417.82L480.49 411.96L493.8 421.91L486.15 434.03L469.22 426.92Z" fill="#EAC1A4"/>
<path d="M636.64 426.87L640.33 417.76L625.31 411.95L612.04 421.95L619.74 434.04L636.64 426.87Z" fill="#EAC1A4"/>
</svg>
