<svg width="14" height="14" viewBox="0 0 14 14" fill="none" xmlns="http://www.w3.org/2000/svg">
<path fill-rule="evenodd" clip-rule="evenodd" d="M6.99995 1.01013C4.61077 1.01013 2.67395 2.95103 2.67395 5.34525C2.67395 7.73948 4.61077 9.68038 6.99995 9.68038C9.38913 9.68038 11.326 7.73948 11.326 5.34525C11.326 2.95103 9.38913 1.01013 6.99995 1.01013ZM1.66595 5.34525C1.66595 2.39315 4.05406 0 6.99995 0C9.94584 0 12.334 2.39315 12.334 5.34525C12.334 8.29735 9.94584 10.6905 6.99995 10.6905C4.05406 10.6905 1.66595 8.29735 1.66595 5.34525Z" fill="#0066DA"/>
<path fill-rule="evenodd" clip-rule="evenodd" d="M1.20395 10.3538C1.4823 10.3538 1.70795 10.5799 1.70795 10.8589V12.1215C1.70795 12.2145 1.78317 12.2899 1.87595 12.2899H12.124C12.2167 12.2899 12.292 12.2145 12.292 12.1215V10.8589C12.292 10.5799 12.5176 10.3538 12.7959 10.3538C13.0743 10.3538 13.3 10.5799 13.3 10.8589V12.1215C13.3 12.7724 12.7734 13.3 12.124 13.3H1.87595C1.22646 13.3 0.699951 12.7724 0.699951 12.1215V10.8589C0.699951 10.5799 0.9256 10.3538 1.20395 10.3538Z" fill="#0066DA"/>
<path d="M7.38618 1.93389V2.94219H6.85298V1.93389H7.38618ZM7.32124 7.51543V8.43486H6.78804V7.51543H7.32124ZM7.69722 6.39434C7.69722 6.26445 7.67329 6.15394 7.62544 6.06279C7.57987 5.97165 7.50467 5.89076 7.39985 5.82012C7.29731 5.74948 7.15832 5.68112 6.98286 5.61504C6.68664 5.50111 6.42573 5.38034 6.20015 5.25273C5.97684 5.12285 5.80252 4.96221 5.6772 4.7708C5.55187 4.57712 5.48921 4.33216 5.48921 4.03594C5.48921 3.75339 5.55643 3.50843 5.69087 3.30107C5.82531 3.09372 6.01102 2.93421 6.248 2.82256C6.48726 2.70863 6.76525 2.65166 7.08198 2.65166C7.32352 2.65166 7.54227 2.68812 7.73823 2.76104C7.9342 2.83167 8.10282 2.93649 8.24409 3.07549C8.38537 3.21221 8.4936 3.37969 8.5688 3.57793C8.64399 3.77617 8.68159 4.0029 8.68159 4.25811H7.70063C7.70063 4.12139 7.68582 4.00062 7.6562 3.8958C7.62658 3.79098 7.58328 3.70326 7.52632 3.63262C7.47163 3.56198 7.40555 3.50957 7.32808 3.47539C7.2506 3.43893 7.16515 3.4207 7.07173 3.4207C6.93273 3.4207 6.8188 3.44805 6.72993 3.50273C6.64106 3.55742 6.57612 3.63148 6.53511 3.7249C6.49637 3.81605 6.477 3.92087 6.477 4.03936C6.477 4.15557 6.49751 4.25697 6.53853 4.34355C6.58182 4.43014 6.65588 4.5099 6.76069 4.58281C6.86551 4.65345 7.00907 4.72637 7.19136 4.80156C7.48758 4.91549 7.74735 5.03854 7.97065 5.1707C8.19396 5.30286 8.36828 5.46465 8.4936 5.65605C8.61893 5.84746 8.68159 6.09128 8.68159 6.3875C8.68159 6.68145 8.61323 6.9321 8.47651 7.13945C8.33979 7.34453 8.14839 7.50176 7.90229 7.61113C7.6562 7.71823 7.37137 7.77178 7.0478 7.77178C6.83817 7.77178 6.62967 7.74443 6.42231 7.68975C6.21496 7.63278 6.02697 7.54163 5.85835 7.41631C5.68973 7.29098 5.55529 7.12464 5.45503 6.91728C5.35477 6.70765 5.30464 6.45016 5.30464 6.14482H6.28901C6.28901 6.31117 6.31066 6.45016 6.35395 6.56182C6.39725 6.67119 6.45422 6.75892 6.52485 6.825C6.59777 6.8888 6.6798 6.93437 6.77095 6.96172C6.86209 6.98906 6.95438 7.00273 7.0478 7.00273C7.19364 7.00273 7.31326 6.97653 7.40669 6.92412C7.50239 6.87171 7.57417 6.79993 7.62202 6.70879C7.67215 6.61536 7.69722 6.51055 7.69722 6.39434Z" fill="#0066DA"/>
</svg>
