<?xml version="1.0" encoding="UTF-8" standalone="no"?>
<svg
   width="69"
   height="75"
   viewBox="0 0 69 75"
   fill="none"
   version="1.1"
   id="svg12"
   xmlns="http://www.w3.org/2000/svg"
   xmlns:svg="http://www.w3.org/2000/svg">
  <defs
     id="defs16" />
  <path
     d="M69 71C69 73.2091 53.5538 75 34.5 75C15.4462 75 0 73.2091 0 71C0 68.7909 15.4462 67 34.5 67C53.5538 67 69 68.7909 69 71Z"
     fill="#D9D9D9"
     id="path2" />
  <path
     d="M68.9946 34.9569C68.999 34.9973 68.999 35.0381 68.9946 35.0786C68.4899 37.451 53.2817 39.3594 34.5925 39.3594C15.9033 39.3594 0.69509 37.4555 0.192656 35.0786C0.183708 35.0386 0.179175 34.9978 0.179138 34.9569C0.178024 34.9457 0.178024 34.9343 0.179138 34.9231C0.17684 34.9135 0.17684 34.9034 0.179138 34.8938C0.442747 32.4943 15.7478 30.5589 34.588 30.5589C53.4281 30.5589 68.7332 32.4943 68.9991 34.8938C69.0003 34.9035 69.0003 34.9134 68.9991 34.9231L68.9946 34.9569Z"
     fill="#56303C"
     id="path4" />
  <path
     d="M62.3458 37.5H4.69656C3.71662 37.5 3.32143 38.7632 4.12666 39.3217L31.9494 58.6182C32.2826 58.8492 32.7222 58.8563 33.0625 58.6361L62.889 39.3396C63.7257 38.7983 63.3423 37.5 62.3458 37.5Z"
     fill="white"
     id="path6" />
  <path
     d="M31.3051 39.6095C33.5131 43.611 32.1838 48.5609 28.3243 50.5639C24.7329 52.4272 20.1614 51.0145 17.9602 47.3375C16.1397 44.3026 16.4168 40.6572 18.3297 38.1608C18.6295 37.7528 18.8047 37.2667 18.8339 36.7612C18.8631 36.2558 18.7451 35.7527 18.4942 35.3129L0.201499 2.1545C-0.188281 1.44929 0.000976264 0.552576 0.652113 0.171808C0.819002 0.0815184 1.00223 0.025441 1.19107 0.00685671C1.3799 -0.0117276 1.57056 0.00755901 1.75185 0.0635822C1.93313 0.119605 2.10141 0.211234 2.24684 0.333114C2.39226 0.454995 2.51191 0.60467 2.59877 0.773373L20.8959 33.9385C21.1321 34.3876 21.4945 34.7577 21.9385 35.0031C22.3826 35.2486 22.8887 35.3586 23.3946 35.3197C26.4723 34.993 29.6469 36.6017 31.3051 39.6095Z"
     fill="#D9AF00"
     id="path8" />
  <path
     d="M68.9832 35.078L68.5011 40.4538C67.2439 58.253 60.6153 72.0666 34.5766 72.0666C4.71222 72.0666 1.90714 58.262 0.652184 40.4538L0.17679 35.078C0.679224 37.4504 15.8874 39.3588 34.5766 39.3588C53.2658 39.3588 68.4786 37.4504 68.9832 35.078Z"
     fill="#7FB0E8"
     id="path10" />
</svg>
