<?xml version="1.0" encoding="UTF-8" standalone="no"?>
<svg
   width="26"
   height="25"
   viewBox="0 0 26 25"
   fill="none"
   version="1.1"
   id="svg4"
   xmlns="http://www.w3.org/2000/svg"
   xmlns:svg="http://www.w3.org/2000/svg">
  <defs
     id="defs8" />
  <path
     style="color:#000000;clip-rule:evenodd;fill:#0066da;fill-rule:evenodd;-inkscape-stroke:none"
     d="M 1.87638,0.193359 9.3692,4.47498 h 7.2618 l 7.4928,-4.281621 1.2717,5.086501 -0.9123,4.56146 1.2336,1.23368 -2.1478,2.1478 1.8331,5.4991 -1.1888,5.9438 -6.2788,-2.093 -2.7596,1.8398 H 10.8253 L 8.06571,22.5727 1.78691,24.6657 0.598166,18.7219 2.43121,13.2228 0.283386,11.075 1.51704,9.84132 0.604751,5.27986 Z M 4.0581,13.5599 2.30206,18.828 3.03831,22.5093 7.6372,20.9763 9.86928,17.2562 5.95621,15.691 6.56901,14.159 10.083,15.5646 9.44748,10.4802 Z M 9.16067,8.74375 3.51291,11.971 2.61684,11.075 3.30818,10.3836 2.29547,5.32009 2.94885,2.70659 8.43513,5.84161 Z m 1.04613,-2.61877 0.7183,2.87323 0.8783,7.02679 h 2.3934 l 0.8784,-7.02679 0.7183,-2.87323 z m 7.3583,-0.28337 -0.7255,2.90214 5.6477,3.22725 0.8961,-0.896 -0.6914,-0.6914 1.0128,-5.06351 -0.6534,-2.6135 z m 4.377,7.71829 -5.3894,-3.0797 -0.6355,5.0844 3.514,-1.4056 0.6128,1.532 -3.913,1.5652 2.232,3.7201 4.5989,1.533 0.7363,-3.6813 z M 16.7005,21.4124 14.458,17.675 h -2.9158 l -2.24243,3.7374 2.02513,1.3501 h 0.8502 V 20.7 h 1.65 v 2.0625 h 0.8502 z"
     id="path2" />
</svg>
